<?xml version="1.0" encoding="UTF-8" standalone="no"?><!DOCTYPE svg PUBLIC "-//W3C//DTD SVG 1.1//EN" "http://www.w3.org/Graphics/SVG/1.1/DTD/svg11.dtd"><svg width="100%" height="100%" viewBox="0 0 3334 3334" version="1.1" xmlns="http://www.w3.org/2000/svg" xmlns:xlink="http://www.w3.org/1999/xlink" xml:space="preserve" xmlns:serif="http://www.serif.com/" style="fill-rule:evenodd;clip-rule:evenodd;stroke-linejoin:round;stroke-miterlimit:2;"><g id="Page-1"><g id="Dribbble-Light-Preview"><g id="icons"><path id="github---142-" serif:id="github-[#142]" d="M1666.67,0c920.5,0 1666.67,765 1666.67,1708.83c0,754.834 -477,1395.17 -1138.83,1621.33c-84.5,16.833 -114.5,-36.5 -114.5,-82c0,-56.334 2,-240.334 2,-469c0,-159.334 -53.333,-263.334 -113.167,-316.334c371.167,-42.333 761.167,-186.833 761.167,-843.166c-0,-186.667 -64.667,-339 -171.667,-458.667c17.334,-43.167 74.5,-217 -16.333,-452.333c-0,-0 -139.667,-45.834 -457.833,175.166c-133.167,-37.833 -275.834,-56.833 -417.5,-57.5c-141.667,0.667 -284.167,19.667 -417.167,57.5c-318.5,-221 -458.5,-175.166 -458.5,-175.166c-90.5,235.333 -33.333,409.166 -16.167,452.333c-106.5,119.667 -171.666,272 -171.666,458.667c-0,654.666 389.166,801.333 759.333,844.5c-47.667,42.666 -90.833,118 -105.833,228.5c-95,43.666 -336.334,119.166 -485,-142c-0,-0 -88.167,-164.167 -255.5,-176.167c-0,-0 -162.5,-2.167 -11.334,103.833c0,0 109.167,52.5 185,250c0,0 97.834,305 561.5,201.667c0.834,142.833 2.334,277.5 2.334,318.167c-0,45.166 -30.667,98 -113.834,82.166c-662.333,-225.833 -1139.83,-866.5 -1139.83,-1621.5c0,-943.833 746.333,-1708.83 1666.67,-1708.83" style="fill:#fdf7ff;"/></g></g></g></svg>