<?xml version="1.0" encoding="UTF-8" standalone="no"?><!DOCTYPE svg PUBLIC "-//W3C//DTD SVG 1.1//EN" "http://www.w3.org/Graphics/SVG/1.1/DTD/svg11.dtd"><svg width="100%" height="100%" viewBox="0 0 137 36" version="1.1" xmlns="http://www.w3.org/2000/svg" xmlnsXlink="http://www.w3.org/1999/xlink" xmlSpace="preserve" xmlnsSerif="http://www.serif.com/" style="fill-rule:evenodd;clip-rule:evenodd;stroke-linejoin:round;stroke-miterlimit:2;"><g id="Mindtemp"><path d="M39.619,22.857c0.073,-0.106 0.156,-0.264 0.249,-0.473c0.093,-0.209 0.166,-0.473 0.219,-0.792c0.073,-0.465 0.154,-0.988 0.244,-1.569c0.09,-0.582 0.183,-1.191 0.279,-1.829c0.096,-0.637 0.193,-1.29 0.289,-1.958c0.096,-0.667 0.189,-1.325 0.279,-1.972c0.089,-0.648 0.176,-1.272 0.259,-1.873c0.083,-0.602 0.158,-1.151 0.224,-1.649c0.066,-0.499 0.121,-0.932 0.164,-1.301c0.044,-0.368 0.075,-0.646 0.095,-0.832l1.265,0l6.268,11.717l6.217,-11.717l0.946,0l1.634,11.837c0.047,0.372 0.097,0.691 0.15,0.957c0.053,0.265 0.106,0.493 0.159,0.682c0.053,0.189 0.105,0.345 0.155,0.468c0.05,0.123 0.098,0.225 0.144,0.304l0,0.04l-2.511,0l0,-0.04c0.034,-0.073 0.065,-0.192 0.095,-0.358c0.03,-0.167 0.045,-0.366 0.045,-0.598c-0,-0.087 -0.003,-0.175 -0.01,-0.264c-0.007,-0.09 -0.017,-0.188 -0.03,-0.294l-1.265,-9.545l-5.879,11.059l-0.687,-0.079l-5.919,-11.08c-0.232,1.574 -0.435,3.029 -0.608,4.364c-0.073,0.571 -0.146,1.141 -0.219,1.709c-0.073,0.568 -0.138,1.097 -0.194,1.589c-0.056,0.492 -0.101,0.925 -0.135,1.3c-0.033,0.376 -0.049,0.653 -0.049,0.832c-0,0.226 0.006,0.425 0.02,0.598c0.013,0.173 0.026,0.319 0.039,0.438c0.02,0.14 0.04,0.263 0.06,0.369l-1.992,0l-0,-0.04Z" style="fill:#fff;fill-rule:nonzero;"/><path d="M61.269,16.59c0,-0.564 -0.008,-1.058 -0.025,-1.479c-0.016,-0.422 -0.036,-0.786 -0.059,-1.091c-0.024,-0.306 -0.053,-0.562 -0.09,-0.768c-0.037,-0.206 -0.075,-0.378 -0.115,-0.518l0,-0.04l2.302,0l0,0.04c-0.04,0.14 -0.076,0.312 -0.11,0.518c-0.033,0.206 -0.063,0.462 -0.089,0.768c-0.027,0.305 -0.047,0.669 -0.06,1.091c-0.013,0.421 -0.02,0.915 -0.02,1.479l0,2.411c0,0.565 0.007,1.058 0.02,1.48c0.013,0.422 0.033,0.785 0.06,1.091c0.026,0.305 0.056,0.561 0.089,0.767c0.034,0.206 0.07,0.379 0.11,0.518l0,0.04l-2.302,0l0,-0.04c0.04,-0.139 0.078,-0.312 0.115,-0.518c0.037,-0.206 0.066,-0.462 0.09,-0.767c0.023,-0.306 0.043,-0.669 0.059,-1.091c0.017,-0.422 0.025,-0.915 0.025,-1.48l0,-2.411Zm-0.209,-6.915c0,-0.146 0.028,-0.284 0.085,-0.413c0.056,-0.13 0.131,-0.243 0.224,-0.339c0.093,-0.096 0.204,-0.173 0.334,-0.229c0.129,-0.056 0.27,-0.085 0.423,-0.085c0.153,0 0.294,0.029 0.424,0.085c0.129,0.056 0.242,0.133 0.338,0.229c0.097,0.096 0.173,0.209 0.23,0.339c0.056,0.129 0.084,0.267 0.084,0.413c0,0.306 -0.103,0.562 -0.309,0.768c-0.205,0.206 -0.461,0.308 -0.767,0.308c-0.153,0 -0.294,-0.028 -0.423,-0.084c-0.13,-0.057 -0.241,-0.133 -0.334,-0.229c-0.093,-0.097 -0.168,-0.21 -0.224,-0.339c-0.057,-0.13 -0.085,-0.271 -0.085,-0.424Z" style="fill:#fff;fill-rule:nonzero;"/><path d="M72.987,16.182c-0,-0.877 -0.176,-1.521 -0.529,-1.933c-0.352,-0.412 -0.823,-0.618 -1.414,-0.618c-0.213,-0 -0.452,0.045 -0.718,0.134c-0.265,0.09 -0.538,0.21 -0.817,0.359c-0.279,0.15 -0.558,0.324 -0.837,0.523c-0.279,0.2 -0.541,0.412 -0.787,0.638l-0.02,1.305l0,2.411c0,0.565 0.007,1.058 0.02,1.48c0.013,0.422 0.033,0.785 0.06,1.091c0.027,0.305 0.056,0.561 0.09,0.767c0.033,0.206 0.069,0.379 0.109,0.518l0,0.04l-2.301,0l-0,-0.04c0.04,-0.139 0.078,-0.312 0.114,-0.518c0.037,-0.206 0.067,-0.462 0.09,-0.767c0.023,-0.306 0.043,-0.669 0.06,-1.091c0.016,-0.422 0.025,-0.915 0.025,-1.48l-0,-2.411c-0,-0.564 -0.009,-1.058 -0.025,-1.479c-0.017,-0.422 -0.037,-0.786 -0.06,-1.091c-0.023,-0.306 -0.053,-0.562 -0.09,-0.768c-0.036,-0.206 -0.074,-0.378 -0.114,-0.518l-0,-0.04l2.301,0l0,0.04c-0.053,0.166 -0.094,0.377 -0.124,0.633c-0.03,0.256 -0.062,0.589 -0.095,1.001c0.272,-0.226 0.566,-0.451 0.882,-0.677c0.315,-0.226 0.642,-0.427 0.981,-0.603c0.339,-0.176 0.684,-0.319 1.036,-0.428c0.352,-0.11 0.698,-0.165 1.037,-0.165c0.518,0 0.958,0.09 1.32,0.269c0.362,0.179 0.657,0.415 0.887,0.708c0.229,0.292 0.395,0.626 0.498,1.001c0.103,0.375 0.154,0.755 0.154,1.141l0,3.387c0,0.565 0.007,1.058 0.02,1.48c0.013,0.422 0.033,0.785 0.06,1.091c0.026,0.305 0.056,0.561 0.09,0.767c0.033,0.206 0.069,0.379 0.109,0.518l0,0.04l-2.301,0l-0,-0.04c0.039,-0.139 0.078,-0.312 0.114,-0.518c0.037,-0.206 0.067,-0.462 0.09,-0.767c0.023,-0.306 0.043,-0.669 0.06,-1.091c0.016,-0.422 0.025,-0.915 0.025,-1.48l-0,-2.819Z" style="fill:#fff;fill-rule:nonzero;"/><path d="M82.263,12.515c0.272,0 0.544,0.023 0.817,0.07c0.272,0.046 0.538,0.113 0.797,0.199c0.259,0.086 0.505,0.193 0.737,0.319c0.233,0.126 0.442,0.269 0.628,0.428l-0,-1.634c-0,-0.564 -0.007,-1.057 -0.02,-1.479c-0.013,-0.422 -0.033,-0.786 -0.06,-1.091c-0.027,-0.306 -0.056,-0.562 -0.09,-0.767c-0.033,-0.206 -0.069,-0.379 -0.109,-0.519l-0,-0.039l2.301,-0l0,0.039c-0.04,0.14 -0.078,0.313 -0.114,0.519c-0.037,0.205 -0.067,0.461 -0.09,0.767c-0.023,0.305 -0.043,0.669 -0.06,1.091c-0.016,0.422 -0.025,0.915 -0.025,1.479l0,7.104c0,0.565 0.009,1.058 0.025,1.48c0.017,0.422 0.037,0.785 0.06,1.091c0.023,0.305 0.053,0.561 0.09,0.767c0.036,0.206 0.074,0.379 0.114,0.518l0,0.04l-2.202,0l0,-0.04c0.02,-0.053 0.037,-0.131 0.05,-0.234c0.013,-0.103 0.03,-0.231 0.05,-0.383c-0.339,0.212 -0.764,0.405 -1.275,0.577c-0.512,0.173 -1.106,0.259 -1.784,0.259c-0.79,0 -1.508,-0.122 -2.152,-0.368c-0.644,-0.246 -1.194,-0.598 -1.649,-1.056c-0.455,-0.459 -0.805,-1.015 -1.051,-1.669c-0.246,-0.655 -0.369,-1.39 -0.369,-2.207c0,-0.751 0.133,-1.447 0.399,-2.088c0.266,-0.641 0.638,-1.197 1.116,-1.668c0.478,-0.472 1.046,-0.841 1.704,-1.106c0.657,-0.266 1.378,-0.399 2.162,-0.399Zm2.979,2.77c-0.266,-0.698 -0.646,-1.212 -1.141,-1.544c-0.495,-0.333 -1.051,-0.499 -1.669,-0.499c-0.518,0 -0.996,0.092 -1.435,0.274c-0.438,0.183 -0.813,0.447 -1.126,0.792c-0.312,0.346 -0.556,0.769 -0.732,1.271c-0.176,0.501 -0.264,1.071 -0.264,1.709c0,0.717 0.08,1.385 0.239,2.002c0.16,0.618 0.394,1.154 0.703,1.609c0.308,0.455 0.692,0.811 1.15,1.067c0.459,0.255 0.987,0.383 1.585,0.383c0.312,0 0.604,-0.036 0.876,-0.109c0.273,-0.074 0.522,-0.167 0.748,-0.279c0.225,-0.113 0.425,-0.238 0.597,-0.374c0.173,-0.136 0.316,-0.271 0.429,-0.404c0.013,-0.285 0.023,-0.611 0.03,-0.976c0.006,-0.365 0.01,-0.767 0.01,-1.206l-0,-3.716Z" style="fill:#fff;fill-rule:nonzero;"/><path d="M93.651,22.309c0.199,0 0.397,-0.036 0.593,-0.109c0.196,-0.073 0.385,-0.173 0.568,-0.299c0.182,-0.126 0.358,-0.271 0.528,-0.434c0.169,-0.162 0.327,-0.333 0.473,-0.513l0.1,0.05l-0.648,1.604c-0.08,0.04 -0.178,0.088 -0.294,0.145c-0.116,0.056 -0.256,0.109 -0.418,0.159c-0.163,0.05 -0.354,0.093 -0.573,0.13c-0.219,0.036 -0.478,0.054 -0.777,0.054c-0.89,0 -1.583,-0.24 -2.078,-0.722c-0.495,-0.482 -0.742,-1.234 -0.742,-2.257l-0,-6.645l-1.674,0.059l0,-0.876c0.206,0.013 0.452,0.023 0.737,0.029c0.286,0.007 0.598,0.01 0.937,0.01c-0.007,-0.471 -0.018,-0.888 -0.035,-1.25c-0.017,-0.362 -0.036,-0.678 -0.06,-0.947c-0.023,-0.269 -0.051,-0.496 -0.084,-0.682c-0.034,-0.186 -0.067,-0.342 -0.1,-0.468l-0,-0.04l2.302,-0l-0,0.04c-0.04,0.126 -0.077,0.282 -0.11,0.468c-0.033,0.186 -0.061,0.412 -0.085,0.677c-0.023,0.266 -0.043,0.58 -0.06,0.942c-0.016,0.362 -0.028,0.782 -0.034,1.26c0.418,-0.006 0.828,-0.015 1.23,-0.025c0.402,-0.009 0.767,-0.023 1.096,-0.039c0.329,-0.017 0.608,-0.034 0.837,-0.05c0.229,-0.017 0.38,-0.032 0.453,-0.045l-0.179,1.016c-0.339,-0.006 -0.694,-0.016 -1.066,-0.03c-0.319,-0.013 -0.684,-0.023 -1.096,-0.03c-0.412,-0.006 -0.837,-0.013 -1.275,-0.019l-0,6.854c-0,0.412 0.044,0.746 0.134,1.002c0.09,0.256 0.206,0.456 0.349,0.603c0.143,0.146 0.305,0.245 0.488,0.299c0.183,0.053 0.37,0.079 0.563,0.079Z" style="fill:#fff;fill-rule:nonzero;"/><path d="M102.339,23.076c-0.737,0 -1.428,-0.116 -2.072,-0.348c-0.645,-0.233 -1.206,-0.573 -1.684,-1.022c-0.478,-0.448 -0.855,-1.003 -1.131,-1.663c-0.276,-0.661 -0.413,-1.417 -0.413,-2.267c-0,-0.751 0.126,-1.447 0.378,-2.088c0.253,-0.641 0.601,-1.197 1.046,-1.668c0.445,-0.472 0.965,-0.841 1.56,-1.106c0.594,-0.266 1.237,-0.399 1.928,-0.399c0.684,0 1.318,0.118 1.903,0.354c0.584,0.236 1.091,0.578 1.519,1.026c0.429,0.448 0.767,1.003 1.016,1.664c0.25,0.661 0.384,1.413 0.404,2.257c-0.751,-0.014 -1.501,-0.024 -2.252,-0.03c-0.75,-0.007 -1.531,-0.01 -2.341,-0.01c-0.578,-0 -1.141,0.003 -1.689,0.01c-0.548,0.006 -1.041,0.016 -1.48,0.03c0.04,0.69 0.148,1.315 0.324,1.873c0.176,0.558 0.419,1.034 0.727,1.43c0.309,0.395 0.685,0.699 1.126,0.911c0.442,0.213 0.942,0.319 1.5,0.319c0.385,0 0.749,-0.045 1.091,-0.134c0.342,-0.09 0.653,-0.215 0.931,-0.374c0.279,-0.159 0.529,-0.347 0.748,-0.563c0.219,-0.216 0.405,-0.45 0.558,-0.702l0.119,0.059l-0.737,1.774c-0.359,0.186 -0.787,0.344 -1.285,0.473c-0.499,0.13 -1.096,0.194 -1.794,0.194Zm-1.325,-6.077c0.664,-0 1.33,-0.002 1.998,-0.005c0.667,-0.004 1.273,-0.015 1.818,-0.035c-0.06,-0.578 -0.173,-1.096 -0.339,-1.555c-0.166,-0.458 -0.378,-0.846 -0.637,-1.165c-0.259,-0.319 -0.565,-0.565 -0.917,-0.738c-0.352,-0.172 -0.741,-0.259 -1.166,-0.259c-0.385,0 -0.739,0.085 -1.061,0.254c-0.322,0.17 -0.603,0.414 -0.842,0.733c-0.239,0.319 -0.431,0.709 -0.578,1.171c-0.146,0.461 -0.232,0.988 -0.259,1.579c0.299,0.013 0.615,0.02 0.947,0.02l1.036,-0Z" style="fill:#fff;fill-rule:nonzero;"/><path d="M115.581,16.182c-0,-0.439 -0.045,-0.817 -0.135,-1.136c-0.089,-0.319 -0.219,-0.583 -0.388,-0.792c-0.17,-0.21 -0.374,-0.366 -0.613,-0.469c-0.239,-0.103 -0.505,-0.154 -0.797,-0.154c-0.199,-0 -0.422,0.04 -0.668,0.12c-0.245,0.079 -0.5,0.187 -0.762,0.323c-0.262,0.137 -0.525,0.294 -0.787,0.474c-0.262,0.179 -0.51,0.372 -0.742,0.578c-0.014,0.212 -0.02,0.44 -0.02,0.682l-0,3.193c-0,0.565 0.006,1.058 0.02,1.48c0.013,0.422 0.033,0.785 0.059,1.091c0.027,0.305 0.057,0.561 0.09,0.767c0.033,0.206 0.07,0.379 0.11,0.518l-0,0.04l-2.302,0l0,-0.04c0.04,-0.139 0.078,-0.312 0.115,-0.518c0.036,-0.206 0.066,-0.462 0.089,-0.767c0.024,-0.306 0.044,-0.669 0.06,-1.091c0.017,-0.422 0.025,-0.915 0.025,-1.48l0,-2.411c0,-0.564 -0.008,-1.058 -0.025,-1.479c-0.016,-0.422 -0.036,-0.786 -0.06,-1.091c-0.023,-0.306 -0.053,-0.562 -0.089,-0.768c-0.037,-0.206 -0.075,-0.378 -0.115,-0.518l0,-0.04l2.302,0l-0,0.04c-0.053,0.153 -0.095,0.347 -0.125,0.583c-0.03,0.236 -0.061,0.533 -0.094,0.892c0.265,-0.213 0.551,-0.422 0.856,-0.628c0.306,-0.206 0.62,-0.388 0.942,-0.548c0.322,-0.159 0.646,-0.289 0.971,-0.388c0.326,-0.1 0.648,-0.15 0.967,-0.15c0.379,0 0.714,0.05 1.006,0.15c0.292,0.099 0.548,0.235 0.767,0.408c0.22,0.173 0.404,0.375 0.553,0.608c0.15,0.232 0.264,0.481 0.344,0.747c0.272,-0.232 0.57,-0.463 0.892,-0.692c0.322,-0.23 0.654,-0.434 0.996,-0.613c0.342,-0.179 0.691,-0.326 1.046,-0.438c0.356,-0.113 0.703,-0.17 1.042,-0.17c0.518,0 0.958,0.09 1.32,0.269c0.362,0.179 0.657,0.415 0.887,0.708c0.229,0.292 0.395,0.626 0.498,1.001c0.103,0.375 0.154,0.755 0.154,1.141l0,3.387c0,0.565 0.007,1.058 0.02,1.48c0.013,0.422 0.033,0.785 0.06,1.091c0.026,0.305 0.058,0.561 0.095,0.767c0.036,0.206 0.074,0.379 0.114,0.518l0,0.04l-2.311,0l-0,-0.04c0.039,-0.139 0.078,-0.312 0.114,-0.518c0.037,-0.206 0.068,-0.462 0.095,-0.767c0.026,-0.306 0.046,-0.669 0.06,-1.091c0.013,-0.422 0.019,-0.915 0.019,-1.48l0,-2.819c0,-0.877 -0.176,-1.521 -0.528,-1.933c-0.352,-0.412 -0.823,-0.618 -1.414,-0.618c-0.206,-0 -0.434,0.04 -0.683,0.12c-0.249,0.079 -0.506,0.189 -0.772,0.328c-0.266,0.14 -0.531,0.301 -0.797,0.484c-0.266,0.182 -0.515,0.377 -0.747,0.582c0.013,0.08 0.019,0.16 0.019,0.24l0,3.616c0,0.565 0.009,1.058 0.025,1.48c0.017,0.422 0.037,0.785 0.06,1.091c0.023,0.305 0.053,0.561 0.09,0.767c0.036,0.206 0.075,0.379 0.114,0.518l0,0.04l-2.301,0l-0,-0.04c0.04,-0.139 0.076,-0.312 0.109,-0.518c0.034,-0.206 0.064,-0.462 0.09,-0.767c0.027,-0.306 0.047,-0.669 0.06,-1.091c0.013,-0.422 0.02,-0.915 0.02,-1.48l-0,-2.819Z" style="fill:#fff;fill-rule:nonzero;"/><path d="M126.969,16.391c0,-0.565 -0.008,-1.058 -0.025,-1.48c-0.016,-0.422 -0.036,-0.785 -0.059,-1.091c-0.024,-0.305 -0.054,-0.561 -0.09,-0.767c-0.037,-0.206 -0.075,-0.379 -0.115,-0.518l0,-0.04l2.302,0l-0,0.04c-0.033,0.1 -0.063,0.213 -0.09,0.339c-0.026,0.126 -0.05,0.269 -0.07,0.428c0.392,-0.226 0.826,-0.417 1.301,-0.573c0.475,-0.156 1.001,-0.234 1.579,-0.234c0.737,0 1.41,0.125 2.018,0.374c0.607,0.249 1.129,0.606 1.564,1.071c0.435,0.465 0.772,1.026 1.011,1.684c0.239,0.657 0.359,1.395 0.359,2.212c-0,0.684 -0.118,1.341 -0.354,1.972c-0.236,0.631 -0.581,1.189 -1.036,1.674c-0.455,0.485 -1.015,0.872 -1.679,1.161c-0.664,0.289 -1.428,0.433 -2.292,0.433c-0.518,0 -0.989,-0.039 -1.414,-0.119c-0.426,-0.08 -0.817,-0.183 -1.176,-0.309l-0,1.455c-0,0.564 0.007,1.057 0.02,1.479c0.013,0.422 0.033,0.786 0.06,1.091c0.026,0.306 0.056,0.562 0.089,0.767c0.033,0.206 0.07,0.379 0.11,0.519l-0,0.039l-2.302,0l0,-0.039c0.04,-0.14 0.078,-0.313 0.115,-0.519c0.036,-0.205 0.066,-0.461 0.09,-0.767c0.023,-0.305 0.043,-0.669 0.059,-1.091c0.017,-0.422 0.025,-0.915 0.025,-1.479l0,-7.712Zm4.384,-3.149c-0.226,0 -0.456,0.029 -0.692,0.085c-0.236,0.057 -0.469,0.136 -0.698,0.239c-0.229,0.103 -0.448,0.233 -0.657,0.389c-0.21,0.156 -0.397,0.334 -0.563,0.533c-0.014,0.252 -0.024,0.538 -0.03,0.857c-0.007,0.319 -0.01,0.667 -0.01,1.046l-0,5.221c0.133,0.099 0.282,0.192 0.448,0.279c0.166,0.086 0.354,0.164 0.563,0.234c0.209,0.07 0.445,0.124 0.708,0.164c0.262,0.04 0.553,0.06 0.871,0.06c0.518,0 0.987,-0.093 1.405,-0.279c0.419,-0.186 0.772,-0.455 1.061,-0.807c0.289,-0.352 0.512,-0.78 0.668,-1.285c0.156,-0.505 0.234,-1.076 0.234,-1.714c0,-0.717 -0.06,-1.383 -0.179,-1.998c-0.12,-0.614 -0.311,-1.145 -0.573,-1.594c-0.263,-0.448 -0.603,-0.799 -1.021,-1.051c-0.419,-0.252 -0.93,-0.379 -1.535,-0.379Z" style="fill:#fff;fill-rule:nonzero;"/></g><g><path d="M17.954,35.917c-3.565,0 -7.13,-1.842 -10.133,-4.983c-4.221,-4.415 -7.352,-11.411 -7.793,-18.837c-0.158,-2.65 0.363,-4.8 1.47,-6.525c1.282,-1.999 3.376,-3.46 6.329,-4.371c2.644,-0.816 6.025,-1.201 10.127,-1.201c4.102,0 7.483,0.385 10.127,1.201c2.953,0.911 5.047,2.372 6.329,4.371c1.107,1.725 1.628,3.875 1.471,6.525c-0.442,7.426 -3.572,14.422 -7.794,18.837c-3.003,3.141 -6.568,4.983 -10.133,4.983Zm0,-1.659c7.885,-0 15.576,-10.577 16.27,-22.259c0.444,-7.477 -5.117,-10.339 -16.27,-10.339c-11.153,-0 -16.714,2.862 -16.27,10.339c0.694,11.682 8.385,22.259 16.27,22.259Z" style="fill:#fff;"/><path d="M6.897,23.937c0.085,-0.123 0.18,-0.305 0.288,-0.546c0.107,-0.242 0.191,-0.546 0.252,-0.914c0.085,-0.536 0.179,-1.14 0.282,-1.81c0.103,-0.671 0.211,-1.374 0.322,-2.109c0.111,-0.736 0.222,-1.489 0.333,-2.259c0.111,-0.77 0.219,-1.528 0.322,-2.275c0.103,-0.747 0.203,-1.468 0.299,-2.161c0.096,-0.693 0.182,-1.328 0.258,-1.902c0.077,-0.575 0.14,-1.075 0.19,-1.5c0.05,-0.425 0.086,-0.745 0.109,-0.96l1.46,0l7.229,13.516l7.172,-13.516l1.092,0l1.885,13.654c0.053,0.429 0.111,0.797 0.172,1.104c0.061,0.306 0.123,0.568 0.184,0.787c0.061,0.218 0.121,0.398 0.178,0.54c0.057,0.142 0.113,0.259 0.167,0.351l-0,0.046l-2.897,-0l0,-0.046c0.039,-0.085 0.075,-0.223 0.11,-0.414c0.034,-0.192 0.051,-0.422 0.051,-0.69c0,-0.099 -0.004,-0.201 -0.011,-0.304c-0.008,-0.104 -0.019,-0.217 -0.035,-0.339l-1.459,-11.011l-6.781,12.758l-0.793,-0.092l-6.827,-12.781c-0.269,1.816 -0.502,3.494 -0.701,5.034c-0.085,0.659 -0.169,1.316 -0.253,1.971c-0.085,0.655 -0.159,1.266 -0.224,1.833c-0.066,0.567 -0.117,1.067 -0.156,1.5c-0.038,0.433 -0.057,0.753 -0.057,0.96c-0,0.26 0.008,0.49 0.023,0.69c0.015,0.199 0.031,0.367 0.046,0.505c0.023,0.161 0.046,0.303 0.069,0.426l-2.299,-0l0,-0.046Z" style="fill:#fff;fill-rule:nonzero;"/></g></svg>