<svg id="Lager_2" data-name="Lager 2" xmlns="http://www.w3.org/2000/svg" viewBox="0 0 200 200"><defs><style>.cls-1{fill:#fff;}</style></defs><title>ai</title><path class="cls-1" d="M81.88,67.53h-.47A32.31,32.31,0,0,1,80,74.85L70.8,103.33H92.31l-9-28.25A36.08,36.08,0,0,1,81.88,67.53Z"/><path class="cls-1" d="M160,0H40A40.12,40.12,0,0,0,0,40V160a40.12,40.12,0,0,0,40,40H160a40.12,40.12,0,0,0,40-40V40A40.12,40.12,0,0,0,160,0ZM102.62,136.55l-6-18.69H66.76l-5.92,18.69H40.34l30.58-84H93.36l29.89,84Zm47.81,0H131.92v-60h18.51ZM149,64.36a11,11,0,0,1-7.71,2.7,10.79,10.79,0,0,1-7.67-2.79,9,9,0,0,1-3-6.82,8.66,8.66,0,0,1,3-6.8,12.52,12.52,0,0,1,15.38,0,8.7,8.7,0,0,1,3,6.8A8.94,8.94,0,0,1,149,64.36Z"/></svg>