<?xml version="1.0" encoding="utf-8"?>
<!-- Generator: Adobe Illustrator 22.0.0, SVG Export Plug-In . SVG Version: 6.00 Build 0)  -->
<svg version="1.1" id="Lager_2_1_" xmlns="http://www.w3.org/2000/svg" xmlns:xlink="http://www.w3.org/1999/xlink" x="0px" y="0px"
	 viewBox="0 0 200.4 171.6" style="enable-background:new 0 0 200.4 171.6;" xml:space="preserve">
<style type="text/css">
	.st0{fill:#FFFFFF;enable-background:new    ;}
</style>
<title>audacity</title>
<g id="audacity">
	<g id="Lager_3">
		<path class="st0" d="M35.8,164c0-13.8-0.2-55.4-0.2-103.8c11-72,129.5-55,128.2,0c0,12.2,0.1,71,0.1,103
			c26.3,9.3,60-67.3,12.7-96.3c1.7-94.7-161.3-83.7-153.3,0.3C-14.4,87.2-3.5,161.7,35.8,164z"/>
		<path class="st0" d="M159.4,65.3c0,2.5,0,98.3,0,98.3c-3.2,0.1-6.2-1.6-7.8-4.5c-0.1-2.5,0-90.9,0-90.9S155.7,64.7,159.4,65.3z"/>
		<path class="st0" d="M40.6,65.2c2.9,0,5.6,1.1,7.8,3.1V159c-1.6,2.8-4.5,4.6-7.8,4.6V65.2z"/>
		<polygon class="st0" points="151.5,137 148.3,131.9 146.7,145.1 141.8,130.5 134.2,165.1 132.7,128.6 128.3,136.2 127.1,166.7 
			118.8,128.6 110.8,164.9 107.7,130.4 98.1,171.6 95.1,131 92.1,138.2 92.1,166.4 81.3,124.5 76.8,160.6 71.6,132.1 68.6,130 
			69.3,162 64.3,137.2 60.8,130.5 61.5,162.5 56.5,135.9 54.8,155.4 49.8,137.7 48.3,136.5 48.3,114.5 52.6,128.6 52.5,108.4 
			58,116.4 60.3,88.2 64.1,123.6 68.3,114.4 69.9,75.7 72.6,112.4 76.2,119 80.8,63.5 90.4,126.9 99.9,55.4 101.7,121.1 
			104.4,112.6 110.4,75.7 116.9,117.1 123.1,78.6 124.2,65.3 129.7,113.5 131.2,117.5 138.9,88.2 139.9,110.2 143.6,116 146.3,96 
			148.2,121.4 151.5,114.5 		"/>
	</g>
</g>
</svg>
