<?xml version="1.0" encoding="utf-8"?>
<!-- Generator: Adobe Illustrator 22.0.0, SVG Export Plug-In . SVG Version: 6.00 Build 0)  -->
<svg version="1.1" id="Lager_2_1_" xmlns="http://www.w3.org/2000/svg" xmlns:xlink="http://www.w3.org/1999/xlink" x="0px" y="0px"
	 viewBox="0 0 200 200" style="enable-background:new 0 0 200 200;" xml:space="preserve">
<style type="text/css">
	.st0{display:none;}
	.st1{display:inline;fill:#FFFFFF;}
	.st2{display:inline;}
	.st3{opacity:0.5;fill:#FFFFFF;enable-background:new    ;}
	.st4{opacity:0.43;enable-background:new    ;}
	.st5{fill:none;}
	.st6{opacity:0.5;enable-background:new    ;}
	.st7{fill:#FFFFFF;}
</style>
<g id="ai" class="st0">
	<path class="st1" d="M81.9,67.5h-0.5c-0.2,2.5-0.7,4.9-1.5,7.3l-9.1,28.5h21.5l-9-28.2C82.6,73,82.2,70.5,81.9,67.5z"/>
	<path class="st1" d="M160,0H40C18,0,0,18,0,40v120c0,22,18,40,40,40h120c22,0,40-18,40-40V40C200,18,182,0,160,0z M102.6,136.5
		l-6-18.7H66.8l-5.9,18.7H40.3l30.6-84h22.4l29.9,84H102.6z M150.4,136.5h-18.5v-60h18.5V136.5z M149,64.4c-2,1.8-4.5,2.7-7.7,2.7
		c-3.1,0-5.7-0.9-7.7-2.8s-3-4.1-3-6.8c0-2.8,1-5,3-6.8s4.5-2.6,7.7-2.6s5.7,0.9,7.7,2.6c2,1.8,3,4,3,6.8
		C152,60.3,151,62.6,149,64.4z"/>
</g>
<g id="audacity" class="st0">
	<g id="Lager_3" class="st2">
		<path class="st3" d="M35.8,175.8c0-13.8-0.2-55.4-0.2-103.8c11-72,129.5-55,128.2,0c0,12.2,0.1,71,0.1,103
			c26.3,9.3,60-67.3,12.7-96.3C178.3-16,15.3-5,23.3,79C-14.3,99-3.5,173.5,35.8,175.8z"/>
		<path class="st3" d="M159.4,77.1c0,2.5,0,98.3,0,98.3s-5.1,0.4-7.8-4.5c-0.1-2.5,0-90.9,0-90.9S155.8,76.4,159.4,77.1z"/>
		<path class="st3" d="M40.7,77c0,0,4.5-0.2,7.8,3.1c0,5.2,0,90.7,0,90.7s-2.1,4.4-7.8,4.6C40.7,173.2,40.7,77,40.7,77z"/>
		<polygon class="st3" points="151.6,148.8 148.4,143.6 146.8,156.9 141.9,142.3 134.3,176.9 132.8,140.4 128.4,148 127.1,178.5 
			118.9,140.4 110.9,176.6 107.8,142.1 98.1,183.4 95.1,142.8 92.1,150 92.1,178.1 81.4,136.3 76.9,172.4 71.6,143.9 68.6,141.8 
			69.4,173.8 64.4,149 60.9,142.3 61.5,174.3 56.5,147.6 54.9,167.1 49.9,149.5 48.4,148.3 48.4,126.2 52.6,140.4 52.5,120.1 
			58,128.1 60.4,100 64.1,135.4 68.4,126.2 70,87.5 72.6,124.1 76.3,130.8 80.9,75.3 90.5,138.6 100,67.1 101.8,132.9 104.5,124.4 
			110.5,87.5 117,128.9 123.1,90.4 124.3,77 129.8,125.3 131.3,129.3 139,100 140,122 143.6,127.8 146.4,107.8 148.3,133.1 
			151.6,126.2 		"/>
	</g>
</g>
<g id="c_x2B__x2B_">
	<g class="st0">
		<path class="st3" d="M100,70.7c10.9,0,20.4,5.9,25.4,14.7l26-14.9C141.2,52.7,122,40.7,100,40.7c-32.8,0-59.3,26.6-59.3,59.3
			s26.6,59.3,59.3,59.3c21.9,0,41.1-11.9,51.3-29.6l-26-15c-5.1,8.7-14.5,14.6-25.4,14.6c-16.2,0-29.3-13.1-29.3-29.3
			S83.8,70.7,100,70.7z"/>
		<path class="st4" d="M100,70.7c10.9,0,20.4,5.9,25.4,14.7l26-14.9C141.2,52.7,122,40.7,100,40.7c-32.8,0-59.3,26.6-59.3,59.3
			s26.6,59.3,59.3,59.3c21.9,0,41.1-11.9,51.3-29.6l-26-15c-5.1,8.7-14.5,14.6-25.4,14.6c-16.2,0-29.3-13.1-29.3-29.3
			S83.8,70.7,100,70.7z"/>
	</g>
	<g class="st0">
		<path class="st5" d="M100,129.3c-16.2,0-29.3-13.1-29.3-29.3S83.8,70.7,100,70.7c10.9,0,20.4,5.9,25.4,14.7l26-14.9
			C141.2,52.7,122,40.7,100,40.7c-32.8,0-59.3,26.6-59.3,59.3s26.6,59.3,59.3,59.3c21.9,0,41.1-11.9,51.3-29.6l-26-15
			C120.3,123.4,110.8,129.3,100,129.3z"/>
		<rect x="145.8" y="103.6" class="st3" width="6.9" height="6.9"/>
		<rect x="145.8" y="103.6" class="st6" width="6.9" height="6.9"/>
		<rect x="145.8" y="90.1" class="st3" width="6.9" height="6.4"/>
		<rect x="145.8" y="90.1" class="st6" width="6.9" height="6.4"/>
		<rect x="139.4" y="96.4" class="st3" width="6.4" height="7.1"/>
		<rect x="139.4" y="96.4" class="st6" width="6.4" height="7.1"/>
		<rect x="152.7" y="96.4" class="st3" width="6.5" height="7.1"/>
		<rect x="152.7" y="96.4" class="st6" width="6.5" height="7.1"/>
		<rect x="145.8" y="96.4" class="st3" width="6.9" height="7.1"/>
		<rect x="145.8" y="96.4" class="st6" width="6.9" height="7.1"/>
		<rect x="145.8" y="96.4" class="st6" width="6.9" height="7.1"/>
		<rect x="170.4" y="90.1" class="st3" width="6.9" height="6.4"/>
		<rect x="170.4" y="90.1" class="st6" width="6.9" height="6.4"/>
		<rect x="170.4" y="103.6" class="st3" width="6.9" height="6.9"/>
		<rect x="170.4" y="103.6" class="st6" width="6.9" height="6.9"/>
		<rect x="164" y="96.4" class="st3" width="6.4" height="7.1"/>
		<rect x="164" y="96.4" class="st6" width="6.4" height="7.1"/>
		<rect x="177.3" y="96.4" class="st3" width="6.5" height="7.1"/>
		<rect x="177.3" y="96.4" class="st6" width="6.5" height="7.1"/>
		<rect x="170.4" y="96.4" class="st3" width="6.9" height="7.1"/>
		<rect x="170.4" y="96.4" class="st6" width="6.9" height="7.1"/>
		<rect x="170.4" y="96.4" class="st6" width="6.9" height="7.1"/>
	</g>
	<path id="final" class="st7" d="M181.4,47L105.2,3C102,1.1,98,1.1,94.8,3L18.6,47c-3.2,1.9-5.2,5.3-5.2,9v88c0,3.7,2,7.1,5.2,9
		l76.2,44c3.2,1.9,7.2,1.9,10.4,0l76.2-44c3.2-1.9,5.2-5.3,5.2-9V56C186.6,52.3,184.6,48.9,181.4,47z M100,159.3
		c-32.8,0-59.3-26.6-59.3-59.3S67.2,40.7,100,40.7c22,0,41.2,12,51.4,29.8l-26,14.9c-5.1-8.8-14.6-14.7-25.4-14.7
		c-16.2,0-29.3,13.1-29.3,29.3s13.1,29.3,29.3,29.3c10.8,0,20.3-5.9,25.4-14.6l26,15C141.1,147.4,121.9,159.3,100,159.3z
		 M159.2,103.6h-6.5v6.9h-6.9v-6.9h-6.4v-7.1h6.4v-6.4h6.9v6.4h6.5V103.6z M183.8,103.6h-6.5v6.9h-6.9v-6.9H164v-7.1h6.4v-6.4h6.9
		v6.4h6.5L183.8,103.6L183.8,103.6z"/>
</g>
</svg>
