<?xml version="1.0" encoding="utf-8"?>
<!-- Generator: Adobe Illustrator 22.0.0, SVG Export Plug-In . SVG Version: 6.00 Build 0)  -->
<svg version="1.1" id="Lager_2_1_" xmlns="http://www.w3.org/2000/svg" xmlns:xlink="http://www.w3.org/1999/xlink" x="0px" y="0px"
	 viewBox="0 0 200 200" style="enable-background:new 0 0 200 200;" xml:space="preserve">
<style type="text/css">
	.st0{fill:#FFFFFF;enable-background:new    ;}
</style>
<title>camtasia</title>
<path class="st0" d="M100,0C44.8,0,0,44.8,0,100s44.8,100,100,100s100-44.8,100-100S155.2,0,100,0z M77.9,129.9h46.8
	c0.6,0,1.3,0.3,1.7,0.7l15.7,16.4c0.9,0.9,0.9,2.4-0.1,3.3c-0.4,0.4-1,0.7-1.7,0.7H77.6c-0.6,0-1.3-0.3-1.7-0.7L57,130.6
	c-0.4-0.4-0.7-1-0.7-1.6V69.5c0-0.6,0.2-1.2,0.7-1.7l18.9-19.2c0.4-0.4,1-0.7,1.7-0.7h63.5c1,0,1.8,0.8,1.9,1.8c0,0.5-0.2,1-0.5,1.3
	l-16.3,17c-0.4,0.5-1.1,0.7-1.7,0.7H77.9c-0.3,0-0.6,0.3-0.6,0.6v60C77.4,129.6,77.6,129.9,77.9,129.9
	C77.9,129.9,77.9,129.9,77.9,129.9z"/>
</svg>
