<?xml version="1.0" encoding="utf-8"?>
<!-- Generator: Adobe Illustrator 22.0.0, SVG Export Plug-In . SVG Version: 6.00 Build 0)  -->
<svg version="1.1" id="Lager_2_1_" xmlns="http://www.w3.org/2000/svg" xmlns:xlink="http://www.w3.org/1999/xlink" x="0px" y="0px"
	 viewBox="0 0 141.8 200" style="enable-background:new 0 0 141.8 200;" xml:space="preserve">
<style type="text/css">
	.st0{fill:#FFFFFF;enable-background:new    ;}
</style>
<title>css</title>
<g id="CSS">
	<g id="final">
		<polygon class="st0" points="54.6,9 54.6,0 33.4,0 33.4,26.8 54.6,27.3 54.6,18 42.2,17.8 42.2,9 		"/>
		<polygon class="st0" points="59,27.3 59,19.2 71.6,19.2 71.6,17.4 59,17.4 59,0 80.6,0 80.6,7.8 68.1,7.8 68.1,9.3 80.6,9.3 
			80.6,27.3 		"/>
		<polygon class="st0" points="84.9,27.3 84.9,19.2 97.5,19.2 97.5,17.4 84.9,17.4 84.9,0 106.4,0 106.4,7.8 93.9,7.8 93.9,9.3 
			106.4,9.3 106.4,27.3 		"/>
		<path class="st0" d="M0,39.4l12.8,144.4L70.9,200l57.9-16.3l13-144.4L0,39.4z M107.1,159.3l-36.3,10.2l-36.5-10.2l-2.5-27.9h17.8
			l1.3,14.1l19.7,5.3l19.8-5.3l2.1-23.1H31.1l-1.6-17.7h64.6l1.7-18.2H28l-1.8-17.8h88.9L107.1,159.3z"/>
	</g>
</g>
</svg>
