<?xml version="1.0" encoding="utf-8"?>
<!-- Generator: Adobe Illustrator 22.0.0, SVG Export Plug-In . SVG Version: 6.00 Build 0)  -->
<svg version="1.1" id="Grupp_1" xmlns="http://www.w3.org/2000/svg" xmlns:xlink="http://www.w3.org/1999/xlink" x="0px" y="0px"
	 viewBox="0 0 200 200" style="enable-background:new 0 0 200 200;" xml:space="preserve">
<style type="text/css">
	.st0{display:none;opacity:0.2;}
	.st1{fill:#FFFFFF;}
</style>
<rect x="-40" y="-53" class="st0" width="297" height="283"/>
<circle class="st1" cx="133.3" cy="100.3" r="33.3"/>
<path class="st1" d="M166.2,33.6c0,18.4-14.8,33.4-33.1,33.4c-9.1,0-33.1,0-33.1,0s0-24.2,0-33.4c0-8.1,0-33.4,0-33.4s22.8,0,33.1,0
	C151.4,0.2,166.2,15.1,166.2,33.6z"/>
<path class="st1" d="M100,33.6c0,10.2,0,33.4,0,33.4s-25.2,0-33.4,0c-18.4,0-33.4-15-33.4-33.4s15-33.4,33.4-33.4
	c7.3,0,33.4,0,33.4,0S100,22.4,100,33.6z"/>
<path class="st1" d="M100,100.4c0,10.2,0,33.4,0,33.4s-25.2,0-33.4,0c-18.4,0-33.4-15-33.4-33.4S48.1,67,66.6,67
	c7.3,0,33.4,0,33.4,0S100,89.2,100,100.4z"/>
<path class="st1" d="M100,166.8c0,18.2-14.8,33-33,33s-33-14.8-33-33s14.8-33,33-33c9.9,0,33,0,33,0S100,158.5,100,166.8z"/>
</svg>
