<?xml version="1.0" encoding="utf-8"?>
<!-- Generator: Adobe Illustrator 22.0.0, SVG Export Plug-In . SVG Version: 6.00 Build 0)  -->
<svg version="1.1" id="Lager_2_1_" xmlns="http://www.w3.org/2000/svg" xmlns:xlink="http://www.w3.org/1999/xlink" x="0px" y="0px"
	 viewBox="0 0 141.8 200" style="enable-background:new 0 0 141.8 200;" xml:space="preserve">
<style type="text/css">
	.st0{fill:#FFFFFF;}
</style>
<title>html</title>
<g id="HTML">
	<g id="letters">
		<polygon class="st0" points="13.5,0 13.5,26.9 22.4,26.9 22.4,17.9 30.6,17.9 30.6,26.9 39.6,26.9 39.6,0 30.7,0 30.7,9 22.4,9 
			22.5,0 		"/>
		<polygon class="st0" points="43.7,0 43.7,9 51.6,9 51.6,26.9 60.5,26.9 60.5,9 68.3,9 68.3,0 		"/>
		<polygon class="st0" points="72.5,0 72.5,26.9 81.2,26.9 81.2,13.4 87.5,23.3 94,13.4 94,26.9 102.7,26.9 102.7,0 93.4,0 
			87.6,9.5 81.9,0 		"/>
		<polygon class="st0" points="107.5,0 107.5,26.9 128.8,26.9 128.8,18.2 116.2,18.2 116.2,0 		"/>
		<path class="st0" d="M0,39.3L13.1,184l58,16l57.9-16.1l12.8-144.7H0z M113.8,86.7H46.3l1.3,17.8h64.7l-4.8,54.7l-36.3,10.3
			l-36.3-10l-2.5-28.3h18l1.2,14.3l19.5,5.5l19.7-5.2l2.2-23.5l-61.5,0.2L26.6,69h88.8L113.8,86.7z"/>
	</g>
</g>
</svg>
