<svg id="Lager_2" data-name="Lager 2" xmlns="http://www.w3.org/2000/svg" viewBox="0 0 200 200"><defs><style>.cls-1{fill:#fff;}</style></defs><title>js</title><g id="Js"><path id="final" class="cls-1" d="M0,0V200H200V0ZM52.63,167c11.25-6.87,11-6.87,14.75-9.25,7.35,13.49,21.54,13.29,22.5,0V92H108.5v65.5C110,187.72,66.26,194.43,52.63,167Zm120.75,11.63c-15.5,10-45.38,6.5-54.5-13.88L134,156.13c6.3,9.07,13.8,13.58,23.25,10.62,10.63-1.75,10.5-13.12.75-18l-20.25-9.87c-12.76-8.38-16-19.56-11.5-33,9.75-21.13,43.13-20.13,52.25,0L164,115.13c-7.24-16.34-31.51-5.06-15.31,8.75l24.06,11.75C189.13,148.63,187.25,169.25,173.38,178.63Z"/></g></svg>