<svg id="Lager_2" data-name="Lager 2" xmlns="http://www.w3.org/2000/svg" viewBox="0 0 199.91 102"><defs><style>.cls-1{fill:#fff;}</style></defs><title>php</title><g id="Lager_7" data-name="Lager 7"><g id="final"><path id="final-2" data-name="final" class="cls-1" d="M100,49C44.8,49,0,71.83,0,100s44.76,51,100,51,100-22.83,100-51S155.2,49,100,49Zm70.08,51c-3.51,9.9-10.52,16.78-25.12,17h-8.83l-2.2,11.85a2.15,2.15,0,0,1-2.12,1.75l-11.12,0a2.21,2.21,0,0,1-2.16-2.62l2.18-11.38a1.57,1.57,0,0,1-1,.41L108.2,117a2,2,0,0,1-2-2.37l4.53-23.51c.34-2.28.31-3.24-2.65-3.38l-8.63,0-5.38,27.82A1.85,1.85,0,0,1,92.33,117l-11.39.07a2,2,0,0,1-2-2.42l1.82-9.53c-7.44,10.71-14,12.5-31.75,11.93L46.85,128.8a2.19,2.19,0,0,1-2.15,1.8l-11.37,0a1.94,1.94,0,0,1-1.91-2.3L41.5,75.25l24.83-.08c8.87.47,15.41,4,17.75,12.91l4.83-24.82a2.18,2.18,0,0,1,2.14-1.76h10.8a2.36,2.36,0,0,1,2.31,2.84l-2.24,10.91h10.83c8.22.72,13.14,4,14,10.42l1.79-9a1.83,1.83,0,0,1,1.8-1.47h24.83C168.36,77.33,174.05,85,170.08,100Z" transform="translate(-0.04 -49)"/><path class="cls-1" d="M63,87.56H54.75l-3.31,17.25h3.31c9.38.21,12.56-3.06,13.64-11.29C68.79,89.9,67.63,88,63,87.56Z" transform="translate(-0.04 -49)"/><path class="cls-1" d="M150.17,87.56h-8.25l-3.32,17.25h3.32c9.37.21,12.56-3.06,13.63-11.29C156,89.9,154.79,88,150.17,87.56Z" transform="translate(-0.04 -49)"/></g></g></svg>