<svg id="Lager_2" data-name="Lager 2" xmlns="http://www.w3.org/2000/svg" viewBox="0 0 200 200"><defs><style>.cls-1{fill:#fff;}</style></defs><title>ps</title><g id="ps"><g id="final"><path class="cls-1" d="M164.67,0H35.33A35.44,35.44,0,0,0,0,35.33V164.67A35.44,35.44,0,0,0,35.33,200H164.67A35.44,35.44,0,0,0,200,164.67V35.33A35.44,35.44,0,0,0,164.67,0ZM73,112.88l-10-.13v28.63H44.88V51.5l28.37-.62c21.94.92,34,10.89,34.63,31.37C107,101.53,95.79,112.06,73,112.88Zm83,25.87c-10.21,7-33.42,4.34-39.06-.12v-16a.65.65,0,0,1,1-.54c6,3.81,13.28,5.55,21.56,5.51,10.93-.62,10-7.87,0-11.12l-7.63-3.31c-10.63-4.8-15.34-12.07-14.75-21.57,3-19.08,21.77-23.63,43.73-16.84a1.39,1.39,0,0,1,1,1.29L162,90.44a1.12,1.12,0,0,1-1.58,1c-6.51-3.07-13.61-4.79-20.9-3.91-5.8.69-7.51,6.44,0,9.63,6.7,3.34,13.2,5,18.93,9.42C167,113,169.38,130.17,156,138.75Z"/><path class="cls-1" d="M63.08,67.92V96.5H73.25c20.38,1.14,24.08-28.44,0-28.92Z"/></g></g></svg>