<svg id="Lager_2" data-name="Lager 2" xmlns="http://www.w3.org/2000/svg" viewBox="0 0 197.5 176.64"><defs><style>.cls-1{fill:#fff;}</style></defs><title>react</title><path class="cls-1" d="M100,69.75c25.11,0,48.57,3.92,66.05,11,14,5.71,22.7,13.06,22.7,19.2s-8.7,13.49-22.7,19.2c-17.48,7.13-40.94,11-66.05,11s-48.57-3.92-66-11c-14-5.71-22.7-13.06-22.7-19.2S20,86.51,34,80.8c17.48-7.13,40.94-11,66.05-11m0-10c-54.54,0-98.75,18-98.75,40.25S45.46,140.25,100,140.25s98.75-18,98.75-40.25S154.54,59.75,100,59.75Z" transform="translate(-1.25 -11.68)"/><path class="cls-1" d="M139.32,21.68h0a8.35,8.35,0,0,1,4.19,1c5.35,3,7.5,14.2,5.61,29.2-2.36,18.73-10.44,41.09-22.76,63C115.85,133.53,103,150.27,90.2,162c-11.36,10.38-22.11,16.34-29.52,16.34a8.35,8.35,0,0,1-4.19-1c-5.35-3-7.5-14.2-5.61-29.2,2.36-18.73,10.44-41.09,22.76-63C84.15,66.47,97,49.73,109.8,38c11.36-10.38,22.11-16.34,29.52-16.34m0-10c-20.51,0-51.4,27.69-74.4,68.59-26.74,47.53-32.71,94.9-13.34,105.8a18.33,18.33,0,0,0,9.1,2.25c20.51,0,51.4-27.69,74.4-68.59,26.74-47.53,32.71-94.9,13.34-105.8a18.33,18.33,0,0,0-9.1-2.25Z" transform="translate(-1.25 -11.68)"/><path class="cls-1" d="M60,22.12c7.45,0,18.28,5.89,29.71,16.15,12.88,11.56,25.86,28.11,36.54,46.61,12.55,21.74,20.88,44,23.45,62.72,2.06,15,0,26.19-5.28,29.26a8.45,8.45,0,0,1-4.32,1c-7.45,0-18.27-5.89-29.71-16.15-12.88-11.56-25.86-28.11-36.54-46.6C61.25,93.38,52.92,71.1,50.35,52.4c-2.06-15,0-26.19,5.28-29.26a8.45,8.45,0,0,1,4.32-1h0m0-10a18.35,18.35,0,0,0-9.32,2.36C31.37,25.59,37.87,72.89,65.14,120.13c23.37,40.46,54.39,67.75,74.91,67.75a18.41,18.41,0,0,0,9.33-2.36c19.25-11.11,12.75-58.41-14.52-105.64C111.49,39.41,80.47,12.12,60,12.12Z" transform="translate(-1.25 -11.68)"/><circle class="cls-1" cx="98.75" cy="88.32" r="18.33"/></svg>