<?xml version="1.0" encoding="UTF-8" standalone="no"?><!DOCTYPE svg PUBLIC "-//W3C//DTD SVG 1.1//EN" "http://www.w3.org/Graphics/SVG/1.1/DTD/svg11.dtd"><svg width="100%" height="100%" viewBox="0 0 2319 1691" version="1.1" xmlns="http://www.w3.org/2000/svg" xmlnsXlink="http://www.w3.org/1999/xlink" xmlSpace="preserve" xmlnsSerif="http://www.serif.com/" style="fill-rule:evenodd;clip-rule:evenodd;stroke-linejoin:round;stroke-miterlimit:2;"><rect id="Sista" x="0.869" y="0.12" width="2317.6" height="1690.6" style="fill:none;"/><clipPath id="_clip1"><rect x="0.869" y="0.12" width="2317.6" height="1690.6"/></clipPath><g clip-path="url(#_clip1)"><path d="M0.869,1669.87l0,-1648.91c0,-11.506 9.328,-20.834 20.834,-20.834l2275.93,0c11.506,0 20.833,9.328 20.833,20.834l0,1648.91c0,11.505 -9.327,20.833 -20.833,20.833l-2275.93,-0c-11.506,-0 -20.834,-9.328 -20.834,-20.833Zm1853.94,-20.834l421.99,0l-0,-803.622c-0,0 -0,-803.622 -0,-803.622l-421.99,-0l0,1607.24Zm-41.667,-1607.24l-1770.61,-0l-0,782.789l1770.61,-0l0,-782.789Zm-1770.61,824.455l-0,782.789l1770.61,0l0,-782.789l-1770.61,0Z" style="fill:#f0efed;"/><path d="M303.674,702.276l0,-259.583l101.238,-0c22.744,-0 42.151,3.585 58.22,10.754c16.07,7.169 28.431,17.553 37.084,31.15c8.653,13.597 12.979,29.79 12.979,48.579c-0,18.789 -4.326,34.982 -12.979,48.579c-8.653,13.35 -21.014,23.61 -37.084,30.779c-16.069,7.17 -35.476,10.755 -58.22,10.755l-80.842,-0l16.687,-17.059l0,96.046l-37.083,0Zm173.55,0l-66.008,-94.192l39.679,0l66.75,94.192l-40.421,0Zm-136.467,-92.337l-16.687,-18.171l79.729,-0c23.733,-0 41.657,-5.068 53.771,-15.204c12.361,-10.384 18.542,-24.846 18.542,-43.388c-0,-18.542 -6.181,-32.88 -18.542,-43.017c-12.114,-10.136 -30.038,-15.204 -53.771,-15.204l-79.729,0l16.687,-18.541l0,153.525Z" style="fill:#e4e4e0;fill-rule:nonzero;"/><path d="M688.228,702.276l0,-41.533l-1.854,-7.788l0,-70.829c0,-15.08 -4.45,-26.7 -13.35,-34.858c-8.653,-8.406 -21.755,-12.609 -39.308,-12.609c-11.62,0 -22.992,1.978 -34.117,5.934c-11.125,3.708 -20.519,8.776 -28.183,15.204l-14.834,-26.7c10.137,-8.158 22.25,-14.339 36.342,-18.542c14.339,-4.45 29.296,-6.675 44.871,-6.675c26.947,0 47.714,6.552 62.3,19.654c14.586,13.103 21.879,33.128 21.879,60.075l0,118.667l-33.746,0Zm-64.525,2.225c-14.586,0 -27.441,-2.472 -38.566,-7.417c-10.878,-4.944 -19.284,-11.743 -25.217,-20.395c-5.933,-8.9 -8.9,-18.913 -8.9,-30.038c-0,-10.63 2.472,-20.272 7.417,-28.925c5.191,-8.653 13.473,-15.575 24.845,-20.767c11.62,-5.191 27.195,-7.787 46.725,-7.787l62.3,-0l0,25.587l-60.816,0c-17.8,0 -29.791,2.967 -35.971,8.9c-6.181,5.934 -9.271,13.103 -9.271,21.509c0,9.641 3.832,17.429 11.496,23.362c7.664,5.686 18.294,8.529 31.892,8.529c13.35,0 24.969,-2.966 34.858,-8.9c10.136,-5.933 17.429,-14.586 21.879,-25.958l7.046,24.475c-4.697,11.62 -12.979,20.89 -24.846,27.813c-11.867,6.675 -26.824,10.012 -44.871,10.012Z" style="fill:#e4e4e0;fill-rule:nonzero;"/><path d="M873.645,704.501c-20.025,0 -37.949,-4.326 -53.771,-12.979c-15.575,-8.653 -27.812,-20.519 -36.712,-35.6c-8.9,-15.081 -13.35,-32.386 -13.35,-51.917c-0,-19.53 4.45,-36.836 13.35,-51.916c8.9,-15.081 21.137,-26.824 36.712,-35.23c15.822,-8.652 33.746,-12.979 53.771,-12.979c17.8,0 33.622,3.585 47.467,10.754c14.091,6.923 24.969,17.306 32.633,31.15l-27.071,17.43c-6.428,-9.642 -14.339,-16.688 -23.733,-21.138c-9.147,-4.697 -19.036,-7.046 -29.667,-7.046c-12.855,0 -24.351,2.843 -34.487,8.529c-10.137,5.687 -18.171,13.721 -24.105,24.105c-5.933,10.136 -8.9,22.25 -8.9,36.341c0,14.092 2.967,26.329 8.9,36.713c5.934,10.383 13.968,18.418 24.105,24.104c10.136,5.686 21.632,8.529 34.487,8.529c10.631,0 20.52,-2.225 29.667,-6.675c9.394,-4.697 17.305,-11.867 23.733,-21.508l27.071,17.058c-7.664,13.597 -18.542,24.104 -32.633,31.521c-13.845,7.169 -29.667,10.754 -47.467,10.754Z" style="fill:#e4e4e0;fill-rule:nonzero;"/><path d="M1024.94,654.809l0.742,-45.612l113.104,-103.463l43.016,0l-86.775,85.292l-19.283,16.317l-50.804,47.466Zm-28.925,47.467l-0,-275.158l35.6,-0l-0,275.158l-35.6,0Zm150.187,0l-77.133,-95.675l22.992,-28.554l97.9,124.229l-43.759,0Z" style="fill:#e4e4e0;fill-rule:nonzero;"/><path d="M1304.55,704.501c-21.014,0 -39.555,-4.326 -55.625,-12.979c-15.822,-8.653 -28.183,-20.519 -37.083,-35.6c-8.653,-15.081 -12.979,-32.386 -12.979,-51.917c-0,-19.53 4.203,-36.836 12.608,-51.916c8.653,-15.081 20.396,-26.824 35.229,-35.23c15.081,-8.652 32.016,-12.979 50.804,-12.979c19.037,0 35.848,4.203 50.434,12.609c14.586,8.405 25.958,20.272 34.116,35.6c8.406,15.08 12.609,32.757 12.609,53.029c-0,1.483 -0.495,9.023 -0.742,10.754l-167.246,-0l0,-25.588l148.704,0l-14.462,8.9c0.247,-12.608 -2.349,-23.856 -7.788,-33.745c-5.438,-9.889 -12.979,-17.553 -22.62,-22.992c-9.395,-5.686 -20.396,-8.529 -33.005,-8.529c-12.361,-0 -23.362,2.843 -33.004,8.529c-9.641,5.439 -17.182,13.226 -22.621,23.362c-5.438,9.889 -8.158,21.262 -8.158,34.117l0,5.933c0,13.103 2.967,24.846 8.9,35.23c6.181,10.136 14.71,18.047 25.588,23.733c10.877,5.686 23.362,8.529 37.454,8.529c11.619,0 22.126,-1.978 31.521,-5.933c9.641,-3.956 18.047,-9.889 25.216,-17.8l19.654,22.991c-8.9,10.384 -20.025,18.295 -33.375,23.734c-13.102,5.439 -27.812,8.158 -44.129,8.158Z" style="fill:#e4e4e0;fill-rule:nonzero;"/><path d="M1511.48,704.501c-19.778,0 -35.105,-5.315 -45.983,-15.946c-10.878,-10.63 -16.317,-25.834 -16.317,-45.612l0,-180.225l35.6,-0l0,178.741c0,10.631 2.596,18.789 7.788,24.475c5.439,5.687 13.103,8.53 22.991,8.53c11.125,-0 20.396,-3.091 27.813,-9.271l11.125,25.587c-5.439,4.698 -11.99,8.159 -19.654,10.384c-7.417,2.225 -15.204,3.337 -23.363,3.337Zm-95.675,-169.471l0,-29.296l125.342,0l-0,29.296l-125.342,0Z" style="fill:#e4e4e0;fill-rule:nonzero;"/><path d="M539.412,993.011l97.2,-0l0,420l-97.2,-0l0,-420Zm-190.8,420l-97.2,-0l0,-420l97.2,-0l0,420Zm198,-172.2l-205.2,-0l0,-82.2l205.2,-0l0,82.2Z" style="fill:#e4e4e0;fill-rule:nonzero;"/><path d="M922.812,1420.21c-59.6,-0 -106.2,-16.6 -139.8,-49.8c-33.6,-33.2 -50.4,-80.6 -50.4,-142.2l0,-235.2l97.2,-0l0,231.6c0,40 8.2,68.8 24.6,86.4c16.4,17.6 39.4,26.4 69,26.4c29.6,-0 52.6,-8.8 69,-26.4c16.4,-17.6 24.6,-46.4 24.6,-86.4l0,-231.6l96,-0l0,235.2c0,61.6 -16.8,109 -50.4,142.2c-33.6,33.2 -80.2,49.8 -139.8,49.8Z" style="fill:#e4e4e0;fill-rule:nonzero;"/><path d="M1209.01,1413.01l0,-420l205.2,-0c52.8,-0 92.4,10 118.8,30c26.8,20 40.2,46.4 40.2,79.2c0,22 -5.4,41.2 -16.2,57.6c-10.8,16 -25.6,28.4 -44.4,37.2c-18.8,8.8 -40.4,13.2 -64.8,13.2l11.4,-24.6c26.4,-0 49.8,4.4 70.2,13.2c20.4,8.4 36.2,21 47.4,37.8c11.6,16.8 17.4,37.4 17.4,61.8c0,36 -14.2,64.2 -42.6,84.6c-28.4,20 -70.2,30 -125.4,30l-217.2,-0Zm96.6,-73.2l113.4,-0c25.2,-0 44.2,-4 57,-12c13.2,-8.4 19.8,-21.6 19.8,-39.6c0,-17.6 -6.6,-30.6 -19.8,-39c-12.8,-8.8 -31.8,-13.2 -57,-13.2l-120.6,-0l0,-70.8l103.8,-0c23.6,-0 41.6,-4 54,-12c12.8,-8.4 19.2,-21 19.2,-37.8c0,-16.4 -6.4,-28.6 -19.2,-36.6c-12.4,-8.4 -30.4,-12.6 -54,-12.6l-96.6,-0l0,273.6Z" style="fill:#e4e4e0;fill-rule:nonzero;"/></g></svg>