<?xml version="1.0" encoding="UTF-8" standalone="no"?><!DOCTYPE svg PUBLIC "-//W3C//DTD SVG 1.1//EN" "http://www.w3.org/Graphics/SVG/1.1/DTD/svg11.dtd"><svg width="100%" height="100%" viewBox="0 0 2118 2331" version="1.1" xmlns="http://www.w3.org/2000/svg" xmlnsXlink="http://www.w3.org/1999/xlink" xmlSpace="preserve" xmlnsSerif="http://www.serif.com/" style="fill-rule:evenodd;clip-rule:evenodd;stroke-linejoin:round;stroke-miterlimit:2;"><rect id="Artboard1" x="0" y="0" width="2117.12" height="2330.23" style="fill:none;"/><clipPath id="_clip1"><rect x="0" y="0" width="2117.12" height="2330.23"/></clipPath><g clip-path="url(#_clip1)"><path d="M833.858,76.277c64.407,-49.463 143.344,-76.277 224.554,-76.277c81.209,0 160.146,26.814 224.553,76.277l279.956,215.002l326.174,134.948c75.041,31.046 137.731,86.001 178.335,156.33c40.605,70.329 56.852,152.098 46.219,232.608l-46.219,349.949l46.219,349.95c10.633,80.51 -5.614,162.278 -46.219,232.607c-40.604,70.33 -103.294,125.284 -178.335,156.331l-326.174,134.948l-279.956,215.001c-64.407,49.464 -143.344,76.278 -224.553,76.278c-81.21,-0 -160.147,-26.814 -224.554,-76.278l-279.956,-215.001l-326.174,-134.948c-75.04,-31.047 -137.73,-86.001 -178.335,-156.331c-40.605,-70.329 -56.852,-152.097 -46.219,-232.607l46.219,-349.95l-46.219,-349.949c-10.633,-80.51 5.614,-162.279 46.219,-232.608c40.605,-70.329 103.295,-125.284 178.335,-156.33l326.174,-134.948l279.956,-215.002Z" style="fill:#73ba9b;"/></g></svg>