<?xml version="1.0" encoding="UTF-8" standalone="no"?><!DOCTYPE svg PUBLIC "-//W3C//DTD SVG 1.1//EN" "http://www.w3.org/Graphics/SVG/1.1/DTD/svg11.dtd"><svg width="100%" height="100%" viewBox="0 0 4743 2230" version="1.1" xmlns="http://www.w3.org/2000/svg" xmlnsXlink="http://www.w3.org/1999/xlink" xmlSpace="preserve" xmlnsSerif="http://www.serif.com/" style="fill-rule:evenodd;clip-rule:evenodd;"><path d="M2185.36,58.594c107.5,-78.125 264.5,-78.125 372.042,-0c72.083,52.333 208.041,171.416 284.708,216.416c83.333,48.792 262.792,110.667 350.75,150.459c121.083,54.791 200,189.958 186.042,322.208c-9.667,92.333 -45.375,274 -45.375,366.875c-0,92.875 35.708,274.542 45.375,366.875c13.791,132.208 -64.959,267.375 -186.042,322.208c-87.958,39.75 -267.458,101.667 -350.75,150.417c-76.833,45 -212.5,164.125 -284.708,216.667c-107.542,78.125 -264.542,78.125 -372.042,-0c-72.042,-52.375 -207.875,-171.459 -284.75,-216.667c-83.333,-48.792 -262.792,-110.667 -350.708,-150.417c-121.084,-54.708 -199.834,-190 -186,-322.208c9.625,-92.333 45.333,-274.167 45.333,-366.875c0,-92.708 -35.708,-274.5 -45.333,-366.875c-13.834,-132.083 64.916,-267.417 186.041,-322.167c87.917,-39.791 267.417,-101.708 350.709,-150.458c76.833,-45.042 212.666,-164.125 284.708,-216.458Z" style="fill:#73ba9b;fill-rule:nonzero;"/><g><g id="text"><path d="M3287.5,1304.92l0,63.833l-4.167,0l0,-16.292c-5.166,11.5 -18.958,18 -34.125,18c-19.166,0 -30.875,-10.166 -30.875,-26.458c0,-17.25 13.209,-28.375 34.334,-28.375c10.732,-0.135 21.289,2.754 30.458,8.333l0,-18.958c0,-18.958 -11.125,-30.875 -29.167,-30.875c-15.541,0 -25.708,8.333 -27.583,22.625l-4.167,-0.583c1.917,-16.125 14,-25.875 31.834,-25.875c20.958,-0.084 33.458,13.333 33.458,34.625Zm-4.167,31.416l0,-7.666c-8.828,-6.293 -19.452,-9.581 -30.291,-9.375c-18.584,-0 -30.292,9.375 -30.292,24.541c0,14 10.167,22.792 27.583,22.792c19.917,0 32.959,-11.667 32.959,-30.167l0.041,-0.125Z" style="fill-rule:nonzero;stroke:#000;stroke-width:4.17px;"/><path d="M3429.17,1320.04c-0,30.666 -14.375,50 -37.5,50c-16.667,-0 -28.75,-9.959 -34.334,-26.625l0,61.708l-4.166,0l-0,-132.208l4.166,-0l0,24.333c5.375,-17.042 17.875,-27.042 34.542,-27.042c23.083,0 37.292,19.167 37.292,49.834Zm-4.167,-0c0,-28.375 -13.042,-45.834 -33.333,-45.834c-20.292,0 -33.917,17.625 -33.917,45.834c0,28.208 13.083,46.208 33.917,46.208c20.833,-0 33.333,-17.833 33.333,-46.208Z" style="fill-rule:nonzero;stroke:#000;stroke-width:4.17px;"/><rect x="3454.17" y="1228.83" width="4.167" height="139.917" style="fill-rule:nonzero;stroke:#000;stroke-width:4.17px;"/><path d="M3551.79,1304.92l-0,63.833l-4.167,0l0,-16.292c-5.167,11.5 -18.958,18 -34.125,18c-19.167,0 -30.875,-10.166 -30.875,-26.458c0,-17.25 13.208,-28.375 34.333,-28.375c10.733,-0.135 21.29,2.754 30.459,8.333l-0,-18.958c-0,-18.958 -11.125,-30.875 -29.167,-30.875c-15.542,0 -25.708,8.333 -27.583,22.625l-4.167,-0.583c1.917,-16.125 14,-25.875 31.833,-25.875c21,-0.084 33.459,13.333 33.459,34.625Zm-4.167,31.416l0,-7.666c-8.829,-6.293 -19.452,-9.581 -30.292,-9.375c-18.583,-0 -30.291,9.375 -30.291,24.541c-0,14 10.166,22.792 27.625,22.792c19.875,0 32.916,-11.667 32.916,-30.167l0.042,-0.125Z" style="fill-rule:nonzero;stroke:#000;stroke-width:4.17px;"/><path d="M3577.67,1241.67c-0,-2.366 1.946,-4.313 4.312,-4.313c2.366,0 4.313,1.947 4.313,4.313c0.005,0.085 0.008,0.171 0.008,0.257c-0,2.194 -1.734,4.032 -3.925,4.159l-0.25,0c-0.1,0.008 -0.201,0.011 -0.301,0.011c-2.18,0 -4.01,-1.711 -4.157,-3.886l-0,-0.541Zm2.291,126.916l0,-95.833l4.167,0l0,95.833l-4.167,0Z" style="fill-rule:nonzero;stroke:#000;stroke-width:4.17px;"/><path d="M3684.04,1305.67l-0,63.083l-4.167,0l0,-64.042c0,-18.958 -10.917,-30.666 -28.958,-30.666c-18.042,-0 -30.5,13.041 -30.5,34.125l-0,60.583l-4.167,-0l-0,-95.833l4.167,-0l-0,18.208c4.643,-13.133 17.512,-21.667 31.416,-20.833c20.125,-0.084 32.209,13.541 32.209,35.375Z" style="fill-rule:nonzero;stroke:#000;stroke-width:4.17px;"/><path d="M3743.46,1339.79l3.834,-0.375c1.708,19.166 15.333,27.041 30.291,27.041c16.667,0 26.834,-9.208 26.834,-21.666c-0,-31.625 -59.042,-16.292 -59.042,-51c0,-15.334 12.083,-23.584 29.5,-23.584c17.417,0 28.75,8.834 31.042,26.084l-3.625,0.583c-1.917,-14.583 -11.709,-22.917 -27.417,-22.917c-15.708,0 -25.292,7.292 -25.292,19.375c0,30.625 59.125,16 59.125,51.459c0,15.708 -12.25,25.291 -30.875,25.291c-18.625,0 -33.25,-9 -34.375,-30.291Z" style="fill-rule:nonzero;stroke:#000;stroke-width:4.17px;"/><path d="M3901.75,1272.92l0,132.25l-4.167,-0l0,-61.709c-5.541,16.667 -17.833,26.625 -34.291,26.625c-23,0 -37.5,-19.375 -37.5,-50c-0,-30.625 14.375,-50 37.5,-50c16.666,0 28.958,9.959 34.5,27.042l-0,-24.333l4.166,-0l-0.208,0.125Zm-4.167,47.166c0,-28.375 -13.208,-45.833 -33.916,-45.833c-20.709,0 -33.334,17.625 -33.334,45.833c0,28.209 13.042,46.209 33.334,46.209c20.291,-0 34.083,-17.875 34.083,-46.25l-0.167,0.041Z" style="fill-rule:nonzero;stroke:#000;stroke-width:4.17px;"/><path d="M3996.46,1272.92l0,95.833l-4.166,0l-0,-19.167c-4.201,13.036 -16.787,21.645 -30.459,20.834c-19.375,-0 -31.416,-13.417 -31.416,-35.25l-0,-62.25l4.166,-0l0,63.083c0,18.792 10.75,30.5 28,30.5c18.042,-0 29.167,-13.042 29.167,-33.917l0,-59.666l4.708,-0Z" style="fill-rule:nonzero;stroke:#000;stroke-width:4.17px;"/><path d="M4026.54,1241.67c-0,-2.366 1.946,-4.313 4.312,-4.313c2.366,0 4.313,1.947 4.313,4.313c0.005,0.085 0.008,0.171 0.008,0.257c-0,2.194 -1.734,4.032 -3.925,4.159l-0.25,0c-0.1,0.008 -0.201,0.011 -0.301,0.011c-2.18,0 -4.01,-1.711 -4.157,-3.886l-0,-0.541Zm2.291,126.916l0,-95.833l4.167,0l0,95.833l-4.167,0Z" style="fill-rule:nonzero;stroke:#000;stroke-width:4.17px;"/><path d="M4133.33,1228.83l0,139.917l-4.166,0l-0,-25.292c-5.542,16.667 -17.834,26.625 -34.292,26.625c-23,0 -37.5,-19.375 -37.5,-50c-0,-30.625 14.375,-50 37.5,-50c16.667,0 28.75,9.792 34.292,26.625l-0,-67.875l4.166,0Zm-4.166,91.25c-0,-28.375 -13.209,-45.833 -33.917,-45.833c-20.708,0 -33.542,17.625 -33.542,45.833c0,28.209 13.042,46.209 33.542,46.209c20.5,-0 34.042,-17.875 34.042,-46.25l-0.125,0.041Z" style="fill-rule:nonzero;stroke:#000;stroke-width:4.17px;"/><path d="M4196.21,1339.79l3.834,-0.375c1.708,19.166 15.333,27.041 30.291,27.041c16.667,0 26.834,-9.208 26.834,-21.666c-0,-31.625 -59.042,-16.292 -59.042,-51c0,-15.334 12.083,-23.584 29.5,-23.584c17.417,0 28.75,8.834 31.042,26.084l-3.625,0.583c-1.709,-14.75 -11.709,-22.792 -27.417,-22.792c-15.708,0 -25.292,7.292 -25.292,19.375c0,30.459 59.042,15.917 59.042,51.584c0,15.708 -12.25,25.291 -30.875,25.291c-18.625,0 -33.208,-9.25 -34.292,-30.541Z" style="fill-rule:nonzero;stroke:#000;stroke-width:4.17px;"/><path d="M4352.54,1340.38l4.166,0.583c-3.458,20.125 -18.791,29.167 -36.25,29.167c-25.291,0 -41.666,-19.375 -41.666,-50.625c-0,-31.25 15.708,-49.458 39.5,-49.458c23.791,-0 39.083,18.583 39.083,48.5l-74.375,-0l0,0.375c0,28.541 14.167,47.333 37.75,47.333c15.674,1.103 29.689,-10.303 31.792,-25.875Zm-69.209,-25.708l69.959,-0c-0.959,-25 -14.375,-40.625 -34.875,-40.625c-20.5,-0 -33.75,15.333 -35.084,40.666l0,-0.041Z" style="fill-rule:nonzero;stroke:#000;stroke-width:4.17px;"/><path d="M4417.92,1270.79l-0,4.208l-3.459,0c-18.791,0 -30.666,14.958 -30.666,38.917l-0,54.833l-4.167,0l0,-95.833l4.167,-0l-0,20.5c3.785,-13.743 16.63,-23.156 30.875,-22.625l3.25,-0Z" style="fill-rule:nonzero;stroke:#000;stroke-width:4.17px;"/><path d="M4503.38,1272.92l-37.5,95.833l-5.375,0l-37.167,-95.833l4.417,-0l35.667,91.666l35.666,-91.666l4.292,-0Z" style="fill-rule:nonzero;stroke:#000;stroke-width:4.17px;"/><path d="M4517.04,1241.67c-0,-2.366 1.946,-4.313 4.312,-4.313c2.366,0 4.313,1.947 4.313,4.313c0.005,0.085 0.008,0.171 0.008,0.257c-0,2.194 -1.734,4.032 -3.925,4.159l-0.25,0c-0.1,0.008 -0.201,0.011 -0.301,0.011c-2.18,0 -4.01,-1.711 -4.157,-3.886l-0,-0.541Zm2.291,126.916l0,-95.833l4.167,0l0,95.833l-4.167,0Z" style="fill-rule:nonzero;stroke:#000;stroke-width:4.17px;"/><path d="M4621.46,1302.42l-3.625,0.583c-0.584,-16.485 -14.552,-29.609 -31.041,-29.167c-20.834,0 -34.292,17.834 -34.292,46.375c0,28.542 13.208,45.834 34.5,45.834c16.204,0.701 30.118,-12.047 30.833,-28.25l0,-1.25l3.834,0.583c-0.069,18.033 -14.925,32.834 -32.958,32.834c-0.042,-0 -0.084,-0.001 -0.126,-0.001l-1.625,0c-23.791,0 -38.708,-18.958 -38.708,-49.458c0,-30.5 15.125,-50.208 38.167,-50.208c18.353,-0.59 34.038,13.789 35.041,32.125Z" style="fill-rule:nonzero;stroke:#000;stroke-width:4.17px;"/><path d="M4709.25,1340.38l4.167,0.583c-3.459,20.125 -18.792,29.167 -36.25,29.167c-25.292,0 -41.667,-19.375 -41.667,-50.625c0,-31.25 15.708,-49.458 39.5,-49.458c23.792,-0 39.083,18.583 39.083,48.5l-74.375,-0l0,0.375c0,28.541 14.167,47.333 37.75,47.333c15.674,1.103 29.689,-10.303 31.792,-25.875Zm-69.375,-25.708l69.958,-0c-0.958,-25 -14.375,-40.625 -34.875,-40.625c-20.5,-0 -33.75,15.333 -35.125,40.666l0.042,-0.041Z" style="fill-rule:nonzero;stroke:#000;stroke-width:4.17px;"/><path d="M4.542,984.167l17.5,-2.5c11.666,106.666 80.833,166.666 190.833,166.666c96.667,0 157.5,-46.666 157.5,-130.833c-0,-201.667 -348.333,-108.333 -348.333,-310.833c-0,-95.834 78.333,-143.334 171.666,-143.334c104.167,0 170,60 186.667,156.667l-16.667,3.333c-15.833,-90.833 -75,-143.333 -166.666,-143.333c-86.667,0 -156.667,45.833 -156.667,126.667c-0,180.833 348.333,94.166 348.333,310.833c0,96.667 -70,147.5 -176.666,147.5c-123.334,0 -195.834,-68.333 -207.5,-180.833Z" style="fill-rule:nonzero;stroke:#000;stroke-width:4.17px;"/><path d="M787.875,741.667l0,575l-17.5,-0l0,-268.334c-24.167,72.5 -77.5,115.834 -149.167,115.834c-100,-0 -162.5,-84.167 -162.5,-217.5c0,-133.334 62.5,-216.667 162.5,-216.667c72.5,0 125.834,43.333 150,117.5l-0.833,-105.833l17.5,-0Zm-17.5,205c0,-123.334 -57.5,-200 -147.5,-200c-89.167,-0 -145.833,76.666 -145.833,200c-0,123.333 56.666,200.833 145.833,200.833c90,0 147.5,-77.5 147.5,-200.833Z" style="fill-rule:nonzero;stroke:#000;stroke-width:4.17px;"/><path d="M1199.5,741.667l0,416.666l-17.5,0l0.833,-83.333c-19.166,56.667 -66.666,90 -132.5,90c-84.166,0 -136.666,-58.333 -136.666,-153.333l-0,-270l18.333,-0l-0,274.166c-0,81.667 46.667,132.5 121.667,132.5c78.333,0 127.5,-56.666 127.5,-147.5l-0,-259.166l18.333,-0Z" style="fill-rule:nonzero;stroke:#000;stroke-width:4.17px;"/><path d="M1330.33,606.667c0,-10.286 8.464,-18.75 18.75,-18.75c10.286,-0 18.75,8.464 18.75,18.75c0.541,9.94 -7.185,18.569 -17.125,19.125l-1.208,-0c-10.068,0.444 -18.719,-7.474 -19.167,-17.542c-0.039,-0.527 -0.039,-1.056 0,-1.583Zm10,551.666l0,-416.666l17.5,-0l0,416.666l-17.5,0Z" style="fill-rule:nonzero;stroke:#000;stroke-width:4.17px;"/><path d="M1794.5,550l0,608.333l-17.5,0l0,-110c-24.167,72.5 -77.5,115.834 -149.167,115.834c-100,-0 -162.5,-84.167 -162.5,-217.5c0,-133.334 62.5,-216.667 162.5,-216.667c71.667,-0 125,42.5 149.167,115.833l0,-295.833l17.5,0Zm-17.5,396.667c0,-123.334 -57.5,-200 -147.5,-200c-89.167,-0 -145.833,76.666 -145.833,200c-0,123.333 56.666,200.833 145.833,200.833c90,0 147.5,-77.5 147.5,-200.833Z" style="fill-rule:nonzero;stroke:#000;stroke-width:4.17px;"/><path d="M2784.54,590.625l-0,277.708l257.5,0l-0,15.834l-257.5,-0l-0,273.125l-18.334,-0l0,-583.334l306.667,0l0,16.667l-288.333,0Z" style="fill-rule:nonzero;stroke:#000;stroke-width:4.17px;"/><path d="M3405.38,880l0,277.292l-17.5,-0l0,-70.834c-22.5,50 -82.5,78.334 -148.333,78.334c-83.334,-0 -134.167,-44.167 -134.167,-115c-0,-75 57.5,-123.334 149.167,-123.334c49.166,0 98.333,13.334 132.5,35.834l-0,-82.5c-0,-82.5 -48.334,-134.167 -126.667,-134.167c-67.5,0 -111.667,36.667 -120,98.333l-18.333,-2.5c8.333,-70 60.833,-112.5 138.333,-112.5c90.833,0.209 145,58.542 145,151.042Zm-18.333,136.667l-0,-33.334c-33.334,-25.833 -82.5,-40.833 -131.667,-40.833c-80.833,0 -131.667,40.833 -131.667,106.667c0,60.833 44.167,99.166 120,99.166c86.667,0 143.334,-50.833 143.334,-131.666Z" style="fill-rule:nonzero;stroke:#000;stroke-width:4.17px;"/><path d="M3821.21,869.167l-15.833,2.5c-6.667,-74.167 -60,-125.834 -135,-125.834c-90.833,0 -149.167,77.5 -149.167,201.667c0,122.5 57.5,198.333 150,198.333c74.167,0 129.167,-48.333 134.167,-128.333l16.667,2.5c-5,87.5 -65.834,142.5 -150.834,142.5c-103.333,0 -168.333,-82.5 -168.333,-215c0,-134.167 65.833,-218.333 165.833,-218.333c82.5,-0 145,55.833 152.5,140Z" style="fill-rule:nonzero;stroke:#000;stroke-width:4.17px;"/><path d="M4060.33,1140.62l0,16.667l-60.833,-0c-46.667,-0 -75.833,-35 -75.833,-90.834l-0,-309.166l-64.959,-0l0,-16.667l65,0l0,-87.5l18.334,0l-0,87.5l111.666,0l0,16.667l-111.666,-0l-0,307.5c-0,46.666 24.166,75.833 63.333,75.833l54.958,0Z" style="fill-rule:nonzero;stroke:#000;stroke-width:4.17px;"/><path d="M4113.67,946.667c-0,-133.334 67.5,-217.5 175.833,-217.5c108.333,-0 175.833,84.166 175.833,217.5c0,133.333 -67.5,217.5 -175.833,217.5c-108.333,-0 -175.833,-84.167 -175.833,-217.5Zm333.333,-0c0,-123.334 -60,-200.834 -157.5,-200.834c-96.667,0 -157.5,77.5 -157.5,200.834c0,123.333 60.833,200.833 157.5,200.833c97.5,0 157.5,-77.5 157.5,-200.833Z" style="fill-rule:nonzero;stroke:#000;stroke-width:4.17px;"/><path d="M4738.67,731.458l-0,18.542l-15,0c-81.667,0 -133.334,65 -133.334,169.167l0,238.125l-17.5,-0l0,-416.667l17.5,0l-0.833,89.167c20,-61.667 67.5,-98.334 134.167,-98.334l15,0Z" style="fill-rule:nonzero;stroke:#000;stroke-width:4.17px;"/></g><g id="squid"><path d="M2091.28,1086.18c-73.625,-7 -109.292,-62.875 -110.75,-112.042c-1.959,-65.75 36,-105.5 117.791,-122.583c2,-30.333 3.584,-61.083 6.125,-91.667c12.792,-154.833 39.417,-307 91.667,-453.833c33.333,-93.875 78.917,-181.375 142.042,-259.042c3.416,-4.166 6.708,-8.333 10.416,-12.5c15.542,-16.166 28.459,-15.833 43,1.375c69.709,82.875 117.5,177.834 153.042,279.5c45.833,131.292 69.375,267.084 82.292,405.042c3.75,40 6.125,80.125 8.75,120.208c0.541,8.334 2.458,12.834 11.958,14.709c59.875,12 97.583,55.875 98.083,112.916c0.5,57.042 -36.333,101.792 -95.416,115.584c-2.375,0.541 -4.667,1.333 -6.875,1.958c-6.709,40.917 18.791,72.042 61.75,76.292c39.416,3.875 76.916,-4.542 113.916,-16.875c43.667,-14.584 87.084,-30 131.125,-43.417c141,-43 248.209,28.625 305.5,140.75c23.459,45.833 17.875,92.292 -10.75,135.375c-44.541,67.042 -118.958,99.417 -192.666,83.917c-1.917,-0.417 -3.834,-0.792 -5.75,-1.25c-20.834,-5.417 -37.042,-20.292 -36.417,-33.542c0.708,-14.167 22.542,-35.333 40.333,-38.083c21.292,-3.292 42.75,-5.334 64.042,-8.75c9.645,-1.522 19.074,-4.194 28.083,-7.959c30,-12.75 41.209,-33.333 36.459,-65.666c-12.5,-84.209 -100.75,-145.834 -183.334,-125.625c-32.529,7.199 -64.175,17.929 -94.375,32c-102.208,50.333 -199.041,38.125 -293.583,-19.125c-5.96,-4.295 -12.258,-8.099 -18.833,-11.375c-4.542,-1.792 -11.792,-2.625 -15,-0c-3.209,2.625 -3.334,9.875 -2.167,14.416c6.464,28.135 24.408,52.322 49.458,66.667c35.292,19.833 72.209,36.917 108.667,54.667c13.167,6.416 27.417,10.583 40.625,16.958c90.5,43.708 127.458,122.167 120.333,219.167c-3.833,52.208 -11.583,104.166 -17.208,156.208c-1.167,10.667 -0.417,21.542 -1.042,32.292c-1.708,28.875 11.709,48.541 36.667,61.541c17.917,9.292 35.458,18.875 45.375,38.042c7.833,15.167 6.167,24.25 -7.75,33.833c-32.75,22.625 -78.458,17.542 -108.333,-13.958c-32.285,-33.922 -50.239,-79.045 -50.084,-125.875c-0.458,-33.333 4.625,-67.333 9.334,-100.708c7.208,-51.25 12.5,-102.167 -3.209,-152.875c-13.5,-43.292 -39.458,-72.834 -85.041,-84.875c-48.917,-12.875 -87.5,-43.167 -120.834,-80c-34.916,-38.459 -69.125,-77.542 -103.625,-116.334c-3.167,-4.355 -6.83,-8.326 -10.916,-11.833c-4.819,-2.647 -9.921,-4.744 -15.209,-6.25c-1.625,5.25 -5.083,10.667 -4.541,15.667c5.062,47.025 21.557,92.105 48.041,131.291c21.375,32.167 44.834,63.084 69.25,93c23.875,29.167 44.167,60.292 54.167,96.709c23.625,85.458 26.333,171.208 -1.833,256.291c-15,45.292 -44.25,78.375 -90.417,93.584c-12.218,3.244 -24.897,4.399 -37.5,3.416c-0.133,0.003 -0.265,0.005 -0.398,0.005c-9.417,0 -17.167,-7.749 -17.167,-17.167c0,-0.852 0.064,-1.703 0.19,-2.546c1,-11.458 2.167,-24.542 8.333,-33.708c31.625,-48.084 44.917,-102.209 51.459,-157.792c3.48,-33.056 3.592,-66.38 0.333,-99.458c-3.875,-44.292 -23.542,-82.292 -55.25,-114.042c-30.25,-30.25 -57.75,-62.958 -77.333,-101.25c-10.459,-20.417 -17.834,-42.375 -27.417,-63.25c-2.25,-4.958 -7.833,-8.333 -11.917,-12.5c-3.333,4.167 -8.333,8.083 -9.75,12.917c-17.423,56.604 -49.006,107.838 -91.75,148.833c-57.416,54.583 -77.708,121.708 -72.208,198.458c4.792,66.667 19.125,130.75 55.75,188.125c1.064,1.655 1.984,3.397 2.75,5.209c5.875,14.041 9.833,29.166 -0.583,41.666c-9.834,11.917 -24.75,10.084 -38.334,6.584c-44.666,-11.5 -79.5,-37.959 -94.625,-80.875c-47.166,-133.75 -41.416,-261.709 51.625,-376.917c12.5,-15.625 25.667,-30.917 38.042,-46.708c38.267,-48.822 63.453,-106.609 73.167,-167.875c0.875,-5.292 -2.375,-11.292 -3.667,-17c-5.792,2.208 -13.333,2.833 -17.167,6.916c-37.5,40.209 -75,80.25 -110.75,121.792c-35.125,40.792 -76.625,70.167 -128.25,86.875c-55.125,17.833 -87.5,57.833 -88,115.75c-0.5,50.667 5.25,101.625 11.25,152.083c6.5,54.792 3.625,107.542 -20.833,157.875c-23.208,47.917 -62.75,71.5 -108.083,62.25c-12.269,-2.912 -23.493,-9.173 -32.417,-18.083c-4.708,-4.708 -6.208,-19.458 -2.333,-24.625c9.637,-13.871 21.913,-25.708 36.125,-34.833c40.958,-23.792 52.083,-41.167 47.041,-87.959c-4.166,-39.416 -11.083,-78.583 -15.125,-118.041c-2.916,-28.667 -5.875,-57.792 -4.166,-86.375c6.125,-91.667 51.708,-155.834 137.5,-191.167c39.333,-16.208 78.125,-33.875 116.458,-52.333c33,-15.875 53.25,-44.042 66.292,-77.417c1.916,-4.958 -0.584,-11.625 -1,-17.5c-5.459,0.708 -11.584,0 -16.25,2.292c-32.625,15.75 -64.167,33.958 -97.5,47.875c-54.167,22.666 -109.834,21.541 -164.959,1.458c-40.5,-14.75 -80.375,-31.333 -121.333,-44.542c-94.042,-30.291 -183.708,19.167 -205.25,111.709c-9.75,41.958 4.167,66.666 45.833,76.916c25.212,6.034 50.796,10.391 76.584,13.042c21.875,2.333 34.958,14.458 43.166,32.708c2.128,6.308 1.203,13.26 -2.5,18.792c-6.358,8.041 -14.622,14.372 -24.041,18.417c-92.292,33.333 -215.5,-41.459 -229.459,-138.792c-4.088,-24.89 -0.452,-50.446 10.417,-73.208c39.792,-80.667 98.708,-138.459 191.458,-152.959c45,-7 88.834,0 131.834,13.709c52.708,16.666 104.916,35.375 158.333,49.708c23.5,6.292 49.542,6.708 74.042,4.917c42,-3.042 62.916,-32.334 57,-75.292Z" style="fill:#202020;fill-rule:nonzero;"/><path d="M2671.28,884.635c-31.959,-20.25 -79.167,-12.5 -108.334,16.459c-30.931,31.263 -37.075,79.761 -14.916,117.75c22.655,37.707 68.399,55.335 110.5,42.583c37.125,-11.708 66.666,-47.917 64.291,-80.125c-21.625,20.042 -45.833,25.583 -71.541,11.208c-19.303,-10.025 -30.684,-30.838 -28.709,-52.5c1.542,-29.458 19.042,-46.916 48.709,-55.375Z" style="fill-rule:nonzero;"/><path d="M2189.07,976.885c-21.5,22.042 -44.458,30.375 -71.75,17.875c-20.524,-8.655 -33.568,-29.288 -32.583,-51.541c0,-32.459 19.375,-50.417 50,-58.709c-23.5,-18.791 -73.417,-12.25 -100.333,11.125c-34.412,29.14 -44.223,78.597 -23.542,118.667c20.132,38.515 64.064,58.744 106.417,49c41.541,-10.583 72.458,-46.417 71.791,-86.417Z" style="fill-rule:nonzero;"/><path d="M2560.2,717.469l-1.375,-0c-2.125,-39.625 -2,-79.5 -6.708,-118.792c-17,-141.958 -57,-276.917 -127.333,-402.125c-4.167,-7.708 -7.417,-20.833 -19.334,-14.375c-11.916,6.458 -1.25,15.625 2.334,22.208c53.083,96.75 89.583,199.5 104.833,308.584c9.542,68.208 12.5,137.5 17.333,206.208c2.167,29.792 2.125,59.75 3.167,89.583c0.074,2.933 0.353,5.857 0.833,8.75c1.5,8.334 5.459,16.667 14.875,13.917c5.969,-3.054 10.07,-8.855 10.959,-15.5c0.958,-32.792 0.416,-65.625 0.416,-98.458Z" style="fill-rule:nonzero;"/><path d="M2039.57,281.344c1.667,-18.75 7.459,-33.334 21.125,-44.042c48.945,-37.528 97.959,-74.944 147.042,-112.25c8.333,-6.417 17.292,-9.583 26.875,-2.458c9.583,7.125 10.292,17.166 5.917,27.625c-28.584,68.139 -57.195,136.194 -85.834,204.166c-5.375,12.792 -14.583,17.917 -28.166,14.25c-37.184,-9.248 -67.9,-35.528 -82.792,-70.833c-1.939,-5.332 -3.335,-10.846 -4.167,-16.458Z" style="fill:#202020;fill-rule:nonzero;"/><path d="M2700.41,276.302c-0.831,5.803 -2.226,11.511 -4.167,17.042c-16.417,36.416 -41.667,63.625 -80.875,75.875c-17.875,5.583 -26.583,1.5 -33.667,-15.667c-26.916,-65.139 -53.736,-130.333 -80.458,-195.583c-4.375,-10.667 -6.292,-21.125 3.792,-29.459c10.083,-8.333 20.833,-4.916 29.791,1.709c33.334,24.208 66.25,48.75 99.209,73.375c15.666,11.708 32.208,22.666 46.166,36.208c9.625,9.333 15.5,22.5 23.042,33.958l-2.833,2.542Z" style="fill:#202020;fill-rule:nonzero;"/><path d="M2671.28,884.635c-29.667,8.334 -47.167,25.917 -48.709,55.5c-1.975,21.662 9.406,42.475 28.709,52.5c25.916,14.375 50,8.792 71.541,-11.208c2.334,32.208 -27.166,68.417 -64.291,80.125c-42.118,12.708 -87.845,-4.973 -110.459,-42.708c-22.158,-37.989 -16.014,-86.487 14.917,-117.75c29.208,-28.792 76.333,-36.667 108.292,-16.459Z" style="fill:#fff;fill-rule:nonzero;"/><path d="M2189.07,976.885c0.667,40 -30.25,75.834 -72,86.25c-42.353,9.744 -86.284,-10.484 -106.416,-49c-20.682,-40.069 -10.87,-89.526 23.541,-118.666c26.917,-23.375 76.792,-29.917 100.334,-11.125c-30.417,8.333 -49.667,26.25 -50,58.708c-1.023,22.363 12.127,43.099 32.791,51.708c27.292,12.5 50.25,4.167 71.75,-17.875Z" style="fill:#fff;fill-rule:nonzero;"/><path d="M2560.2,717.469c0,32.833 0.5,65.666 -0.5,98.458c-0.88,6.637 -4.964,12.436 -10.916,15.5c-9.375,2.75 -13.375,-5.458 -14.875,-13.917c-0.481,-2.893 -0.759,-5.817 -0.834,-8.75c-1,-29.875 -1,-59.833 -3.166,-89.583c-4.959,-68.833 -7.792,-138 -17.334,-206.208c-15.291,-109.084 -51.75,-211.834 -104.833,-308.584c-3.625,-6.583 -14.542,-15.791 -2.333,-22.208c12.208,-6.417 15.041,6.708 19.333,14.375c70.333,125.208 110.333,260.167 127.333,402.125c4.709,39.292 4.625,79.167 6.709,118.792l1.416,-0Z" style="fill:#fff;fill-rule:nonzero;"/></g></g></svg>