<?xml version="1.0" encoding="UTF-8" standalone="no"?><!DOCTYPE svg PUBLIC "-//W3C//DTD SVG 1.1//EN" "http://www.w3.org/Graphics/SVG/1.1/DTD/svg11.dtd"><svg width="100%" height="100%" viewBox="0 0 5959 2800" version="1.1" xmlns="http://www.w3.org/2000/svg" xmlnsXlink="http://www.w3.org/1999/xlink" xmlSpace="preserve" xmlnsSerif="http://www.serif.com/" style="fill-rule:evenodd;clip-rule:evenodd;stroke-linejoin:round;stroke-miterlimit:2;"><g id="text"><path d="M4214.79,1696.7c9.539,62.426 18.534,120.83 23.033,163.817c17.321,166.041 -81.579,335.795 -233.646,404.658c-110.467,49.921 -335.9,127.683 -440.504,188.908c-96.496,56.517 -266.879,206.125 -357.563,272.109c-135.062,98.116 -332.237,98.116 -467.245,-0c-90.475,-65.775 -261.067,-215.334 -357.613,-272.109c-104.658,-61.279 -330.037,-138.987 -440.45,-188.908c-152.071,-68.704 -250.971,-238.617 -233.596,-404.658c12.088,-115.959 56.934,-344.321 56.934,-460.755c-0,-116.429 -44.846,-344.741 -56.934,-460.754c-17.375,-165.883 81.525,-335.846 233.646,-404.604c110.413,-49.975 335.846,-127.738 440.454,-188.963c96.492,-56.566 267.084,-206.12 357.559,-271.845c135.008,-98.117 332.183,-98.117 467.245,-0c90.53,65.725 261.275,215.279 357.563,271.795c104.658,61.275 330.037,138.984 440.504,188.959c152.067,68.812 251.175,238.566 233.646,404.658c-1.269,12.124 -2.896,25.475 -4.791,39.796c-31.163,-40.317 -80.455,-63.158 -144.059,-63.304c-97.329,-0 -163.267,53.375 -173.729,141.287l23.025,3.138c10.462,-77.446 65.933,-123.492 150.704,-123.492c65.117,0 113.726,28.425 139.151,77.692c-7.466,51.759 -17.103,111.909 -25.728,171.261c-36.218,-14.005 -78.475,-21.849 -120.731,-21.849c-115.125,0 -187.338,60.704 -187.338,154.896c0,27.267 5.998,51.388 17.331,71.729c-60.83,-25.816 -132.201,-30.818 -212.243,-6.408c-55.309,16.85 -109.838,36.212 -164.675,54.529c-14.38,4.792 -28.819,9.114 -43.371,12.653l-0,-340.511l323.396,-0l-0,-19.888l-323.396,0l-0,-348.771l362.116,0l0,-20.929l-385.141,0l-0,732.604l12.077,0c-28.952,6.198 -58.398,9.018 -88.748,6.034c-53.954,-5.338 -85.979,-44.429 -77.554,-95.817c2.775,-0.783 5.654,-1.779 8.637,-2.458c74.2,-17.321 120.459,-73.521 119.829,-145.159c-0.624,-71.637 -47.983,-126.741 -123.179,-141.812c-11.933,-2.354 -14.337,-8.004 -15.016,-18.471c-3.3,-50.342 -6.284,-100.733 -10.992,-150.971c-16.221,-173.258 -45.787,-343.8 -103.35,-508.687c-44.637,-127.679 -104.658,-246.938 -192.204,-351.021c-18.263,-21.613 -34.484,-22.029 -54.004,-1.725c-4.655,5.233 -8.788,10.467 -13.08,15.696c-79.279,97.541 -136.525,207.433 -178.387,325.329c-65.621,184.408 -99.058,375.512 -115.125,569.967c-3.192,38.408 -5.179,77.029 -7.692,115.12c-102.721,21.455 -150.396,71.38 -147.933,153.955c1.829,61.745 46.625,131.92 139.087,140.712c7.434,53.95 -18.837,90.738 -71.583,94.558c-30.771,2.246 -63.475,1.725 -92.987,-6.179c-67.088,-18 -132.654,-41.496 -198.85,-62.425c-3.097,-0.987 -6.197,-1.946 -9.3,-2.876l-0,-696.461l-21.979,-0l-0.001,371.533c-30.349,-92.1 -97.329,-145.475 -187.337,-145.475c-125.587,0 -204.083,104.658 -204.083,272.108c-0,120.949 40.95,209.684 111.017,249.642c-38.857,32.985 -69.551,76.166 -94.338,126.413c-13.65,28.583 -18.217,60.679 -13.083,91.941c17.533,122.238 172.266,216.167 288.175,174.304c11.829,-5.079 22.208,-13.029 30.195,-23.129c4.65,-6.946 5.813,-15.679 3.138,-23.6c-10.308,-22.921 -26.738,-38.146 -54.213,-41.079c-32.383,-3.329 -64.516,-8.8 -96.179,-16.379c-52.329,-12.871 -69.804,-43.9 -57.562,-96.596c27.054,-116.225 139.666,-178.337 257.771,-140.296c51.441,16.592 101.52,37.417 152.383,55.942c69.229,25.221 139.142,26.633 207.171,-1.833c41.862,-17.475 81.475,-40.346 122.45,-60.125c5.858,-2.88 13.55,-1.988 20.408,-2.88c0.521,7.38 3.663,15.755 1.254,21.98c-16.379,41.916 -41.812,77.291 -83.254,97.229c-48.142,23.179 -96.862,45.366 -146.258,65.721c-107.746,44.375 -164.996,124.962 -172.688,240.087c-2.146,35.896 1.571,72.475 5.234,108.475c5.075,49.558 13.762,98.746 18.995,148.25c6.334,58.763 -7.641,80.583 -59.079,110.467c-17.85,11.458 -33.266,26.325 -45.371,43.746c-4.866,6.487 -2.979,25.012 2.934,30.925c11.204,11.191 25.304,19.054 40.712,22.712c56.934,11.617 106.592,-18.004 135.738,-78.179c30.716,-63.213 34.329,-129.463 26.166,-198.275c-7.537,-63.371 -14.758,-127.367 -14.129,-191c0.625,-72.738 41.288,-122.975 110.517,-145.371c64.837,-20.983 116.954,-57.875 161.067,-109.104c44.9,-52.171 91.995,-102.458 139.091,-152.958c4.817,-5.125 14.288,-5.913 21.559,-8.684c1.625,7.167 5.704,14.704 4.608,21.35c-12.2,76.942 -43.833,149.517 -91.892,210.834c-15.541,19.829 -32.079,39.033 -47.775,58.658c-116.85,144.687 -124.071,305.392 -64.837,473.367c18.996,53.895 62.746,87.129 118.841,101.57c17.059,4.396 35.792,6.696 48.142,-8.27c13.079,-15.696 8.108,-34.692 0.733,-52.325c-0.962,-2.28 -2.12,-4.467 -3.454,-6.542c-45.996,-72.058 -64,-152.542 -70.016,-236.267c-6.909,-96.387 18.575,-180.691 90.683,-249.241c53.683,-51.484 93.35,-115.83 115.229,-186.917c1.779,-6.071 8.058,-10.992 12.246,-16.225c5.129,5.233 12.142,9.475 14.967,15.7c12.033,26.217 21.295,53.796 34.433,79.437c24.592,48.088 59.129,89.167 97.121,127.159c39.821,39.875 64.521,87.596 69.387,143.221c4.092,41.545 3.954,83.395 -0.416,124.908c-8.217,69.808 -24.913,137.783 -64.63,198.171c-7.741,11.512 -9.208,27.946 -10.462,42.333c-0.158,1.058 -0.242,2.129 -0.242,3.2c0,11.825 9.734,21.558 21.563,21.558c0.166,0 0.333,-0.004 0.5,-0.008c15.825,1.238 31.75,-0.212 47.096,-4.287c57.979,-19.1 94.712,-60.65 113.554,-117.534c35.371,-106.854 31.971,-214.546 2.3,-321.871c-12.559,-45.737 -38.042,-84.825 -68.029,-121.458c-30.663,-37.571 -60.125,-76.4 -86.971,-116.796c-33.259,-49.212 -53.975,-105.829 -60.334,-164.887c-0.679,-6.279 3.663,-13.084 5.705,-19.675c6.641,1.891 13.05,4.525 19.1,7.846c5.133,4.408 9.733,9.391 13.708,14.862c43.329,48.721 86.292,97.804 130.142,146.104c41.866,46.259 90.32,84.3 151.754,100.471c57.25,15.121 89.85,52.225 106.804,106.592c19.729,63.683 13.083,127.633 4.029,191.996c-5.912,41.916 -12.296,84.616 -11.721,126.479c-0.196,58.812 22.354,115.483 62.9,158.083c37.521,39.563 94.925,45.946 136.054,17.529c17.48,-12.033 19.571,-23.441 9.734,-42.487c-12.454,-24.075 -34.484,-36.109 -56.988,-47.779c-31.346,-16.325 -48.196,-41.025 -46.05,-77.288c0.788,-13.5 -0.154,-27.158 1.309,-40.554c7.066,-65.358 16.8,-130.613 21.612,-196.183c8.95,-121.821 -37.467,-220.355 -151.125,-275.246c-16.587,-8.009 -34.483,-13.242 -51.021,-21.3c-45.787,-22.292 -92.15,-43.746 -136.475,-68.654c-31.458,-18.017 -53.996,-48.392 -62.112,-83.73c-1.467,-5.7 -1.309,-14.808 2.721,-18.104c4.029,-3.296 13.133,-2.25 18.837,0c8.258,4.117 16.171,8.892 23.654,14.288c118.734,71.9 240.346,87.229 368.709,24.016c37.929,-17.67 77.67,-31.145 118.525,-40.187c103.716,-25.379 214.55,52.012 230.245,157.771c5.967,40.608 -8.112,66.458 -45.787,82.471c-11.313,4.729 -23.158,8.083 -35.271,9.995c-26.737,4.288 -53.687,6.855 -80.429,10.988c-22.342,3.454 -49.763,30.037 -50.654,47.829c-0.784,16.642 19.571,35.321 45.737,42.125c2.404,0.575 4.813,1.046 7.221,1.571c92.571,19.467 186.029,-21.196 241.967,-105.392c2.068,-3.113 4.041,-6.241 5.917,-9.381c18.823,-0.159 35.868,-8.303 42.295,-22.606l0,20.462l5.234,0l-0,-80.166c-0,-20.717 -9.423,-35.497 -25.906,-41.057c-3.037,-12.426 -7.692,-24.865 -14.04,-37.268c-19.883,-38.914 -44.553,-73.943 -73.584,-103.124c16.307,3.596 34.127,5.461 53.321,5.461c43.694,0 85.342,-9.938 119.072,-28.579c3.151,56.526 12.913,128.998 23.609,201.037l-0.002,129.371l5.234,0l-0,-77.496c1.137,3.396 2.492,6.571 4.05,9.509Zm-12.394,-511.314c0.005,0.002 0.01,0.004 0.015,0.005c-1.042,7.167 -2.067,14.317 -3.071,21.442c-0.006,-0.002 -0.012,-0.005 -0.017,-0.007c1.006,-7.124 2.032,-14.276 3.073,-21.44Zm-3.073,21.44c-10.311,73.031 -18.483,143.144 -18.483,192.936c-0,3.818 0.048,7.755 0.141,11.803c-29.702,19.806 -68.121,30.622 -112.921,30.622c-95.241,0 -150.708,-48.141 -150.708,-124.541c0,-82.68 63.842,-133.963 165.358,-133.963c40.781,0 81.558,8.218 116.613,23.143Zm-18.342,204.739c0.006,-0.003 0.011,-0.007 0.017,-0.011c0.167,7.229 0.475,14.821 0.917,22.717c-0.005,0.003 -0.011,0.005 -0.016,0.008c-0.44,-7.897 -0.751,-15.483 -0.918,-22.714Zm-269.323,-21.403c36.559,15.515 69.311,38.549 97.848,67.235c-45.353,-10 -78.988,-33.384 -97.848,-67.235Zm186.834,213.73c-5.022,-2.426 -10.927,-3.717 -17.582,-3.717c-19.52,-0 -32.287,10.462 -34.641,28.412l-5.234,-0.733c2.405,-20.25 17.58,-32.496 39.98,-32.496c5.93,-0.023 11.321,0.814 16.115,2.431c0.497,2.035 0.951,4.069 1.362,6.103Zm-0,0c12.078,5.836 19.048,18.242 19.048,35.058l-0,23.808c-5.533,-3.367 -11.468,-5.953 -17.636,-7.713c2.454,-16.921 2.05,-34.016 -1.412,-51.153Zm-22.985,117.264c-0.188,0.001 -0.375,0.002 -0.563,0.002c-24.071,0 -38.775,-12.767 -38.775,-33.229c-0,-21.663 16.587,-35.638 43.116,-35.638c7.004,-0.086 13.948,0.851 20.619,2.754c-0.219,1.506 -0.46,3.01 -0.723,4.513c-6.26,-1.876 -12.811,-2.786 -19.425,-2.658c-23.337,-0 -38.041,11.771 -38.041,30.821c-0,17.579 12.766,28.62 34.641,28.62c0.66,0 1.313,-0.01 1.961,-0.03c-0.911,1.618 -1.848,3.233 -2.81,4.845Zm-1877.21,-346.004c-35.825,55.324 -91.038,86.923 -159.622,86.923c-34.878,-0 -66.124,-8.153 -93.066,-23.517c6.221,-5.281 12.651,-10.3 19.299,-15.045c22.42,11.545 47.865,17.628 75.863,17.628c57.047,0 103.697,-24.793 135.913,-69.267c7.226,0.877 14.43,1.977 21.613,3.278Zm0,0c11.192,-17.282 20.491,-36.88 27.716,-58.552l-0,64.554c-9.206,-2.307 -18.444,-4.322 -27.716,-6.002Zm49.695,12.059l-0,67.535l-21.979,-0l-0,-73.592c7.346,1.84 14.672,3.867 21.979,6.057Zm1243.38,63.725l-0,2.505l-10.948,0c3.657,-0.782 7.306,-1.619 10.948,-2.505Zm-1314.69,-79.062c-27.98,-3.398 -56.283,-3.465 -84.963,0.997c-49.461,7.731 -91.26,25.267 -126.813,50.642c-67.259,-34.635 -107.287,-118.425 -107.287,-234.597c-0,-154.891 71.162,-251.175 183.15,-251.175c113.029,0 185.242,96.284 185.242,251.175c-0,76.718 -17.715,139.314 -49.329,182.958Zm1901.63,344.437c10.441,-18.547 17.493,-37.53 20.864,-56.753c6.623,1.985 12.921,5.051 18.621,9.113l0,9.629l-0.054,0.158c0,22.621 -15.527,37.105 -39.431,37.853Zm-692.602,-1369.3l3.554,-3.191c-9.471,-14.392 -16.85,-30.925 -28.938,-42.646c-17.529,-17.009 -38.304,-30.771 -57.979,-45.475c-41.391,-30.925 -82.729,-61.75 -124.596,-92.15c-11.25,-8.321 -24.75,-12.613 -37.412,-2.146c-12.667,10.467 -10.258,23.6 -4.763,36.996c33.559,81.946 67.242,163.825 101.046,245.629c8.896,21.562 19.834,26.687 42.284,19.679c49.241,-15.387 80.95,-49.558 101.57,-95.292c2.438,-6.945 4.188,-14.116 5.234,-21.404Zm-829.946,6.334c1.046,7.045 2.8,13.97 5.233,20.67c18.704,44.338 57.279,77.342 103.979,88.959c17.059,4.604 28.621,-1.834 35.375,-17.9c35.967,-85.363 71.9,-170.834 107.796,-256.409c5.496,-13.133 4.604,-25.745 -7.429,-34.695c-12.037,-8.946 -23.287,-4.971 -33.754,3.087c-61.642,46.854 -123.2,93.846 -184.667,140.975c-17.162,13.45 -24.437,31.763 -26.533,55.313Zm187.758,873.52c0.838,50.238 -37.991,95.242 -90.162,108.534c-53.192,12.237 -108.367,-13.171 -133.65,-61.542c-25.971,-50.321 -13.65,-112.433 29.566,-149.029c33.805,-29.358 96.496,-37.571 126.009,-13.975c-38.463,10.417 -62.796,32.971 -62.796,73.733c-1.238,27.946 15.146,53.863 40.921,64.729c34.275,15.7 63.108,5.234 90.112,-22.45Zm605.6,-115.854c-37.258,10.625 -59.233,32.55 -61.171,69.546c-2.479,27.204 11.813,53.342 36.055,65.933c32.287,18.055 62.687,11.096 89.85,-14.075c2.979,40.45 -34.121,85.925 -80.746,100.63c-52.871,16.012 -110.321,-6.125 -138.775,-53.48c-27.829,-47.712 -20.113,-108.62 18.733,-147.883c36.629,-36.371 95.917,-46.104 136.054,-20.671Zm-139.504,-209.941c0,41.233 0.683,82.47 -0.521,123.654c-1.117,8.341 -6.266,15.629 -13.762,19.462c-11.825,3.454 -16.8,-7.008 -18.684,-17.475c-0.6,-3.633 -0.954,-7.308 -1.045,-10.991c-1.309,-37.467 -1.255,-75.092 -3.975,-112.505c-6.071,-86.291 -9.788,-173.312 -21.771,-258.975c-19.15,-137 -64.992,-266.041 -131.659,-387.55c-4.5,-8.266 -17.895,-19.779 -2.929,-27.887c14.967,-8.113 19.046,8.371 24.279,18.05c88.33,157.25 138.567,326.742 159.917,505.025c5.913,49.35 5.754,99.425 8.425,149.192l1.725,-0Z" style="fill:#fff;"/><path d="M4205.5,1635.31l0,-36.667l5.233,-0l0,30.558c6.75,-21.4 22.45,-33.962 43.38,-33.962c28.991,-0 46.837,24.075 46.837,62.587c0,38.513 -18.054,62.796 -47.096,62.796c-17.533,0 -31.029,-8.775 -39.071,-23.929c-3.079,-20.167 -6.221,-40.758 -9.283,-61.383Zm90.217,22.516c-0,-35.637 -16.38,-57.562 -41.863,-57.562c-25.483,-0 -42.596,22.137 -42.596,57.562c0,35.425 16.43,58.034 42.596,58.034c26.163,-0.001 41.863,-22.396 41.863,-58.034Z" style="fill:#fff;"/><rect x="4332.38" y="1543.28" width="5.233" height="175.721" style="fill:#fff;"/><path d="M4454.96,1638.84l0,80.166l-5.233,0l0,-20.462c-6.488,14.446 -23.808,22.608 -42.858,22.608c-24.071,0 -38.775,-12.766 -38.775,-33.229c-0,-21.662 16.587,-35.637 43.12,-35.637c13.48,-0.167 26.738,3.458 38.25,10.466l0,-23.808c0,-23.808 -13.97,-38.775 -36.629,-38.775c-19.516,-0 -32.287,10.462 -34.641,28.412l-5.234,-0.733c2.409,-20.25 17.584,-32.496 39.979,-32.496c26.375,-0.104 42.021,16.746 42.021,43.488Zm-5.233,39.454l0,-9.629c-11.088,-7.9 -24.429,-12.034 -38.042,-11.771c-23.337,-0 -38.041,11.771 -38.041,30.821c-0,17.579 12.766,28.621 34.691,28.621c24.963,-0 41.342,-14.65 41.342,-37.884l0.05,-0.158Z" style="fill:#fff;fill-rule:nonzero;"/><path d="M4487.46,1559.4c0,-2.971 2.442,-5.416 5.413,-5.416c2.975,-0 5.417,2.445 5.417,5.416c0.008,0.109 0.012,0.217 0.012,0.325c0,2.754 -2.179,5.063 -4.929,5.221l-0.317,0c-0.125,0.012 -0.25,0.017 -0.375,0.017c-2.737,-0 -5.037,-2.15 -5.221,-4.884l0,-0.679Zm2.875,159.396l0,-120.358l5.234,-0l-0,120.358l-5.234,0Z" style="fill:#fff;fill-rule:nonzero;"/><path d="M4621.04,1639.78l-0,79.225l-5.234,0l0,-80.429c0,-23.808 -13.708,-38.512 -36.366,-38.512c-22.659,-0 -38.305,16.375 -38.305,42.854l0.001,76.087l-5.234,0l0,-120.358l5.234,0l-0.001,22.871c5.83,-16.496 21.992,-27.213 39.455,-26.167c25.275,-0.104 40.45,17.008 40.45,44.429Z" style="fill:#fff;fill-rule:nonzero;"/><path d="M4695.67,1682.63l4.816,-0.47c2.146,24.07 19.255,33.962 38.042,33.962c20.933,0 33.7,-11.567 33.7,-27.212c0,-39.717 -74.15,-20.463 -74.15,-64.051c0,-19.258 15.175,-29.62 37.05,-29.62c21.871,-0 36.104,11.095 38.983,32.762l-4.554,0.729c-2.404,-18.312 -14.704,-28.779 -34.429,-28.779c-19.729,0 -31.767,9.159 -31.767,24.333c0,38.459 74.254,20.092 74.254,64.625c0,19.73 -15.383,31.763 -38.775,31.763c-23.391,0 -41.758,-11.304 -43.17,-38.042Z" style="fill:#fff;fill-rule:nonzero;"/><path d="M4894.46,1598.65l0,166.092l-5.233,-0l0,-77.496c-6.958,20.929 -22.396,33.437 -43.067,33.437c-28.883,0 -47.096,-24.333 -47.096,-62.795c0.001,-38.463 18.055,-62.796 47.096,-62.796c20.93,-0 36.367,12.508 43.33,33.962l-0,-30.558l5.233,-0l-0.263,0.154Zm-5.233,59.238c0,-35.638 -16.587,-57.563 -42.596,-57.563c-26.008,0 -41.862,22.138 -41.862,57.563c-0,35.429 16.379,58.033 41.862,58.033c25.484,-0 42.804,-22.45 42.804,-58.083l-0.208,0.05Z" style="fill:#fff;fill-rule:nonzero;"/><path d="M5013.42,1598.65l-0,120.358l-5.234,0l0,-24.07c-5.275,16.37 -21.083,27.183 -38.254,26.162c-24.333,0 -39.454,-16.85 -39.454,-44.271l-0,-78.179l5.233,0l0,79.229c0,23.6 13.5,38.304 35.163,38.304c22.662,0 36.633,-16.379 36.633,-42.596l0,-74.937l5.913,-0Z" style="fill:#fff;fill-rule:nonzero;"/><path d="M5051.21,1559.4c0,-2.971 2.446,-5.416 5.417,-5.416c2.971,-0 5.417,2.445 5.417,5.416c0.008,0.109 0.008,0.217 0.008,0.325c-0,2.754 -2.175,5.063 -4.929,5.221l-0.313,0c-0.125,0.012 -0.254,0.017 -0.379,0.017c-2.737,-0 -5.033,-2.15 -5.221,-4.884l0,-0.679Zm2.879,159.396l0,-120.358l5.234,-0l-0,120.358l-5.234,0Z" style="fill:#fff;fill-rule:nonzero;"/><path d="M5185.29,1543.28l-0,175.721l-5.23,0l0,-31.762c-6.962,20.929 -22.4,33.437 -43.066,33.437c-28.888,0 -47.1,-24.333 -47.1,-62.796c-0,-38.462 18.054,-62.796 47.1,-62.796c20.929,0 36.104,12.3 43.066,33.442l0,-85.246l5.23,0Zm-5.23,114.6c0,-35.633 -16.591,-57.562 -42.595,-57.562c-26.009,-0 -42.125,22.137 -42.125,57.562c-0,35.429 16.379,58.034 42.125,58.034c25.745,-0 42.75,-22.45 42.75,-58.084l-0.155,0.05Z" style="fill:#fff;fill-rule:nonzero;"/><path d="M5264.29,1682.63l4.816,-0.47c2.146,24.07 19.255,33.962 38.042,33.962c20.933,0 33.7,-11.567 33.7,-27.212c0,-39.717 -74.15,-20.463 -74.15,-64.051c0,-19.258 15.175,-29.62 37.05,-29.62c21.871,-0 36.104,11.095 38.983,32.762l-4.55,0.729c-2.15,-18.525 -14.708,-28.625 -34.433,-28.625c-19.729,0 -31.767,9.159 -31.767,24.334c0,38.254 74.15,19.991 74.15,64.783c0,19.729 -15.383,31.767 -38.775,31.767c-23.391,-0 -41.704,-11.621 -43.066,-38.359Z" style="fill:#fff;fill-rule:nonzero;"/><path d="M5460.62,1683.38l5.233,0.733c-4.341,25.275 -23.6,36.63 -45.525,36.63c-31.762,-0.001 -52.329,-24.334 -52.329,-63.58c0,-39.245 19.729,-62.112 49.609,-62.112c29.879,-0 49.083,23.337 49.083,60.908l-93.408,0l-0,0.471c-0,35.846 17.791,59.446 47.412,59.446c19.683,1.383 37.283,-12.942 39.925,-32.496Zm-86.917,-32.287l87.859,-0c-1.204,-31.396 -18.055,-51.021 -43.8,-51.021c-25.746,-0 -42.384,19.258 -44.059,51.071l0,-0.05Z" style="fill:#fff;fill-rule:nonzero;"/><path d="M5542.71,1595.98l0,5.287l-4.345,0c-23.6,0 -38.513,18.784 -38.513,48.876l0,68.862l-5.233,0l-0,-120.354l5.233,-0l0,25.746c4.754,-17.259 20.883,-29.084 38.775,-28.417l4.083,-0Z" style="fill:#fff;fill-rule:nonzero;"/><path d="M5650.04,1598.65l-47.096,120.358l-6.75,0l-46.675,-120.358l5.546,0l44.796,115.125l44.791,-115.125l5.388,0Z" style="fill:#fff;fill-rule:nonzero;"/><path d="M5667.21,1559.4c0,-2.971 2.442,-5.416 5.413,-5.416c2.975,-0 5.417,2.445 5.417,5.416c0.008,0.109 0.012,0.217 0.012,0.325c0,2.754 -2.179,5.063 -4.929,5.221l-0.317,0c-0.125,0.012 -0.25,0.017 -0.375,0.017c-2.737,-0 -5.037,-2.15 -5.221,-4.884l0,-0.679Zm2.875,159.396l0,-120.358l5.234,-0l-0,120.358l-5.234,0Z" style="fill:#fff;fill-rule:nonzero;"/><path d="M5798.33,1635.7l-4.55,0.733c-0.733,-20.704 -18.275,-37.187 -38.983,-36.629c-26.167,0 -43.071,22.396 -43.071,58.242c0,35.846 16.592,57.562 43.329,57.562c20.35,0.88 37.825,-15.129 38.725,-35.479l0,-1.571l4.813,0.734c-0.084,22.646 -18.742,41.233 -41.392,41.233l-2.196,0c-29.879,0 -48.616,-23.808 -48.616,-62.112c-0,-38.305 18.995,-63.059 47.937,-63.059c23.046,-0.741 42.746,17.317 44.004,40.346Z" style="fill:#fff;fill-rule:nonzero;"/><path d="M5908.58,1683.38l5.234,0.733c-4.342,25.275 -23.6,36.63 -45.525,36.63c-31.763,-0.001 -52.33,-24.334 -52.33,-63.58c0,-39.245 19.73,-62.112 49.609,-62.112c29.879,-0 49.083,23.337 49.083,60.908l-93.404,0l-0,0.471c-0,35.846 17.792,59.446 47.408,59.446c19.684,1.383 37.288,-12.942 39.925,-32.496Zm-87.125,-32.287l87.859,-0c-1.205,-31.396 -18.055,-51.021 -43.8,-51.021c-25.746,-0 -42.384,19.258 -44.113,51.071l0.054,-0.05Z" style="fill:#fff;fill-rule:nonzero;"/><path d="M0,1236.01l21.979,-3.137c14.65,133.958 101.517,209.312 239.663,209.312c121.404,0 197.804,-58.608 197.804,-164.312c-0,-253.271 -437.467,-136.054 -437.467,-390.371c0,-120.358 98.375,-180.012 215.592,-180.012c130.825,-0 213.504,75.354 234.433,196.758l-20.929,4.183c-19.888,-114.075 -94.192,-180.008 -209.317,-180.008c-108.841,-0 -196.754,57.562 -196.754,159.079c0,227.108 437.467,118.263 437.467,390.371c-0,121.404 -87.913,185.246 -221.875,185.246c-154.892,-0 -245.946,-85.821 -260.596,-227.109Z" style="fill:#fff;fill-rule:nonzero;"/><path d="M983.779,931.458l0,722.134l-21.975,-0l0,-336.996c-30.354,91.05 -97.333,145.475 -187.337,145.475c-125.592,-0 -204.084,-105.704 -204.084,-273.158c0,-167.45 78.492,-272.109 204.084,-272.109c91.05,0 158.033,54.421 188.383,147.567l-1.046,-132.913l21.975,0Zm-21.975,257.455c0,-154.892 -72.217,-251.175 -185.246,-251.175c-111.983,-0 -183.15,96.283 -183.15,251.175c0,154.895 71.167,252.225 183.15,252.225c113.03,-0 185.246,-97.33 185.246,-252.225Z" style="fill:#fff;fill-rule:nonzero;"/><path d="M1500.74,931.458l-0,523.284l-21.98,-0l1.046,-104.654c-24.071,71.166 -83.725,113.029 -166.404,113.029c-105.704,-0 -171.637,-73.259 -171.637,-192.571l-0,-339.088l23.024,0l0,344.321c0,102.567 58.609,166.404 152.8,166.404c98.375,0 160.125,-71.166 160.125,-185.241l0,-325.484l23.025,0Z" style="fill:#fff;fill-rule:nonzero;"/><path d="M1665.05,761.913c-0,-12.921 10.629,-23.55 23.546,-23.55c12.92,-0 23.55,10.629 23.55,23.55c0.679,12.483 -9.025,23.32 -21.509,24.016l-1.516,0c-12.646,0.559 -23.509,-9.387 -24.071,-22.029c-0.05,-0.662 -0.05,-1.325 -0,-1.987Zm12.558,692.829l0,-523.284l21.979,0l0,523.284l-21.979,-0Z" style="fill:#fff;fill-rule:nonzero;"/><path d="M4233.04,978.8c24.729,31.992 38.045,74.992 38.045,126.387l0,348.25l-21.979,0l0,-88.962c-13.32,29.604 -37.108,53.162 -67.2,69.792c-0.441,-7.896 -0.75,-15.488 -0.916,-22.717c42.441,-28.317 67.07,-75 67.07,-134.725l0.001,-41.863c-14.213,-11.012 -30.713,-20.458 -48.73,-28.133c1.004,-7.125 2.029,-14.275 3.071,-21.442c16.7,6.463 32.117,14.234 45.658,23.15l0,-103.612c0,-35.029 -6.937,-65.638 -19.929,-90.804c1.775,-12.288 3.425,-24.104 4.909,-35.321Z" style="fill:#fff;"/><path d="M4793.33,1091.58l-19.883,3.138c-8.375,-93.146 -75.354,-158.033 -169.546,-158.033c-114.075,-0 -187.337,97.333 -187.337,253.27c-0,153.85 72.212,249.088 188.383,249.088c93.146,-0 162.221,-60.7 168.5,-161.175l20.929,3.142c-6.279,109.891 -82.679,178.962 -189.429,178.962c-129.775,0 -211.408,-103.608 -211.408,-270.017c-0,-168.495 82.679,-274.2 208.266,-274.2c103.613,0 182.105,70.121 191.525,175.825Z" style="fill:#fff;fill-rule:nonzero;"/><path d="M5093.62,1432.5l0,20.933l-76.4,0c-58.608,0 -95.238,-43.954 -95.238,-114.075l0.001,-388.279l-81.58,0l0,-20.933l81.63,-0l-0.001,-109.892l23.03,0l-0,109.892l140.237,-0l0,20.933l-140.237,0l-0,386.183c-0,58.609 30.35,95.238 79.537,95.238l69.021,-0Z" style="fill:#fff;fill-rule:nonzero;"/><path d="M5160.62,1188.91c0,-167.45 84.775,-273.155 220.829,-273.155c136.054,0 220.825,105.704 220.825,273.155c0,167.454 -84.771,273.158 -220.825,273.158c-136.054,-0 -220.829,-105.704 -220.829,-273.158Zm418.633,-0c0,-154.892 -75.354,-252.225 -197.804,-252.225c-121.404,-0 -197.804,97.333 -197.804,252.225c0,154.895 76.4,252.225 197.804,252.225c122.45,-0 197.804,-97.33 197.804,-252.225Z" style="fill:#fff;fill-rule:nonzero;"/><path d="M5945.54,918.633l-0,23.288l-18.838,-0c-102.566,-0 -167.454,81.633 -167.454,212.454l0,299.063l-21.979,-0l-0,-523.292l21.979,-0l-1.046,111.987c25.117,-77.45 84.771,-123.5 168.5,-123.5l18.838,0Z" style="fill:#fff;fill-rule:nonzero;"/></g><g><g id="squid"><path d="M3349.13,1111.01c-37.258,10.467 -59.233,32.55 -61.171,69.705c-2.479,27.204 11.813,53.341 36.055,65.933c32.55,18.054 62.795,11.042 89.85,-14.075c2.929,40.446 -34.121,85.921 -80.746,100.625c-52.896,15.962 -110.321,-6.246 -138.725,-53.633c-27.825,-47.713 -20.109,-108.621 18.737,-147.884c36.679,-36.158 95.863,-46.05 136,-20.671Z" style="fill:#fff;fill-rule:nonzero;"/><path d="M2743.53,1226.86c0.838,50.237 -37.992,95.241 -90.425,108.32c-53.191,12.238 -108.362,-13.166 -133.646,-61.537c-25.975,-50.321 -13.654,-112.433 29.563,-149.029c33.804,-29.359 96.442,-37.575 126.008,-13.975c-38.2,10.466 -62.375,32.966 -62.791,73.733c-1.288,28.083 15.229,54.125 41.179,64.938c34.275,15.699 63.108,5.233 90.112,-22.45Z" style="fill:#fff;fill-rule:nonzero;"/><path d="M3209.62,901.067c0,41.233 0.629,82.471 -0.625,123.654c-1.108,8.333 -6.237,15.617 -13.713,19.462c-11.77,3.455 -16.795,-6.854 -18.679,-17.475c-0.604,-3.633 -0.954,-7.308 -1.05,-10.991c-1.254,-37.517 -1.254,-75.142 -3.975,-112.505c-6.225,-86.445 -9.783,-173.312 -21.766,-258.975c-19.204,-137 -64.996,-266.041 -131.663,-387.55c-4.55,-8.266 -18.262,-19.829 -2.929,-27.887c15.333,-8.063 18.892,8.421 24.279,18.05c88.334,157.25 138.567,326.742 159.917,505.025c5.917,49.35 5.808,99.425 8.429,149.192l1.775,-0Z" style="fill:#fff;fill-rule:nonzero;"/></g></g></svg>