<?xml version="1.0" encoding="UTF-8" standalone="no"?><!DOCTYPE svg PUBLIC "-//W3C//DTD SVG 1.1//EN" "http://www.w3.org/Graphics/SVG/1.1/DTD/svg11.dtd"><svg width="100%" height="100%" viewBox="0 0 1430 672" version="1.1" xmlns="http://www.w3.org/2000/svg" xmlnsXlink="http://www.w3.org/1999/xlink" xmlSpace="preserve" xmlnsSerif="http://www.serif.com/" style="fill-rule:evenodd;clip-rule:evenodd;stroke-linejoin:round;stroke-miterlimit:2;"><g id="text"><path d="M657.328,17.662c32.402,-23.548 79.724,-23.548 112.139,0c21.727,15.774 62.706,51.667 85.815,65.231c25.118,14.706 79.209,33.356 105.721,45.35c36.496,16.515 60.282,57.256 56.075,97.118c-2.913,27.83 -13.676,82.587 -13.676,110.581c-0,27.994 10.763,82.751 13.676,110.581c4.157,39.85 -19.579,80.591 -56.075,97.118c-26.512,11.981 -80.616,30.644 -105.721,45.338c-23.159,13.564 -64.051,49.47 -85.815,65.306c-32.415,23.548 -79.737,23.548 -112.139,0c-21.714,-15.786 -62.656,-51.68 -85.827,-65.306c-25.118,-14.707 -79.209,-33.357 -105.708,-45.338c-36.497,-16.489 -60.233,-57.268 -56.063,-97.118c2.901,-27.83 13.664,-82.637 13.664,-110.581c-0,-27.943 -10.763,-82.738 -13.664,-110.581c-4.17,-39.812 19.566,-80.603 56.075,-97.105c26.499,-11.994 80.603,-30.657 105.709,-45.351c23.158,-13.576 64.1,-49.469 85.814,-65.243Z" style="fill:#fff;fill-rule:nonzero;"/><path d="M989.529,393.322l-0,19.24l-1.256,-0l-0,-4.911c-1.558,3.467 -5.715,5.426 -10.286,5.426c-5.777,-0 -9.306,-3.064 -9.306,-7.975c-0,-5.199 3.981,-8.553 10.348,-8.553c3.235,-0.04 6.417,0.83 9.181,2.512l-0,-5.714c-0,-5.714 -3.353,-9.306 -8.791,-9.306c-4.685,-0 -7.749,2.511 -8.314,6.819l-1.256,-0.176c0.577,-4.86 4.219,-7.799 9.595,-7.799c6.317,-0.025 10.085,4.019 10.085,10.437Zm-1.256,9.469l-0,-2.311c-2.661,-1.896 -5.864,-2.888 -9.131,-2.825c-5.601,-0 -9.13,2.825 -9.13,7.397c-0,4.219 3.064,6.869 8.314,6.869c6.003,0 9.934,-3.516 9.934,-9.092l0.013,-0.038Z" style="fill-rule:nonzero;"/><path d="M1009.32,392.475l0,-8.8l1.256,-0l0,7.334c1.62,-5.136 5.388,-8.151 10.411,-8.151c6.958,0 11.241,5.778 11.241,15.021c-0,9.243 -4.333,15.071 -11.303,15.071c-4.208,-0 -7.447,-2.106 -9.377,-5.743c-0.739,-4.84 -1.493,-9.782 -2.228,-14.732Zm21.652,5.404c-0,-8.553 -3.931,-13.815 -10.047,-13.815c-6.116,0 -10.223,5.313 -10.223,13.815c-0,8.502 3.943,13.928 10.223,13.928c6.279,-0 10.047,-5.375 10.047,-13.928Z" style="fill:#fff;"/><path d="M1011.55,407.207c-0.374,-0.705 -0.699,-1.467 -0.972,-2.282l0,18.599l-1.256,0l0,-31.049c0.735,4.95 1.489,9.892 2.228,14.732Z"/><rect x="1039.77" y="370.387" width="1.256" height="42.173" style="fill:#fff;"/><path d="M1069.19,393.322l0,19.24l-1.256,-0l0,-4.911c-1.557,3.467 -5.714,5.426 -10.286,5.426c-5.777,-0 -9.306,-3.064 -9.306,-7.975c0,-5.199 3.981,-8.553 10.349,-8.553c3.235,-0.04 6.417,0.83 9.18,2.512l0,-5.714c0,-5.714 -3.353,-9.306 -8.791,-9.306c-4.684,-0 -7.749,2.511 -8.314,6.819l-1.256,-0.176c0.578,-4.86 4.22,-7.799 9.595,-7.799c6.33,-0.025 10.085,4.019 10.085,10.437Zm-1.256,9.469l0,-2.311c-2.661,-1.896 -5.863,-2.888 -9.13,-2.825c-5.601,-0 -9.13,2.825 -9.13,7.397c-0,4.219 3.064,6.869 8.326,6.869c5.991,0 9.922,-3.516 9.922,-9.092l0.012,-0.038Z" style="fill:#fff;fill-rule:nonzero;"/><path d="M1076.99,374.257c-0,-0.713 0.586,-1.3 1.299,-1.3c0.714,0 1.3,0.587 1.3,1.3c0.002,0.026 0.003,0.052 0.003,0.078c-0,0.661 -0.523,1.215 -1.183,1.253l-0.076,0c-0.03,0.003 -0.06,0.004 -0.09,0.004c-0.657,-0 -1.209,-0.516 -1.253,-1.172l-0,-0.163Zm0.69,38.255l0,-28.886l1.256,0l0,28.886l-1.256,-0Z" style="fill:#fff;fill-rule:nonzero;"/><path d="M1109.05,393.548l0,19.014l-1.256,-0l0,-19.303c0,-5.714 -3.29,-9.243 -8.728,-9.243c-5.438,-0 -9.193,3.93 -9.193,10.285l-0,18.261l-1.256,-0l-0,-28.886l1.256,0l-0,5.489c1.399,-3.959 5.278,-6.531 9.469,-6.28c6.066,-0.025 9.708,4.082 9.708,10.663Z" style="fill:#fff;fill-rule:nonzero;"/><path d="M1126.96,403.832l1.156,-0.113c0.515,5.777 4.621,8.151 9.13,8.151c5.024,-0 8.088,-2.776 8.088,-6.531c-0,-9.532 -17.796,-4.911 -17.796,-15.372c-0,-4.622 3.642,-7.109 8.892,-7.109c5.249,0 8.665,2.663 9.356,7.863l-1.093,0.175c-0.577,-4.395 -3.529,-6.907 -8.263,-6.907c-4.735,-0 -7.624,2.198 -7.624,5.84c0,9.23 17.821,4.822 17.821,15.51c0,4.735 -3.692,7.623 -9.306,7.623c-5.614,0 -10.022,-2.713 -10.361,-9.13Z" style="fill:#fff;fill-rule:nonzero;"/><path d="M1174.67,383.676l-0,39.862l-1.256,0l-0,-18.599c-1.67,5.023 -5.375,8.025 -10.336,8.025c-6.932,-0 -11.303,-5.84 -11.303,-15.071c0,-9.231 4.333,-15.071 11.303,-15.071c5.023,0 8.728,3.002 10.399,8.151l-0,-7.334l1.256,-0l-0.063,0.037Zm-1.256,14.217c-0,-8.553 -3.981,-13.815 -10.223,-13.815c-6.242,0 -10.047,5.313 -10.047,13.815c-0,8.503 3.931,13.928 10.047,13.928c6.116,0 10.273,-5.388 10.273,-13.94l-0.05,0.012Z" style="fill:#fff;fill-rule:nonzero;"/><path d="M1203.22,383.676l-0,28.886l-1.256,-0l0,-5.777c-1.266,3.929 -5.06,6.524 -9.181,6.279c-5.84,0 -9.469,-4.044 -9.469,-10.625l0,-18.763l1.256,0l-0,19.015c-0,5.664 3.24,9.193 8.439,9.193c5.439,-0 8.792,-3.931 8.792,-10.223l-0,-17.985l1.419,0Z" style="fill:#fff;fill-rule:nonzero;"/><path d="M1212.29,374.257c0,-0.713 0.587,-1.3 1.3,-1.3c0.713,0 1.3,0.587 1.3,1.3c0.002,0.026 0.002,0.052 0.002,0.078c0,0.661 -0.522,1.215 -1.183,1.253l-0.075,0c-0.03,0.003 -0.061,0.004 -0.091,0.004c-0.657,-0 -1.208,-0.516 -1.253,-1.172l0,-0.163Zm0.691,38.255l-0,-28.886l1.256,0l-0,28.886l-1.256,-0Z" style="fill:#fff;fill-rule:nonzero;"/><path d="M1244.47,370.387l0,42.173l-1.255,0l-0,-7.623c-1.671,5.023 -5.376,8.025 -10.336,8.025c-6.933,-0 -11.304,-5.84 -11.304,-15.071c0,-9.231 4.333,-15.071 11.304,-15.071c5.023,0 8.665,2.952 10.336,8.026l-0,-20.459l1.255,0Zm-1.255,27.504c-0,-8.552 -3.982,-13.815 -10.223,-13.815c-6.242,0 -10.11,5.313 -10.11,13.815c-0,8.503 3.931,13.928 10.11,13.928c6.179,0 10.26,-5.388 10.26,-13.94l-0.037,0.012Z" style="fill:#fff;fill-rule:nonzero;"/><path d="M1263.43,403.832l1.156,-0.113c0.515,5.777 4.621,8.151 9.13,8.151c5.024,-0 8.088,-2.776 8.088,-6.531c0,-9.532 -17.796,-4.911 -17.796,-15.372c-0,-4.622 3.642,-7.109 8.892,-7.109c5.249,0 8.665,2.663 9.356,7.863l-1.092,0.175c-0.516,-4.446 -3.53,-6.87 -8.264,-6.87c-4.735,0 -7.624,2.198 -7.624,5.84c0,9.181 17.796,4.798 17.796,15.548c0,4.735 -3.692,7.624 -9.306,7.624c-5.614,-0 -10.009,-2.789 -10.336,-9.206Z" style="fill:#fff;fill-rule:nonzero;"/><path d="M1310.55,404.01l1.256,0.176c-1.042,6.066 -5.664,8.791 -10.926,8.791c-7.623,-0 -12.559,-5.84 -12.559,-15.259c-0,-9.419 4.735,-14.907 11.906,-14.907c7.171,-0 11.78,5.601 11.78,14.618l-22.418,0l0,0.113c0,8.603 4.27,14.267 11.379,14.267c4.724,0.332 8.948,-3.106 9.582,-7.799Zm-20.86,-7.749l21.086,0c-0.289,-7.535 -4.333,-12.245 -10.512,-12.245c-6.179,0 -10.172,4.622 -10.574,12.257l-0,-0.012Z" style="fill:#fff;fill-rule:nonzero;"/><path d="M1330.25,383.034l-0,1.269l-1.043,-0c-5.664,-0 -9.243,4.508 -9.243,11.73l-0,16.527l-1.256,0l-0,-28.885l1.256,-0l-0,6.179c1.141,-4.142 5.012,-6.98 9.306,-6.82l0.98,0Z" style="fill:#fff;fill-rule:nonzero;"/><path d="M1356.01,383.676l-11.303,28.886l-1.62,-0l-11.202,-28.886l1.331,0l10.751,27.63l10.75,-27.63l1.293,0Z" style="fill:#fff;fill-rule:nonzero;"/><path d="M1360.13,374.257c-0,-0.713 0.586,-1.3 1.299,-1.3c0.714,0 1.3,0.587 1.3,1.3c0.002,0.026 0.003,0.052 0.003,0.078c-0,0.661 -0.523,1.215 -1.183,1.253l-0.076,0c-0.03,0.003 -0.06,0.004 -0.09,0.004c-0.657,-0 -1.209,-0.516 -1.253,-1.172l-0,-0.163Zm0.69,38.255l0,-28.886l1.256,0l0,28.886l-1.256,-0Z" style="fill:#fff;fill-rule:nonzero;"/><path d="M1391.6,392.568l-1.092,0.176c-0.176,-4.969 -4.386,-8.925 -9.356,-8.791c-6.28,-0 -10.337,5.375 -10.337,13.978c0,8.603 3.982,13.815 10.399,13.815c4.884,0.211 9.078,-3.631 9.294,-8.515l-0,-0.377l1.155,0.176c-0.02,5.435 -4.498,9.896 -9.934,9.896c-0.012,0 -0.025,-0 -0.038,-0l-0.489,-0c-7.171,-0 -11.668,-5.714 -11.668,-14.907c0,-9.193 4.559,-15.134 11.505,-15.134c5.531,-0.178 10.259,4.156 10.561,9.683Z" style="fill:#fff;fill-rule:nonzero;"/><path d="M1418.06,404.01l1.256,0.176c-1.042,6.066 -5.664,8.791 -10.926,8.791c-7.623,-0 -12.559,-5.84 -12.559,-15.259c0,-9.419 4.735,-14.907 11.906,-14.907c7.171,-0 11.78,5.601 11.78,14.618l-22.417,0l-0,0.113c-0,8.603 4.27,14.267 11.378,14.267c4.724,0.332 8.949,-3.106 9.582,-7.799Zm-20.91,-7.749l21.086,0c-0.289,-7.535 -4.333,-12.245 -10.512,-12.245c-6.179,0 -10.172,4.622 -10.587,12.257l0.013,-0.012Z" style="fill:#fff;fill-rule:nonzero;"/><path d="M0,296.642l5.275,-0.753c3.516,32.15 24.364,50.235 57.519,50.235c29.137,0 47.473,-14.066 47.473,-39.435c0,-60.785 -104.992,-32.653 -104.992,-93.689c-0,-28.886 23.61,-43.203 51.742,-43.203c31.398,0 51.241,18.085 56.264,47.222l-5.023,1.004c-4.773,-27.378 -22.606,-43.202 -50.236,-43.202c-26.122,-0 -47.221,13.815 -47.221,38.179c-0,54.506 104.992,28.383 104.992,93.689c-0,29.137 -21.099,44.459 -53.25,44.459c-37.174,-0 -59.027,-20.597 -62.543,-54.506Z" style="fill:#fff;fill-rule:nonzero;"/><path d="M236.107,223.55l0,173.312l-5.274,0l-0,-80.879c-7.285,21.852 -23.36,34.914 -44.961,34.914c-30.142,-0 -48.98,-25.369 -48.98,-65.558c-0,-40.188 18.838,-65.306 48.98,-65.306c21.852,-0 37.928,13.061 45.212,35.416l-0.251,-31.899l5.274,-0Zm-5.274,61.789c-0,-37.174 -17.332,-60.282 -44.459,-60.282c-26.876,-0 -43.956,23.108 -43.956,60.282c-0,37.175 17.08,60.534 43.956,60.534c27.127,0 44.459,-23.359 44.459,-60.534Z" style="fill:#fff;fill-rule:nonzero;"/><path d="M360.177,223.55l-0,125.588l-5.275,0l0.251,-25.117c-5.777,17.08 -20.094,27.127 -39.937,27.127c-25.369,-0 -41.193,-17.582 -41.193,-46.217l-0,-81.381l5.526,-0l-0,82.637c-0,24.616 14.066,39.937 36.672,39.937c23.61,0 38.43,-17.08 38.43,-44.458l-0,-78.116l5.526,-0Z" style="fill:#fff;fill-rule:nonzero;"/><path d="M399.611,182.859c-0,-3.101 2.551,-5.652 5.651,-5.652c3.101,0 5.652,2.551 5.652,5.652c0.163,2.996 -2.166,5.597 -5.162,5.764l-0.364,0c-3.035,0.134 -5.642,-2.253 -5.777,-5.287c-0.012,-0.159 -0.012,-0.318 -0,-0.477Zm3.014,166.279l-0,-125.588l5.275,-0l-0,125.588l-5.275,0Z" style="fill:#fff;fill-rule:nonzero;"/><path d="M539.518,165.779l-0,183.359l-5.275,0l0,-33.155c-7.284,21.852 -23.359,34.914 -44.961,34.914c-30.141,-0 -48.98,-25.369 -48.98,-65.558c0,-40.188 18.839,-65.306 48.98,-65.306c21.602,-0 37.677,12.81 44.961,34.914l0,-89.168l5.275,-0Zm-5.275,119.56c0,-37.174 -17.331,-60.282 -44.458,-60.282c-26.877,-0 -43.956,23.108 -43.956,60.282c-0,37.175 17.079,60.534 43.956,60.534c27.127,0 44.458,-23.359 44.458,-60.534Z" style="fill-rule:nonzero;"/><path d="M837.929,178.023l0,83.705l77.615,0l-0,4.773l-77.615,0l0,82.324l-5.526,-0l0,-175.825l92.434,-0l0,5.023l-86.908,0Z" style="fill-rule:nonzero;"/><path d="M1015.93,234.912c5.935,7.678 9.131,17.998 9.131,30.333l0,83.58l-5.275,-0l0,-21.351c-3.197,7.105 -8.906,12.759 -16.128,16.75c-0.106,-1.895 -0.18,-3.717 -0.22,-5.452c10.186,-6.796 16.097,-18 16.097,-32.334l0,-10.047c-3.411,-2.643 -7.371,-4.91 -11.695,-6.752c0.241,-1.71 0.487,-3.426 0.737,-5.146c4.008,1.551 7.708,3.416 10.958,5.556l0,-24.867c0,-8.407 -1.665,-15.753 -4.783,-21.793c0.426,-2.949 0.822,-5.785 1.178,-8.477Z" style="fill:#fff;"/><path d="M1014.75,243.389c-6.102,-11.824 -17.768,-18.646 -33.396,-18.646c-20.345,-0 -33.658,11.051 -36.169,29.638l-5.526,-0.753c2.511,-21.099 18.336,-33.909 41.695,-33.909c15.265,0.035 27.095,5.517 34.574,15.193c-0.356,2.692 -0.752,5.528 -1.178,8.477Z"/><path d="M1003.66,344.224c-8.096,4.475 -18.093,6.861 -28.581,6.861c-25.118,0 -40.44,-13.312 -40.44,-34.662c0,-22.606 17.331,-37.175 44.961,-37.175c10.143,0 20.286,1.883 28.979,5.245c-0.25,1.72 -0.496,3.436 -0.737,5.146c-8.414,-3.583 -18.202,-5.556 -27.991,-5.556c-24.364,0 -39.686,12.308 -39.686,32.151c-0,18.336 13.312,29.89 36.17,29.89c10.754,0 19.976,-2.597 27.105,-7.352c0.04,1.735 0.114,3.557 0.22,5.452Z"/><path d="M1150.4,261.98l-4.772,0.753c-2.01,-22.355 -18.085,-37.928 -40.691,-37.928c-27.378,0 -44.961,23.36 -44.961,60.785c-0,36.924 17.331,59.781 45.212,59.781c22.355,-0 38.933,-14.568 40.44,-38.682l5.023,0.754c-1.507,26.374 -19.843,42.951 -45.463,42.951c-31.146,0 -50.738,-24.866 -50.738,-64.804c0,-40.439 19.843,-65.808 49.984,-65.808c24.867,-0 43.705,16.829 45.966,42.198Z" style="fill:#fff;fill-rule:nonzero;"/><path d="M1222.47,343.799l0,5.024l-18.336,0c-14.066,0 -22.857,-10.549 -22.857,-27.378l0,-93.187l-19.579,-0l-0,-5.024l19.591,-0l0,-26.374l5.527,0l-0,26.374l33.657,-0l0,5.024l-33.657,-0l-0,92.684c-0,14.066 7.284,22.857 19.089,22.857l16.565,0Z" style="fill:#fff;fill-rule:nonzero;"/><path d="M1238.55,285.339c0,-40.188 20.346,-65.557 52.999,-65.557c32.653,-0 52.998,25.369 52.998,65.557c0,40.189 -20.345,65.558 -52.998,65.558c-32.653,-0 -52.999,-25.369 -52.999,-65.558Zm100.472,0c-0,-37.174 -18.085,-60.534 -47.473,-60.534c-29.137,0 -47.473,23.36 -47.473,60.534c0,37.175 18.336,60.534 47.473,60.534c29.388,0 47.473,-23.359 47.473,-60.534Z" style="fill:#fff;fill-rule:nonzero;"/><path d="M1426.93,220.472l0,5.589l-4.521,0c-24.616,0 -40.189,19.592 -40.189,50.989l0,71.775l-5.275,-0l0,-125.59l5.275,0l-0.251,26.877c6.028,-18.588 20.345,-29.64 40.44,-29.64l4.521,0Z" style="fill:#fff;fill-rule:nonzero;"/></g><g><g id="squid"><path d="M628.971,327.391c-22.191,-2.11 -32.942,-18.952 -33.381,-33.771c-0.591,-19.818 10.851,-31.8 35.504,-36.949c0.603,-9.142 1.08,-18.411 1.846,-27.629c3.856,-46.669 11.881,-92.534 27.63,-136.792c10.047,-28.295 23.786,-54.669 42.813,-78.079c1.03,-1.255 2.022,-2.511 3.139,-3.767c4.685,-4.873 8.578,-4.773 12.961,0.414c21.011,24.98 35.416,53.602 46.129,84.245c13.815,39.573 20.911,80.503 24.804,122.085c1.13,12.057 1.846,24.151 2.638,36.233c0.163,2.512 0.74,3.868 3.604,4.433c18.047,3.617 29.413,16.842 29.563,34.035c0.151,17.193 -10.951,30.681 -28.759,34.838c-0.716,0.163 -1.407,0.402 -2.073,0.59c-2.022,12.333 5.664,21.715 18.613,22.996c11.88,1.168 23.183,-1.369 34.336,-5.086c13.161,-4.396 26.248,-9.043 39.522,-13.087c42.5,-12.961 74.814,8.628 92.082,42.424c7.071,13.815 5.388,27.818 -3.24,40.804c-13.425,20.207 -35.855,29.966 -58.072,25.294c-0.578,-0.126 -1.156,-0.239 -1.733,-0.377c-6.28,-1.633 -11.165,-6.116 -10.977,-10.11c0.214,-4.27 6.795,-10.65 12.157,-11.479c6.418,-0.992 12.886,-1.608 19.303,-2.637c2.907,-0.459 5.75,-1.264 8.465,-2.399c9.042,-3.843 12.421,-10.047 10.989,-19.793c-3.767,-25.382 -30.367,-43.956 -55.259,-37.865c-9.805,2.17 -19.343,5.404 -28.446,9.645c-30.807,15.171 -59.994,11.492 -88.49,-5.764c-1.796,-1.295 -3.695,-2.441 -5.677,-3.429c-1.369,-0.54 -3.554,-0.791 -4.521,0c-0.967,0.791 -1.005,2.977 -0.653,4.345c1.948,8.481 7.357,15.771 14.907,20.095c10.638,5.978 21.765,11.127 32.754,16.477c3.969,1.934 8.264,3.19 12.245,5.112c27.278,13.174 38.418,36.822 36.27,66.059c-1.155,15.737 -3.491,31.398 -5.187,47.084c-0.351,3.215 -0.125,6.493 -0.314,9.733c-0.515,8.703 3.529,14.631 11.052,18.549c5.401,2.801 10.688,5.689 13.677,11.467c2.361,4.571 1.859,7.309 -2.336,10.197c-9.871,6.82 -23.648,5.288 -32.653,-4.207c-9.731,-10.224 -15.143,-23.825 -15.096,-37.94c-0.138,-10.047 1.394,-20.295 2.813,-30.355c2.173,-15.447 3.768,-30.795 -0.967,-46.079c-4.069,-13.048 -11.893,-21.953 -25.633,-25.582c-14.744,-3.881 -26.373,-13.011 -36.421,-24.113c-10.524,-11.592 -20.835,-23.372 -31.234,-35.065c-0.954,-1.313 -2.058,-2.509 -3.29,-3.567c-1.452,-0.797 -2.99,-1.429 -4.584,-1.883c-0.49,1.582 -1.532,3.215 -1.369,4.722c1.526,14.174 6.498,27.762 14.48,39.573c6.443,9.695 13.514,19.014 20.873,28.031c7.197,8.792 13.313,18.173 16.327,29.15c7.121,25.758 7.937,51.604 -0.552,77.249c-4.522,13.652 -13.338,23.624 -27.253,28.208c-3.683,0.978 -7.505,1.326 -11.303,1.029c-0.04,0.001 -0.08,0.002 -0.12,0.002c-2.839,-0 -5.175,-2.336 -5.175,-5.174c0,-0.257 0.02,-0.514 0.058,-0.768c0.301,-3.453 0.653,-7.397 2.511,-10.16c9.532,-14.493 13.539,-30.807 15.511,-47.561c1.049,-9.963 1.082,-20.007 0.1,-29.978c-1.168,-13.35 -7.096,-24.803 -16.653,-34.373c-9.118,-9.118 -17.407,-18.977 -23.309,-30.518c-3.153,-6.154 -5.376,-12.773 -8.264,-19.065c-0.678,-1.494 -2.361,-2.512 -3.592,-3.768c-1.005,1.256 -2.512,2.437 -2.939,3.894c-5.251,17.061 -14.771,32.504 -27.655,44.86c-17.306,16.452 -23.422,36.685 -21.764,59.818c1.444,20.094 5.765,39.41 16.804,56.704c0.32,0.498 0.598,1.023 0.829,1.57c1.77,4.232 2.963,8.791 -0.176,12.558c-2.964,3.592 -7.46,3.04 -11.554,1.985c-13.463,-3.466 -23.963,-11.442 -28.522,-24.377c-14.216,-40.314 -12.483,-78.883 15.561,-113.608c3.767,-4.71 7.736,-9.319 11.466,-14.078c11.534,-14.716 19.126,-32.134 22.054,-50.6c0.263,-1.595 -0.716,-3.404 -1.106,-5.124c-1.745,0.665 -4.018,0.854 -5.174,2.084c-11.303,12.12 -22.606,24.189 -33.382,36.71c-10.587,12.295 -23.095,21.149 -38.656,26.185c-16.615,5.375 -26.374,17.432 -26.524,34.889c-0.151,15.272 1.582,30.631 3.391,45.84c1.959,16.515 1.092,32.415 -6.28,47.586c-6.995,14.442 -18.913,21.551 -32.577,18.763c-3.698,-0.878 -7.082,-2.765 -9.771,-5.451c-1.419,-1.419 -1.872,-5.865 -0.704,-7.422c2.905,-4.181 6.605,-7.749 10.889,-10.499c12.345,-7.172 15.699,-12.409 14.179,-26.512c-1.256,-11.881 -3.341,-23.686 -4.559,-35.58c-0.879,-8.64 -1.771,-17.419 -1.256,-26.034c1.846,-27.63 15.586,-46.971 41.445,-57.621c11.855,-4.885 23.548,-10.21 35.102,-15.773c9.946,-4.785 16.05,-13.275 19.981,-23.335c0.578,-1.494 -0.176,-3.504 -0.301,-5.275c-1.646,0.214 -3.492,0 -4.898,0.691c-9.834,4.747 -19.341,10.236 -29.388,14.43c-16.327,6.832 -33.106,6.493 -49.721,0.44c-12.207,-4.446 -24.226,-9.444 -36.572,-13.426c-28.345,-9.13 -55.372,5.777 -61.865,33.671c-2.938,12.647 1.256,20.094 13.815,23.183c7.599,1.819 15.311,3.132 23.083,3.931c6.594,0.704 10.537,4.358 13.011,9.859c0.642,1.901 0.363,3.997 -0.753,5.664c-1.917,2.424 -4.408,4.332 -7.247,5.551c-27.818,10.047 -64.954,-12.496 -69.162,-41.833c-1.232,-7.503 -0.136,-15.206 3.14,-22.066c11.994,-24.314 29.752,-41.734 57.708,-46.104c13.564,-2.11 26.776,-0 39.737,4.132c15.887,5.023 31.623,10.662 47.724,14.982c7.083,1.897 14.932,2.022 22.317,1.483c12.659,-0.917 18.964,-9.746 17.18,-22.694Z" style="fill:#202020;fill-rule:nonzero;"/><path d="M803.791,266.642c-9.633,-6.104 -23.862,-3.768 -32.653,4.961c-9.323,9.423 -11.175,24.041 -4.496,35.492c6.829,11.365 20.617,16.678 33.306,12.835c11.19,-3.529 20.094,-14.443 19.379,-24.151c-6.519,6.041 -13.815,7.711 -21.564,3.378c-5.818,-3.022 -9.248,-9.295 -8.653,-15.824c0.465,-8.879 5.739,-14.141 14.681,-16.691Z" style="fill-rule:nonzero;"/><path d="M658.447,294.447c-6.481,6.644 -13.401,9.156 -21.627,5.388c-6.186,-2.608 -10.118,-8.828 -9.821,-15.535c0,-9.783 5.84,-15.196 15.071,-17.696c-7.083,-5.663 -22.129,-3.692 -30.242,3.354c-10.372,8.783 -13.329,23.69 -7.096,35.767c6.068,11.609 19.31,17.707 32.076,14.77c12.521,-3.19 21.84,-13.991 21.639,-26.048Z" style="fill-rule:nonzero;"/><path d="M770.31,216.256l-0.414,-0c-0.641,-11.944 -0.603,-23.962 -2.022,-35.806c-5.124,-42.788 -17.181,-83.466 -38.38,-121.206c-1.256,-2.323 -2.235,-6.279 -5.827,-4.332c-3.592,1.946 -0.377,4.709 0.703,6.693c16,29.162 27.002,60.132 31.598,93.012c2.876,20.559 3.768,41.444 5.225,62.154c0.653,8.979 0.64,18.009 0.954,27.001c0.022,0.884 0.107,1.766 0.251,2.638c0.452,2.512 1.646,5.023 4.484,4.194c1.799,-0.92 3.035,-2.669 3.303,-4.671c0.289,-9.884 0.125,-19.781 0.125,-29.677Z" style="fill-rule:nonzero;"/><path d="M613.385,84.802c0.503,-5.652 2.249,-10.047 6.368,-13.275c14.752,-11.311 29.526,-22.589 44.32,-33.834c2.512,-1.934 5.212,-2.888 8.101,-0.741c2.888,2.148 3.102,5.175 1.783,8.327c-8.615,20.538 -17.239,41.051 -25.871,61.538c-1.621,3.856 -4.396,5.401 -8.49,4.296c-11.208,-2.788 -20.466,-10.709 -24.955,-21.35c-0.584,-1.608 -1.005,-3.27 -1.256,-4.961Z" style="fill:#202020;fill-rule:nonzero;"/><path d="M812.572,83.282c-0.251,1.749 -0.671,3.47 -1.256,5.137c-4.949,10.976 -12.559,19.177 -24.377,22.87c-5.388,1.682 -8.013,0.452 -10.148,-4.723c-8.113,-19.633 -16.197,-39.284 -24.251,-58.951c-1.319,-3.215 -1.897,-6.367 1.143,-8.879c3.039,-2.512 6.279,-1.482 8.979,0.515c10.048,7.296 19.969,14.694 29.903,22.116c4.722,3.529 9.708,6.832 13.915,10.914c2.901,2.813 4.672,6.781 6.945,10.235l-0.853,0.766Z" style="fill:#202020;fill-rule:nonzero;"/><path d="M803.791,266.642c-8.942,2.512 -14.216,7.812 -14.681,16.729c-0.595,6.529 2.835,12.802 8.653,15.824c7.812,4.333 15.071,2.65 21.564,-3.378c0.703,9.707 -8.189,20.621 -19.379,24.15c-12.695,3.831 -26.477,-1.499 -33.294,-12.872c-6.678,-11.451 -4.826,-26.069 4.497,-35.492c8.803,-8.678 23.007,-11.052 32.64,-4.961Z" style="fill:#fff;fill-rule:nonzero;"/><path d="M658.447,294.447c0.201,12.057 -9.118,22.858 -21.702,25.997c-12.766,2.937 -26.007,-3.16 -32.075,-14.769c-6.234,-12.077 -3.277,-26.984 7.095,-35.767c8.113,-7.046 23.146,-9.018 30.242,-3.354c-9.168,2.512 -14.97,7.912 -15.07,17.696c-0.309,6.74 3.655,12.99 9.883,15.585c8.226,3.768 15.146,1.256 21.627,-5.388Z" style="fill:#fff;fill-rule:nonzero;"/><path d="M770.31,216.256c0,9.896 0.151,19.793 -0.15,29.677c-0.266,2 -1.497,3.748 -3.291,4.671c-2.825,0.829 -4.031,-1.645 -4.483,-4.194c-0.145,-0.872 -0.229,-1.754 -0.252,-2.638c-0.301,-9.004 -0.301,-18.034 -0.954,-27.001c-1.494,-20.747 -2.348,-41.595 -5.224,-62.154c-4.609,-32.88 -15.599,-63.85 -31.599,-93.012c-1.092,-1.984 -4.383,-4.759 -0.703,-6.693c3.68,-1.935 4.534,2.021 5.827,4.332c21.2,37.74 33.256,78.418 38.38,121.206c1.42,11.844 1.394,23.862 2.023,35.806l0.426,-0Z" style="fill:#fff;fill-rule:nonzero;"/></g></g></svg>