<?xml version="1.0" encoding="utf-8"?>
<!-- Generator: Adobe Illustrator 22.0.0, SVG Export Plug-In . SVG Version: 6.00 Build 0)  -->
<svg preserveAspectRatio="none" version="1.1" id="over" xmlns="http://www.w3.org/2000/svg" xmlns:xlink="http://www.w3.org/1999/xlink" x="0px" y="0px"
	 viewBox="0 0 1024 768" style="enable-background:new 0 0 1024 768;" xml:space="preserve">
<style type="text/css">
	.st0{opacity:0.4;}
	.st1{fill-rule:evenodd;clip-rule:evenodd;fill:url(#SVGID_1_);}
	.st2{opacity:0.4;fill:url(#SVGID_2_);}
	.st3{opacity:0.4;fill:url(#SVGID_3_);}
</style>
<g class="st0">
	<linearGradient id="SVGID_1_" gradientUnits="userSpaceOnUse" x1="511.3596" y1="35.7143" x2="511.3596" y2="759.8828">
		<stop  offset="0" style="stop-color:#48D8FF"/>
		<stop  offset="0.2059" style="stop-color:#48D2FF"/>
		<stop  offset="0.4797" style="stop-color:#47C1FE"/>
		<stop  offset="0.7902" style="stop-color:#45A6FD"/>
		<stop  offset="1" style="stop-color:#448FFC"/>
	</linearGradient>
	<path class="st1" d="M31.5,52.3c64.7-45.9,85.1,18.2,164.3,18.2c79.3,0,79.3-20,158.5-20c79.3,0,79.3,20,158.6,20
		c79.3,0,79.3-20,158.6-20c79.3,0,79.3,20,158.6,20s99.7-64,164.3-18.2c45.9,32.5-15.8,64.4-15.8,120.6c0,56.2,20,56.2,20,112.5
		c0,56.2-20,56.2-20,112.5c0,56.2,20,56.2,20,112.5c0,56.2-20,56.2-20,112.5c0,56.2,61.7,88.1,15.8,120.6
		c-64.7,45.9-85.1-18.2-164.3-18.2c-79.3,0-79.3,20-158.5,20c-79.3,0-79.3-20-158.6-20c-79.3,0-79.3,20-158.6,20
		c-79.3,0-79.3-20-158.6-20s-99.7,64-164.3,18.2c-45.9-32.5,15.8-64.4,15.8-120.6c0-56.2-20-56.2-20-112.5c0-56.2,20-56.2,20-112.5
		c0-56.2-20-56.2-20-112.5c0-56.2,33.7-60.5,19.7-115C30.6,106.8-14.4,84.8,31.5,52.3z"/>
</g>
<linearGradient id="SVGID_2_" gradientUnits="userSpaceOnUse" x1="515.3859" y1="8" x2="515.3859" y2="741.0648">
	<stop  offset="0" style="stop-color:#48D8FF"/>
	<stop  offset="0.2059" style="stop-color:#48D2FF"/>
	<stop  offset="0.4797" style="stop-color:#47C1FE"/>
	<stop  offset="0.7902" style="stop-color:#45A6FD"/>
	<stop  offset="1" style="stop-color:#448FFC"/>
</linearGradient>
<path class="st2" d="M42.5,19.8c67.4-45.6,90.6,55.3,170,55.3c79.4,0,84.6-51,164-51c79.4,0,85.6,54.2,165,54.2
	c79.4,0,105.6-42.3,185-42.3c79.4,0,59.6,35.8,139,35.8s54.6-93.3,122-47.7c42,28.4-24,92.7-24,146.4c0,53.7,47,66.7,47,120.4
	c0,53.7-41,49.3-41,103c0,53.7,41,67.8,41,121.5c0,53.7-47,48.2-47,101.9c0,53.7,84,73.5,42,101.9c-67.4,45.6-126.6-52.1-206-52.1
	c-79.4,0-53.6,73.8-133,73.8c-79.4,0-103.6-84.6-183-84.6c-79.4,0-102.6,84.6-182,84.6c-79.4,0-42.6-74.8-122-74.8
	S97.9,772.5,30.5,727c-42-28.4,35-91.6,35-145.3c0-53.7-52-51.5-52-105.2c0-53.7,55-52.6,55-106.3c0-53.7-55-81.9-55-135.6
	c0-53.7,53.6-56.5,41-108.5C39.6,64.4,0.5,48.3,42.5,19.8z"/>
<linearGradient id="SVGID_3_" gradientUnits="userSpaceOnUse" x1="513" y1="50.6881" x2="513" y2="758.838">
	<stop  offset="0" style="stop-color:#48D8FF"/>
	<stop  offset="0.2059" style="stop-color:#48D2FF"/>
	<stop  offset="0.4797" style="stop-color:#47C1FE"/>
	<stop  offset="0.7902" style="stop-color:#45A6FD"/>
	<stop  offset="1" style="stop-color:#448FFC"/>
</linearGradient>
<path class="st3" d="M48.1,77.3c64.9-44,70.8,11.9,147.4,11.9c76.6,0,86.4-38,163-38c76.6,0,45.4,61.8,122,61.8
	c76.6,0,85.4-61.8,162-61.8c76.6,0,96.4,64,173,64s94.1-97.1,159-53.1c40.6,27.5-27,75-27,126.9c0,51.9,45,51.2,45,103
	c0,51.9-62,57.7-62,109.5c0,51.9,62,49,62,100.9c0,51.9-53,54.4-53,106.3c0,51.9,57.6,92.9,17,120.4c-64.9,44-61.4-53.1-138-53.1
	c-76.6,0-45.4,67.2-122,67.2c-76.6,0-91.4-60.7-168-60.7c-76.6,0-87.4,55.3-164,55.3c-76.6,0-71.4-19.5-148-19.5s-89.1,70-154,26
	c-40.6-27.5,19-73.9,19-125.8c0-51.9-48-45.7-48-97.6c0-51.9,41-41.4,41-93.3c0-51.9-41-70.7-41-122.6c0-51.9,57.2-75.6,45-125.8
	C64,119.5,7.6,104.8,48.1,77.3z"/>
</svg>
