<?xml version="1.0" encoding="utf-8"?>
<!-- Generator: Adobe Illustrator 22.0.0, SVG Export Plug-In . SVG Version: 6.00 Build 0)  -->
<svg preserveAspectRatio="none" version="1.1" xmlns="http://www.w3.org/2000/svg" xmlns:xlink="http://www.w3.org/1999/xlink" x="0px" y="0px"
	 viewBox="0 0 1366 761.1" style="enable-background:new 0 0 1366 761.1;" xml:space="preserve">
<style type="text/css">
	.st0{display:none;}
	.st1{display:inline;opacity:0.5;fill:url(#SVGID_1_);}
	.st2{display:inline;opacity:0.5;fill:url(#SVGID_2_);}
	.st3{display:inline;opacity:0.5;fill:url(#SVGID_3_);}
	.st4{display:inline;opacity:0.5;fill:url(#SVGID_4_);}
	.st5{display:inline;opacity:0.5;fill:url(#SVGID_5_);}
	.st6{display:inline;opacity:0.5;fill:url(#SVGID_6_);}
	.st7{opacity:0.5;fill:url(#SVGID_7_);}
	.st8{opacity:0.5;fill:url(#SVGID_8_);}
	.st9{opacity:0.5;fill:url(#SVGID_9_);}
	.st10{opacity:0.5;fill:url(#SVGID_10_);}
</style>
<g id="Lager_3" class="st0">
	<linearGradient id="SVGID_1_" gradientUnits="userSpaceOnUse" x1="685.9376" y1="98.4134" x2="685.9376" y2="0">
		<stop  offset="0" style="stop-color:#48D8FF"/>
		<stop  offset="0.2059" style="stop-color:#48D2FF"/>
		<stop  offset="0.4797" style="stop-color:#47C1FE"/>
		<stop  offset="0.7902" style="stop-color:#45A6FD"/>
		<stop  offset="1" style="stop-color:#448FFC"/>
	</linearGradient>
	<path class="st1" d="M0,68c13.7,18.1,38.9,18.7,68,19c57.9,0.6,67.6-17.4,113-19c57.6-2,60.3,26.4,120,26
		c52.9-0.3,55.6-22.6,110-26c66.9-4.1,72.2,29,139,29c69.4,0,80.7-35.6,148-29c47.7,4.7,43.7,22.9,91,29c73.2,9.5,99.7-31.9,176-29
		c49.7,1.9,53.9,31,97,27c41.5-3.8,50.3-26.9,91-27c35.9-0.1,38.6,17.7,84,27c42.3,8.6,96-27,129-27s0-68,0-68H0
		C-2.1,4.8-18.7,43.4,0,68z"/>
	<linearGradient id="SVGID_2_" gradientUnits="userSpaceOnUse" x1="688.1111" y1="111.0063" x2="688.1111" y2="0">
		<stop  offset="0" style="stop-color:#48D8FF"/>
		<stop  offset="0.2059" style="stop-color:#48D2FF"/>
		<stop  offset="0.4797" style="stop-color:#47C1FE"/>
		<stop  offset="0.7902" style="stop-color:#45A6FD"/>
		<stop  offset="1" style="stop-color:#448FFC"/>
	</linearGradient>
	<path class="st2" d="M0,0c0,0-16,68,0,68c10.6,0,27.4,30,62,30c17.9,0,103-30,132-30s40.7,26.6,140,33c105.1,6.8,121.9-28.6,229-33
		c117.3-4.8,120,43.6,231,43c105.7-0.6,128.5-39.2,239-43c75.4-2.6,70.7,25.6,192,31c107.9,4.8,102-31,141-31s0-68,0-68H0z"/>
	<linearGradient id="SVGID_3_" gradientUnits="userSpaceOnUse" x1="682.1111" y1="119.0194" x2="682.1111" y2="0">
		<stop  offset="0" style="stop-color:#48D8FF"/>
		<stop  offset="0.2059" style="stop-color:#48D2FF"/>
		<stop  offset="0.4797" style="stop-color:#47C1FE"/>
		<stop  offset="0.7902" style="stop-color:#45A6FD"/>
		<stop  offset="1" style="stop-color:#448FFC"/>
	</linearGradient>
	<path class="st3" d="M0,68c44,0,103.5,40.1,137,39c91.4-3.1,99.2-34.9,174-39c92.7-5.1,99.1,42.6,198,43c93,0.4,100.1-41.9,191-39
		c91.4,2.9,95.4,45.9,181,47c101.1,1.3,111.4-58.6,206-51c69.5,5.6,81.6,39.3,166,39c26.6-0.1,73-38,113-39s0-68,0-68H0
		C0,0-44,68,0,68z"/>
</g>
<g id="menu_background" class="st0">
	<linearGradient id="SVGID_4_" gradientUnits="userSpaceOnUse" x1="682.1111" y1="119.942" x2="682.1111" y2="-9.094947e-13">
		<stop  offset="0" style="stop-color:#48D8FF"/>
		<stop  offset="1" style="stop-color:#448FFC"/>
	</linearGradient>
	<path class="st4" d="M0,66c18,0,22.3,21.4,45,26.7c57.1,13.2,99-36.6,172-30c52.6,4.8,59.8,33.2,107,30.7c46.5-2.5,54-30.8,93-30.7
		c51.8,0.2,59.3,50.2,115,56.7c63.2,7.3,94.7-52.3,165-46.7c54.4,4.4,54.4,41.5,110,46.7c70.3,6.5,103.3-49.9,175-41.3
		c45.1,5.4,51.2,30,89,27.3c45.1-3.2,52.5-39.4,99-42c30.8-1.7,40.8,13.5,81,20c43.4,7,101-12.7,115-12c14,0.7,0-71.3,0-71.3H0
		C0,0-18,66,0,66z"/>
	<linearGradient id="SVGID_5_" gradientUnits="userSpaceOnUse" x1="675" y1="121" x2="675" y2="-9.094947e-13">
		<stop  offset="0" style="stop-color:#48D8FF"/>
		<stop  offset="1" style="stop-color:#448FFC"/>
	</linearGradient>
	<path class="st5" d="M0,65.5C51,65,75.1,90.7,98,90.9c54.6,0.5,72.8-22.1,131-17.4c34.4,2.8,42.5,11.9,74,9.4
		c35.1-2.8,42-15.4,69-19.4c49.3-7.2,69.7,28.5,130,40.1c89.8,17.3,133-45.1,228-30.1c68.9,10.9,69.8,47.4,128,47.5
		c69.6,0,96.9-52.4,162-45.5c40.7,4.3,43.9,26.3,81,25.4c48.7-1.1,62.4-39.4,109-38.1c29.2,0.8,34.2,16.1,71,20.7
		c33.3,4.2,70-12.5,85-12s0-71.5,0-71.5H0C0,0-51,66,0,65.5z"/>
	<linearGradient id="SVGID_6_" gradientUnits="userSpaceOnUse" x1="680.7778" y1="118.2583" x2="680.7778" y2="-9.094947e-13">
		<stop  offset="0" style="stop-color:#48D8FF"/>
		<stop  offset="1" style="stop-color:#448FFC"/>
	</linearGradient>
	<path class="st6" d="M0,0c0,0-23,72,0,72s113.5,22.9,193,19.3c102.2-4.6,108-18.1,179-15.7c89.1,3,90.3,24.6,175,26.7
		c95.5,2.4,109.7-24.6,191-15.7c76.4,8.4,76.8,33.8,135,31.3c62.3-2.6,81.9-32.5,156-31.3c34.7,0.6,33,7.1,66,5.9
		c48.5-1.9,69.2-16.8,118-17c20.9-0.1,16.9,2.9,51,5.2c45.1,3.1,89-8.9,102-8.9s0-72,0-72H0"/>
</g>
<g id="target_background">
	<linearGradient id="SVGID_7_" gradientUnits="userSpaceOnUse" x1="683" y1="391.6111" x2="683" y2="-9.094947e-13">
		<stop  offset="0" style="stop-color:#48D8FF"/>
		<stop  offset="1" style="stop-color:#448FFC"/>
	</linearGradient>
	<path class="st7" d="M0,60V0h1366v60c0,0-37,27.5-61,48.2s-124,10.7-166,42.6s-125,30.3-157,52.2c-15.1,10.3-29.7,93.1-81,103.8
		c-50.2,10.5-58.5,18.1-85,49.4c-31.2,36.9-92,35.3-92,35.3s-87,1.7-114-23.6s-31-111.6-87-109.4c-56,2.2-170,3.4-187-14
		s24-79.7-45-89.2c-69-9.5-147-24.7-161-36.5S93,72.4,57,70.1S0,60,0,60z"/>
	<linearGradient id="SVGID_8_" gradientUnits="userSpaceOnUse" x1="683" y1="391.6111" x2="683" y2="-9.094947e-13">
		<stop  offset="0" style="stop-color:#48D8FF"/>
		<stop  offset="1" style="stop-color:#448FFC"/>
	</linearGradient>
	<path class="st8" d="M0,60V0h1366v60c0,0-69,7.9-93,28.6s-61,28.1-103,60s-132,20.8-164,42.6c-15.1,10.3-15,84.7-66,95.9
		c-51,11.2-145.3,33.1-159,53.3c-26,38.1-57,51.1-57,51.1s-69,1.7-96-23.6s-35-96.5-91-94.3s-151-16.8-168-34.2s-9-74.6-78-84.2
		c-69-9.5-147-24.7-161-36.5S93,72.4,57,70.1S0,60,0,60z"/>
	<linearGradient id="SVGID_9_" gradientUnits="userSpaceOnUse" x1="683" y1="392" x2="683" y2="-9.094947e-13">
		<stop  offset="0" style="stop-color:#48D8FF"/>
		<stop  offset="1" style="stop-color:#448FFC"/>
	</linearGradient>
	<path class="st9" d="M0,60V0h1366v60c0,0-57,12.3-81,33.1s-94,19.1-136,51.1s-79,21.3-111,43.2c-15.1,10.3-33,72.4-84,83.6
		c-51,11.2-138.3,50-152,70.1c-26,38.1-78,50.5-78,50.5s-46,5-73-20.2s-63-84.7-119-82.5c-56,2.2-133-30.3-150-47.7
		s-49-55.5-118-65.1c-69-9.5-85-58.9-99-70.7S81,89.2,45,87S0,60,0,60z"/>
	<linearGradient id="SVGID_10_" gradientUnits="userSpaceOnUse" x1="683" y1="375.6328" x2="683" y2="0">
		<stop  offset="0" style="stop-color:#48D8FF"/>
		<stop  offset="1" style="stop-color:#448FFC"/>
	</linearGradient>
	<path class="st10" d="M0,60V0h1366v60c-45.1,11-79.6,22.1-103,30.3c-55.2,19.4-71.2,30.6-129,46.6c-23.3,6.4-31,7.4-56,15.1
		c-11.1,3.4-53.6,16.5-81,30.3c-53,26.7-26.9,44.5-75,78c-40.8,28.4-71.4,23.7-127,60c-21.2,13.9-35.4,26.7-44,35.3
		c-20.3,11.4-46.6,23.3-64,19.1c-13.2-3.2-15.8-14.4-18-20.8c-12.1-34.6-61.8-58.5-108-80.8c-67.8-32.6-92.8-14.3-159-45.4
		c-46-21.7-30.3-28.9-99-72.4c-53.8-34.1-80.8-51.1-128-60.6c-33.6-6.8-56.5-5.6-112-18C35.8,70.8,14.3,64.5,0,60z"/>
</g>
</svg>
