<?xml version="1.0" encoding="UTF-8" standalone="no"?><!DOCTYPE svg PUBLIC "-//W3C//DTD SVG 1.1//EN" "http://www.w3.org/Graphics/SVG/1.1/DTD/svg11.dtd"><svg width="100%" height="100%" viewBox="0 0 3334 3334" version="1.1" xmlns="http://www.w3.org/2000/svg" xmlns:xlink="http://www.w3.org/1999/xlink" xml:space="preserve" xmlns:serif="http://www.serif.com/" style="fill-rule:evenodd;clip-rule:evenodd;stroke-linejoin:round;stroke-miterlimit:2;"><path d="M2847.22,1666.67c0,-34.536 -7.273,-67.037 -10.172,-100.81l446.608,-431.824l-347.223,-601.4c0,0 -352.071,100.708 -592.329,169.441c-56.525,-39.775 -117.187,-73.327 -180.41,-102.827l-149.807,-599.247l-694.445,-0c0,-0 -89.28,357.157 -149.807,599.247c-63.222,29.5 -123.884,63.052 -180.41,102.827l-592.329,-169.441l-347.222,601.4c-0,0 267.809,258.942 446.608,431.824c-2.9,33.773 -10.173,66.274 -10.173,100.81c0,34.535 7.273,67.037 10.173,100.809l-446.608,431.824l347.222,601.4l592.329,-169.44c56.526,39.791 117.188,73.326 180.41,102.827l149.807,599.246l694.445,0l149.807,-599.246c63.223,-29.501 123.885,-63.036 180.41,-102.827l592.329,169.44l347.222,-601.4l-446.607,-431.824c2.899,-33.772 10.172,-66.274 10.172,-100.809Zm-1180.56,416.666c-230.12,0 -416.667,-186.547 -416.667,-416.666c-0,-230.12 186.547,-416.667 416.667,-416.667c230.119,0 416.666,186.547 416.666,416.667c0,230.119 -186.547,416.666 -416.666,416.666Z" style="fill:#fff;fill-rule:nonzero;"/></svg>