<?xml version="1.0" encoding="UTF-8" standalone="no"?><!DOCTYPE svg PUBLIC "-//W3C//DTD SVG 1.1//EN" "http://www.w3.org/Graphics/SVG/1.1/DTD/svg11.dtd"><svg width="100%" height="100%" viewBox="0 0 3471 2272" version="1.1" xmlns="http://www.w3.org/2000/svg" xmlns:xlink="http://www.w3.org/1999/xlink" xml:space="preserve" xmlns:serif="http://www.serif.com/" style="fill-rule:evenodd;clip-rule:evenodd;stroke-linejoin:round;stroke-miterlimit:2;"><rect x="512.5" y="977.083" width="242.083" height="539.167" style="fill:#fff;"/><rect x="212.5" y="735.417" width="242.083" height="781.25" style="fill:#fff;"/><path d="M1041.25,1408.33c0,-70.833 -57.5,-128.333 -128.333,-128.333c-70.834,0 -128.334,57.5 -128.334,128.333c0,70.834 57.5,128.334 128.334,128.334c70.833,-0 128.333,-57.5 128.333,-128.334" style="fill:#fff;fill-rule:nonzero;"/><path d="M1351.67,977.083l-0,312.917c-0,27.917 -11.25,41.667 -34.167,41.667c-22.917,-0 -34.583,-13.75 -34.583,-41.667l-0,-312.917l-241.25,0l-0,252.917c-0,89.167 20.833,158.75 62.916,208.75c53.75,64.167 125,93.333 212.917,93.333c87.917,0 159.167,-29.166 212.917,-93.333c41.666,-50 62.5,-119.583 62.5,-208.75l-0,-252.917l-241.25,0Z" style="fill:#fff;fill-rule:nonzero;"/><path d="M2102.5,1208.75l-19.167,0l-0.416,-0.417l-112.917,-189.583l0,190.417l-21.25,-0l-0,-231.667l18.75,-0l0.417,0.417l113.333,190.416l0,-190.833l21.25,-0l0,231.25Z" style="fill:#fff;fill-rule:nonzero;"/><path d="M2915,1208.75l-19.167,0l-0.416,-0.417l-112.917,-190l0,190.417l-21.25,0l0,-231.25l18.75,0l0.417,0.417l113.333,190.416l0,-190.833l21.25,0l0,231.25Z" style="fill:#fff;fill-rule:nonzero;"/><path d="M1855.42,1208.75l-122.084,0l0,-231.25l21.25,0l0,210.833l100.834,0l-0,20.417Z" style="fill:#fff;fill-rule:nonzero;"/><rect x="1880.42" y="977.5" width="21.25" height="231.25" style="fill:#fff;fill-rule:nonzero;"/><path d="M2388.33,1211.25c-45.833,0 -77.916,-33.333 -77.916,-80.833l-0,-75.834c-0,-47.916 32.083,-81.25 77.916,-81.25c45.834,0 77.917,33.334 77.917,81.25l0,75.834c0,47.5 -32.083,80.833 -77.917,80.833Zm0,-217.083c-33.75,-0 -56.666,23.75 -56.666,59.583l-0,77.5c-0,35.417 22.916,59.583 56.666,59.583c33.75,0 56.667,-23.75 56.667,-59.583l0,-77.083c0,-35.834 -22.917,-60 -56.667,-60Zm29.584,-30.417c-7.084,0 -12.917,-5.833 -12.917,-12.917c0,-7.083 5.833,-12.916 12.917,-12.916c7.083,-0 12.916,5.833 12.916,12.916c0,7.084 -5.833,12.5 -12.916,12.917Zm-59.167,0c-7.083,0 -12.917,-5.833 -12.917,-12.917c0,-7.083 5.834,-12.916 12.917,-12.916c7.083,-0 12.917,5.833 12.917,12.916c-0,7.084 -5.834,12.5 -12.917,12.917Z" style="fill:#fff;fill-rule:nonzero;"/><path d="M2530,1208.75l-21.667,0l0,-231.25l66.667,0c47.917,0 78.75,31.25 78.75,79.167l0,8.333c0,47.917 -30,77.5 -78.75,77.5l-45,0l0,66.25Zm-0.417,-87.083l44.584,-0c36.25,-0 58.333,-21.25 58.333,-57.084l0,-8.333c0,-37.083 -21.25,-58.333 -58.333,-58.333l-44.584,-0l0,123.75Z" style="fill:#fff;fill-rule:nonzero;"/><rect x="2690.83" y="977.5" width="21.25" height="231.25" style="fill:#fff;fill-rule:nonzero;"/><path d="M3034.58,1212.08c-45.833,0 -77.5,-33.333 -77.5,-80.833l0,-77.083c0,-47.5 32.084,-80.834 77.5,-80.834c45,0 76.667,32.5 77.917,78.75l0,1.25l-21.25,0l0,-0.833c-0.833,-35 -23.333,-58.333 -56.667,-58.333c-35.416,-0 -56.25,24.166 -56.25,65l0,72.916c0,35.417 22.5,59.584 56.25,59.584c33.75,-0 56.667,-23.75 56.667,-59.584l0,-12.083l-57.5,0l0,-19.167l78.75,0l0,30.834c0,47.083 -32.083,80.416 -77.917,80.416Z" style="fill:#fff;fill-rule:nonzero;"/><path d="M2306.25,1208.75l-25,0l-0.417,-0.417l-80.416,-107.5l-23.75,0l-0,107.5l-21.25,0l-0,-231.25l21.25,0l-0,103.75l24.166,0l68.75,-103.75l24.167,0l-75.417,114.167l87.917,117.5Z" style="fill:#fff;fill-rule:nonzero;"/><path d="M2090.42,1516.67l-19.167,-0l-0.417,-0.417l-112.916,-189.583l-0,190l-21.25,-0l-0,-231.25l18.75,-0l0.416,0.416l113.334,190.417l-0,-190.833l21.25,-0l-0,231.25Z" style="fill:#fff;fill-rule:nonzero;"/><path d="M2282.08,1516.67l-20.416,-0l-0.417,-0.834l-75.417,-230.833l22.5,0l0,0.833l63.334,197.084l63.75,-197.917l22.5,0l-0.417,1.25l-75.417,230.417Z" style="fill:#fff;fill-rule:nonzero;"/><path d="M1807.92,1519.17c-45.834,-0 -77.917,-33.334 -77.917,-80.834l-0,-153.333l21.25,0l0,153.75c0,35.417 22.917,59.583 56.667,59.583c33.75,0 56.666,-23.75 56.666,-59.583l0,-153.75l21.25,0l0,153.333c0,47.5 -32.083,80.834 -77.916,80.834Z" style="fill:#fff;fill-rule:nonzero;"/><rect x="2140.42" y="1285.42" width="21.25" height="231.25" style="fill:#fff;fill-rule:nonzero;"/><path d="M2687.92,1516.67l-25.834,-0l-0.416,-0.417l-55.417,-72.5l-42.917,-0l0,72.917l-21.25,-0l0,-231.25l67.5,-0c47.917,-0 77.917,29.166 77.917,76.25l0,8.333c0,37.917 -22.083,64.167 -59.167,70.417l59.584,76.25Zm-124.584,-93.75l44.584,-0c36.25,-0 58.333,-20 58.333,-53.334l0,-8.75c0,-35.416 -20.833,-54.583 -58.333,-54.583l-44.584,-0l0,116.667Z" style="fill:#fff;fill-rule:nonzero;"/><rect x="2905" y="1285.42" width="21.25" height="231.25" style="fill:#fff;fill-rule:nonzero;"/><path d="M2511.25,1516.67l-129.583,-0l-0,-231.25l126.666,-0l0,20.833l-105,-0l0,84.167l77.5,-0l0,19.166l-77.5,0l0,86.25l107.917,0l0,20.834Z" style="fill:#fff;fill-rule:nonzero;"/><path d="M2793.75,1391.67c-30.417,-7.5 -59.167,-14.584 -59.167,-47.084c0,-26.666 18.334,-42.5 51.25,-42.5c25,0 52.084,14.584 53.334,54.167l21.25,0c-1.25,-55 -38.75,-75 -73.75,-75c-45.834,0 -72.917,24.167 -72.917,63.333c-0,47.917 38.333,57.5 72.083,66.25c29.167,7.5 57.084,14.584 57.084,45c-0,32.917 -28.75,45 -55.417,45c-35.417,0 -56.25,-22.916 -56.25,-61.25l-0,-2.083l-20.833,0l-0,0.833c-0,49.584 30.416,81.667 77.083,81.667c46.667,0 77.083,-25.417 77.083,-65.417c0,-45.416 -35.833,-54.166 -70.833,-62.916Z" style="fill:#fff;fill-rule:nonzero;"/><path d="M3028.75,1516.67l-21.25,-0l0,-210.417l-61.667,-0l0,-20.833l142.5,-0l0,20.833l-59.583,-0l0,210.417Z" style="fill:#fff;fill-rule:nonzero;"/><path d="M3119.17,1285l58.333,125l58.333,-125l22.084,0l-70.834,145l0,86.667l-19.583,-0l0,-86.25l-70.417,-145l22.084,-0.417Z" style="fill:#fff;fill-rule:nonzero;"/></svg>