<?xml version="1.0" encoding="UTF-8" standalone="no"?><!DOCTYPE svg PUBLIC "-//W3C//DTD SVG 1.1//EN" "http://www.w3.org/Graphics/SVG/1.1/DTD/svg11.dtd"><svg width="100%" height="100%" viewBox="0 0 3334 3334" version="1.1" xmlns="http://www.w3.org/2000/svg" xmlnsXlink="http://www.w3.org/1999/xlink" xmlSpace="preserve" xmlnSerif="http://www.serif.com/" style="fill-rule:evenodd;clip-rule:evenodd;stroke-linejoin:round;stroke-miterlimit:2;"><g><g><circle cx="1851.49" cy="1486.76" r="68.109" style="fill:#fff;"/><circle cx="2240.68" cy="1008.87" r="90.248" style="fill:#fff;"/><circle cx="1459.14" cy="892.106" r="121.003" style="fill:#fff;"/><path d="M2722.96,494.212c-146.711,-183.558 -527.774,-494.212 -1025.45,-494.212c-332.762,-0 -649.408,139.119 -941.122,413.487c-0.5,0.477 -0.993,0.954 -1.47,1.446c-284.476,292.645 -247.306,562.975 -200.22,905.406c2.893,21.062 5.831,42.417 8.739,64.094c7.8,58.194 -43.132,147.965 -92.395,234.79c-74.025,130.449 -150.557,265.345 -57.055,329.062c159.781,108.895 187.543,323.231 214.413,530.613c6.385,49.247 12.985,100.171 21.231,149.68c14.231,85.417 86.302,126.934 220.329,126.934c59.593,-0 123.233,-7.362 184.827,-14.477c52.778,-6.093 102.633,-11.862 142.542,-11.862c22.308,-0 39.739,1.777 53.27,5.446c161.027,43.64 301.7,369.232 352.555,564.206c4.123,15.831 16.316,28.285 32.047,32.747c4.161,1.184 8.4,1.761 12.608,1.761c11.708,0 23.17,-4.461 31.87,-12.769l825.335,-787.657c12.777,-12.201 17.47,-30.609 12.1,-47.448c-72.878,-227.997 78.564,-450.518 212.213,-646.938c58.317,-85.702 113.395,-166.635 151.065,-246.368c173.758,-367.762 48.586,-840.174 -157.427,-1097.94Zm-1141.04,776.48l-30.74,-48.786c-22.792,6.354 -45.97,10.308 -69.17,11.823l-12.762,56.248c-4.585,20.193 -24.678,32.855 -44.871,28.262l-117.841,-26.754c-20.2,-4.593 -32.854,-24.678 -28.277,-44.871l12.769,-56.247c-20.277,-11.385 -39.47,-24.955 -57.286,-40.524l-48.778,30.731c-17.523,11.039 -40.686,5.785 -51.724,-11.738l-64.41,-102.241c-11.038,-17.532 -5.784,-40.686 11.739,-51.725l48.778,-30.731c-6.354,-22.793 -10.308,-45.97 -11.815,-69.171l-56.256,-12.77c-20.185,-4.584 -32.846,-24.677 -28.262,-44.87l26.755,-117.841c4.584,-20.201 24.677,-32.855 44.878,-28.27l56.247,12.769c11.377,-20.285 24.955,-39.477 40.524,-57.293l-30.731,-48.778c-11.039,-17.524 -5.785,-40.678 11.739,-51.717l102.24,-64.409c17.524,-11.047 40.678,-5.793 51.725,11.731l30.731,48.778c22.793,-6.346 45.971,-10.308 69.179,-11.816l12.762,-56.247c4.584,-20.193 24.669,-32.855 44.87,-28.262l117.834,26.746c20.2,4.593 32.854,24.686 28.269,44.871l-12.761,56.247c20.277,11.385 39.477,24.962 57.293,40.532l48.778,-30.732c17.524,-11.038 40.678,-5.784 51.732,11.739l64.402,102.241c11.054,17.524 5.785,40.686 -11.731,51.724l-48.778,30.732c6.338,22.793 10.3,45.97 11.815,69.178l56.24,12.762c20.193,4.585 32.855,24.678 28.27,44.871l-26.754,117.841c-4.6,20.2 -24.678,32.855 -44.871,28.27l-56.247,-12.77c-11.377,20.278 -24.955,39.478 -40.532,57.294l30.732,48.786c11.046,17.516 5.777,40.678 -11.739,51.716l-102.241,64.41c-17.547,11.038 -40.693,5.777 -51.724,-11.739Zm493.588,213.036l-31.347,8.415c-0.346,13.085 -2.077,26.209 -5.138,39.163l28.108,16.216c10.093,5.823 13.562,18.731 7.739,28.839l-33.993,58.916c-5.839,10.101 -18.747,13.562 -28.832,7.731l-28.108,-16.215c-9.685,9.138 -20.185,17.2 -31.339,24.046l8.415,31.355c3.039,11.269 -3.661,22.847 -14.908,25.854l-65.686,17.632c-11.269,3.03 -22.847,-3.662 -25.862,-14.908l-8.416,-31.363c-13.085,-0.338 -26.208,-2.054 -39.17,-5.131l-16.216,28.109c-5.823,10.092 -18.731,13.562 -28.831,7.723l-58.917,-33.985c-10.092,-5.831 -13.569,-18.739 -7.746,-28.84l16.216,-28.108c-9.147,-9.685 -17.193,-20.193 -24.047,-31.339l-31.355,8.415c-11.254,3.024 -22.839,-3.661 -25.854,-14.915l-17.631,-65.702c-3.024,-11.262 3.669,-22.847 14.923,-25.862l31.355,-8.416c0.346,-13.077 2.061,-26.2 5.123,-39.162l-28.101,-16.216c-10.1,-5.823 -13.569,-18.739 -7.738,-28.839l33.985,-58.917c5.831,-10.1 18.747,-13.562 28.839,-7.738l28.101,16.215c9.692,-9.146 20.185,-17.2 31.331,-24.046l-8.415,-31.355c-3.023,-11.262 3.677,-22.839 14.915,-25.854l65.702,-17.632c11.262,-3.015 22.839,3.662 25.847,14.924l8.423,31.354c13.077,0.339 26.201,2.062 39.178,5.131l16.193,-28.108c5.838,-10.1 18.754,-13.562 28.839,-7.739l58.917,33.986c10.1,5.831 13.561,18.739 7.738,28.831l-16.208,28.109c9.139,9.684 17.193,20.185 24.047,31.346l31.354,-8.415c11.262,-3.023 22.839,3.669 25.847,14.916l17.631,65.693c3.031,11.285 -3.661,22.87 -14.908,25.886Zm462.004,-478.873l-41.54,11.146c-0.461,17.339 -2.723,34.732 -6.8,51.901l37.247,21.486c13.385,7.723 17.97,24.823 10.254,38.208l-45.032,78.071c-7.731,13.385 -24.831,17.97 -38.208,10.254l-37.247,-21.485c-12.839,12.124 -26.762,22.793 -41.532,31.87l11.154,41.547c4.008,14.916 -4.854,30.263 -19.77,34.263l-87.04,23.354c-14.924,4.008 -30.278,-4.839 -34.27,-19.762l-11.147,-41.555c-17.339,-0.454 -34.724,-2.723 -51.893,-6.792l-21.485,37.247c-7.724,13.377 -24.832,17.969 -38.209,10.246l-78.071,-45.032c-13.385,-7.723 -17.97,-24.839 -10.254,-38.201l21.493,-37.254c-12.124,-12.831 -22.801,-26.747 -31.878,-41.524l-41.539,11.146c-14.908,4.008 -30.27,-4.846 -34.263,-19.762l-23.354,-87.048c-4.008,-14.924 4.838,-30.27 19.762,-34.27l41.547,-11.147c0.454,-17.339 2.723,-34.731 6.8,-51.901l-37.255,-21.485c-13.377,-7.716 -17.962,-24.824 -10.246,-38.201l45.032,-78.071c7.723,-13.385 24.839,-17.97 38.216,-10.254l37.247,21.485c12.839,-12.123 26.755,-22.793 41.524,-31.87l-11.138,-41.539c-4.008,-14.924 4.846,-30.263 19.754,-34.27l87.048,-23.363c14.916,-4.007 30.262,4.847 34.27,19.778l11.147,41.539c17.338,0.454 34.731,2.723 51.893,6.8l21.493,-37.247c7.715,-13.385 24.824,-17.969 38.201,-10.254l78.063,45.032c13.385,7.723 17.97,24.832 10.254,38.201l-21.493,37.247c12.124,12.831 22.801,26.747 31.886,41.532l41.532,-11.147c14.915,-4.007 30.27,4.847 34.262,19.77l23.362,87.048c4,14.924 -4.846,30.263 -19.777,34.263Z" style="fill:#fff;fill-rule:nonzero;"/></g></g></svg>