<?xml version="1.0" encoding="UTF-8" standalone="no"?><!DOCTYPE svg PUBLIC "-//W3C//DTD SVG 1.1//EN" "http://www.w3.org/Graphics/SVG/1.1/DTD/svg11.dtd"><svg width="100%" height="100%" viewBox="0 0 3334 3334" version="1.1" xmlns="http://www.w3.org/2000/svg" xmlns:xlink="http://www.w3.org/1999/xlink" xml:space="preserve" xmlns:serif="http://www.serif.com/" style="fill-rule:evenodd;clip-rule:evenodd;stroke-linejoin:round;stroke-miterlimit:2;"><g><path d="M2370.04,2311.43c-129.87,-48.555 -319.251,-190.352 -319.251,-278.627l-0,-231.686c75.052,-83.502 132.122,-253.021 166.041,-445.182c79.115,-28.242 124.323,-73.444 180.801,-271.211c60.033,-210.664 -90.403,-203.503 -90.403,-203.503c121.679,-402.819 -38.497,-781.393 -306.804,-753.6c-185.065,-323.763 -804.922,73.959 -999.14,46.237c-0,111.035 46.237,194.284 46.237,194.284c-67.513,128.19 -41.472,383.796 -22.513,513.079c-10.964,-0.195 -147.012,1.224 -89.304,203.503c56.485,197.76 101.686,242.969 180.807,271.211c33.855,192.161 90.918,361.68 166.042,445.182l0,231.686c0,88.275 -201.178,236.973 -319.245,278.627c-243.939,85.892 -843.359,332.916 -804.668,795.638c9.278,111.041 619.857,226.269 1508.03,226.269c888.112,0 1498.76,-115.228 1508.04,-226.269c38.685,-463.171 -562.279,-704.974 -804.668,-795.638Z" style="fill:#fff;fill-rule:nonzero;"/></g></svg>