<?xml version="1.0" encoding="UTF-8" standalone="no"?><!DOCTYPE svg PUBLIC "-//W3C//DTD SVG 1.1//EN" "http://www.w3.org/Graphics/SVG/1.1/DTD/svg11.dtd"><svg width="100%" height="100%" viewBox="0 0 3334 3334" version="1.1" xmlns="http://www.w3.org/2000/svg" xmlns:xlink="http://www.w3.org/1999/xlink" xml:space="preserve" xmlns:serif="http://www.serif.com/" style="fill-rule:evenodd;clip-rule:evenodd;stroke-linejoin:round;stroke-miterlimit:2;"><g><g><g><path d="M1248.91,2061.12l-0,-402.074c-76.668,-52.274 -149.199,-114.349 -216.066,-187.968c-193.631,187.097 -378.985,305.585 -399.895,318.871l-17.642,10.89l-106.726,-170.543l17.424,-11.108c2.178,-1.525 190.8,-121.102 381.382,-307.763c-174.9,-255.053 -242.202,-512.067 -244.816,-523.175l-5.01,-19.603l194.938,-50.095l4.792,19.82c0.436,2.178 55.977,207.789 191.018,419.498c133.516,-162.267 211.274,-318.653 231.094,-466.109l-818.74,0l-0,-218.897l451.298,0l0,-121.755l210.403,0l-0,121.537l451.298,0l-0,219.115l-90.826,0c-21.128,204.957 -125.24,417.32 -310.159,631.861c24.83,27.88 50.314,53.363 76.233,77.758l-0,-103.024c-0,-73.183 59.244,-132.427 132.427,-132.427l589.171,0l-0,-1041.99c-0,-18.296 -14.593,-33.107 -33.107,-33.107l-1904.3,-0c-18.296,-0 -33.107,14.811 -33.107,33.107l0,1904.08c0,18.514 14.811,33.107 33.107,33.107l1215.8,-0Z" style="fill:#fff;fill-rule:nonzero;"/><path d="M2336.64,1854.63l-3.703,-0c-18.296,72.53 -36.156,164.445 -56.194,234.797l-72.312,258.538l269.21,0l-75.579,-258.538c-21.781,-72.312 -43.562,-162.485 -61.422,-234.797Z" style="fill:#fff;fill-rule:nonzero;"/><path d="M3300.23,1272.22l-1904.08,0c-18.296,0 -33.107,14.811 -33.107,33.107l0,1904.3c0,18.296 14.811,32.889 33.107,32.889l1904.08,0c18.513,0 33.106,-14.593 33.106,-32.889l0,-1904.3c0,-18.078 -14.593,-33.107 -33.106,-33.107Zm-692.63,1594.14l-93.875,-312.772l-348.711,-0l-86.905,312.772l-285.329,0l372.234,-1217.55l361.126,0l377.461,1217.55l-296.001,0Z" style="fill:#fff;fill-rule:nonzero;"/><path d="M857.074,2144.54l-264.636,0l-0,439.972l219.115,216.937l492.246,0l-0,-264.636l-446.725,-0l0,-392.273Z" style="fill:#fff;fill-rule:nonzero;"/></g></g></g></svg>