<?xml version="1.0" encoding="UTF-8" standalone="no"?><!DOCTYPE svg PUBLIC "-//W3C//DTD SVG 1.1//EN" "http://www.w3.org/Graphics/SVG/1.1/DTD/svg11.dtd"><svg width="100%" height="100%" viewBox="0 0 1724 1850" version="1.1" xmlns="http://www.w3.org/2000/svg" xmlnsXlink="http://www.w3.org/1999/xlink" xmlSpace="preserve" xmlnsSerif="http://www.serif.com/" style="fill-rule:evenodd;clip-rule:evenodd;stroke-linejoin:round;stroke-miterlimit:2;"><rect id="Artboard2" x="0" y="0" width="1723.33" height="1850" style="fill:none;"/><g opacity="0.2"><path d="M858.729,138.683l-740.887,424.234l44.179,23.45l-0,137.804l-162.021,-93.808l0,-134.867l444.825,-255.083l415.371,-240.413l524.375,301.979l335.817,193.517l-0,134.867l-162.021,93.808l-0,-134.863l41.237,-26.391l-740.875,-424.234Zm-96.85,1645.73l-317.054,-174.825l-438.933,-246.262l-5.892,-134.867l159.075,-96.762l-0,137.796l-38.288,23.45l757.601,422.55l724.179,-428.409l-47.134,-23.45l0,-137.796l164.955,87.955l2.945,137.795l-380.016,225.755l-346.434,204.237l1.767,0.983l-117.821,67.438l-120.783,-64.5l1.833,-1.088Zm640.354,-784.65c7.867,-9.762 17.688,-15.62 29.459,-17.575c11.783,-3.9 23.571,-3.9 35.346,0c11.787,1.955 22.6,7.813 32.408,17.575c7.854,7.821 13.758,17.596 17.671,29.317c1.966,11.729 1.966,23.458 -0,35.188c-3.913,11.729 -9.804,22.491 -17.671,32.25c-9.808,7.829 -20.621,13.7 -32.408,17.591c-11.775,1.967 -23.563,1.967 -35.346,0c-11.788,-3.891 -22.6,-9.746 -32.417,-17.591c-7.858,-9.759 -13.746,-20.521 -17.662,-32.25c-1.975,-11.73 -1.975,-23.459 -0,-35.188c3.925,-11.721 10.812,-21.479 20.62,-29.317Zm-185.591,120.205c7.866,-5.859 15.696,-9.759 23.571,-11.721c9.804,-1.963 19.654,-1.963 29.454,-0c7.866,1.962 15.696,5.875 23.571,11.721c5.9,7.845 9.804,15.629 11.779,23.475c3.916,9.745 3.916,19.541 -0,29.304c-1.975,7.829 -5.888,15.621 -11.779,23.45c-7.875,5.875 -15.705,9.775 -23.571,11.729c-9.796,3.9 -19.634,3.9 -29.454,-0c-7.875,-1.954 -15.705,-5.863 -23.571,-11.729c-5.892,-7.829 -9.804,-15.621 -11.784,-23.45c-1.958,-9.763 -1.958,-19.559 0,-29.304c1.98,-7.846 5.909,-15.629 11.784,-23.475Zm176.762,-354.746c9.796,-9.763 21.596,-16.629 35.354,-20.529c13.759,-3.892 27.484,-3.892 41.242,-0c15.696,3.9 28.475,11.729 38.292,23.458c9.812,9.767 16.708,21.496 20.625,35.179c3.921,13.696 3.925,27.35 -0,41.046c-3.925,13.692 -10.813,26.392 -20.625,38.112c-11.775,9.759 -24.55,16.63 -38.292,20.53c-13.758,3.891 -27.483,3.904 -41.242,-0c-13.758,-3.909 -25.541,-10.771 -35.354,-20.53c-11.779,-11.72 -19.65,-24.42 -23.562,-38.112c-1.975,-13.696 -1.975,-27.35 -0,-41.046c3.912,-13.683 11.783,-26.375 23.562,-38.108Zm-185.6,123.133c9.813,-7.837 19.65,-13.683 29.463,-17.583c11.779,-1.967 23.562,-1.967 35.35,-0c11.783,3.9 21.579,9.746 29.446,17.583c7.866,7.829 13.758,17.592 17.67,29.313c1.98,11.729 1.98,23.458 0,35.187c-3.912,11.729 -9.787,21.488 -17.67,29.317c-7.859,7.816 -17.663,13.683 -29.446,17.575c-11.788,1.971 -23.571,1.971 -35.35,-0c-9.813,-3.892 -19.65,-9.746 -29.463,-17.575c-7.85,-7.821 -13.758,-17.588 -17.671,-29.317c-1.966,-11.729 -0.97,-23.458 2.942,-35.187c1.979,-11.721 6.863,-21.475 14.729,-29.313Zm-182.629,120.213c5.875,-5.875 13.758,-9.775 23.554,-11.73c7.859,-1.966 16.692,-1.966 26.517,0c7.867,1.955 15.696,5.871 23.562,11.73c5.892,7.829 9.809,15.616 11.784,23.454c3.92,9.758 3.92,18.541 -0,26.379c-1.975,9.767 -5.909,17.596 -11.784,23.467c-7.866,7.812 -15.695,12.687 -23.562,14.641c-9.825,1.971 -18.65,1.971 -26.517,0c-9.796,-1.954 -17.679,-6.829 -23.554,-14.641c-7.854,-5.88 -12.75,-13.7 -14.733,-23.467c-1.975,-7.821 -1.975,-16.621 -0,-26.379c1.983,-7.838 6.866,-15.625 14.733,-23.454Zm173.804,-354.746c9.796,-9.775 21.592,-16.646 35.35,-20.538c13.759,-3.9 27.488,-3.9 41.246,0c15.683,3.909 28.475,10.763 38.279,20.538c9.821,11.721 16.721,24.421 20.638,38.096c3.912,13.696 3.929,27.354 -0,41.045c-3.934,13.696 -10.817,25.426 -20.638,35.188c-9.804,11.721 -22.596,18.567 -38.279,20.533c-13.758,3.888 -27.487,3.888 -41.246,0c-13.758,-3.912 -25.537,-10.766 -35.35,-20.533c-9.816,-9.762 -16.721,-21.492 -20.629,-35.188c-3.904,-13.691 -3.904,-27.349 0,-41.045c3.925,-13.675 10.813,-26.375 20.629,-38.096Zm-185.591,123.133c9.795,-9.775 19.645,-15.633 29.45,-17.575c11.8,-3.9 23.575,-3.9 35.362,0c11.783,1.963 22.596,7.817 32.408,17.592c7.85,7.812 13.759,17.575 17.671,29.304c1.967,11.729 1.967,23.458 0,35.179c-3.912,11.729 -9.804,21.488 -17.671,29.317c-9.812,7.825 -20.625,13.7 -32.408,17.583c-11.787,3.9 -23.562,3.9 -35.362,0c-11.788,-3.9 -21.605,-9.775 -29.459,-17.587c-7.858,-7.825 -13.758,-17.592 -17.675,-29.321c-1.966,-11.729 -1.966,-23.458 0,-35.188c3.917,-11.72 9.817,-21.479 17.684,-29.304Zm20.608,466.159c5.908,-3.917 11.787,-6.834 17.679,-8.801c5.879,-1.966 11.783,-1.966 17.662,0c7.859,1.967 13.746,4.9 17.68,8.801c3.925,3.891 6.854,9.758 8.837,17.587c1.975,5.846 1.975,11.721 0,17.575c-1.983,7.829 -4.929,13.683 -8.837,17.592c-3.921,3.912 -9.813,6.845 -17.68,8.795c-5.879,1.971 -11.783,1.971 -17.662,0c-5.892,-1.95 -11.783,-4.895 -17.679,-8.795c-3.925,-5.846 -6.854,-11.721 -8.829,-17.592c-1.984,-5.854 -1.984,-11.729 -0,-17.575c1.975,-7.821 4.921,-13.696 8.829,-17.587Zm-182.638,120.212c1.975,-1.975 4.921,-3.908 8.838,-5.854l11.779,-0c3.917,1.967 7.883,3.9 11.783,5.867c1.975,3.887 3.921,7.829 5.896,11.729l0,11.725c-1.975,3.883 -3.921,7.833 -5.896,11.725c-3.9,1.954 -7.866,3.9 -11.783,5.854l-11.779,-0c-3.933,-1.954 -6.863,-4.896 -8.838,-8.796c-3.916,-1.971 -5.883,-4.908 -5.883,-8.792c-1.975,-3.9 -1.975,-7.845 0,-11.729c0,-3.9 1.967,-7.846 5.883,-11.729Zm-11.783,-234.558c3.925,-3.9 9.8,-6.829 17.675,-8.809c5.892,-1.958 12.75,-1.958 20.617,0c5.879,1.963 11.787,4.909 17.662,8.809c3.934,5.854 6.875,11.729 8.854,17.575c1.959,7.829 1.959,14.675 0,20.533c-1.979,7.825 -4.933,13.683 -8.854,17.583c-5.875,5.875 -11.783,9.775 -17.662,11.73c-7.867,1.962 -14.738,1.962 -20.617,-0c-7.875,-1.955 -13.758,-5.867 -17.675,-11.73c-5.896,-3.9 -9.812,-9.745 -11.787,-17.583c-1.975,-5.875 -1.975,-12.704 -0,-20.533c1.975,-5.846 5.908,-11.721 11.787,-17.575Zm-188.542,117.275c3.921,-3.9 8.855,-6.846 14.734,-8.8l14.729,-0c5.887,1.954 10.8,4.9 14.725,8.8c3.925,3.9 6.867,8.791 8.837,14.658c1.975,5.854 1.975,11.729 0,17.575c-1.97,3.9 -4.916,7.846 -8.837,11.746c-3.908,3.892 -8.838,6.829 -14.725,8.792c-5.892,1.958 -10.817,1.958 -14.729,-0c-5.879,-1.963 -10.813,-4.909 -14.734,-8.792c-3.916,-3.9 -6.862,-7.846 -8.837,-11.746c-1.975,-5.846 -1.975,-11.721 -0,-17.575c1.975,-5.867 4.937,-10.758 8.837,-14.658Zm350.58,-703.65c11.775,-11.729 24.533,-19.546 38.291,-23.459c15.713,-3.891 30.429,-3.891 44.188,0c13.758,3.9 26.516,11.73 38.291,23.459c9.813,9.758 16.709,21.487 20.625,35.179c3.921,15.633 3.921,30.296 0,43.979c-3.925,13.696 -10.812,26.388 -20.625,38.117c-11.775,9.766 -24.533,16.633 -38.291,20.521c-15.713,3.9 -30.442,3.9 -44.188,-0c-13.758,-3.896 -26.516,-10.755 -38.291,-20.521c-9.83,-11.729 -16.721,-24.421 -20.625,-38.117c-3.921,-13.692 -3.921,-28.35 -0,-43.979c3.916,-13.692 10.795,-25.421 20.625,-35.179Zm-173.825,351.816c7.866,-5.862 16.708,-10.758 26.516,-14.65c7.854,-1.97 16.692,-1.97 26.509,0c9.812,3.892 18.637,8.788 26.516,14.65c7.854,7.821 12.75,16.621 14.717,26.388c1.975,9.754 1.975,19.55 -0,29.312c-1.967,9.767 -6.85,17.596 -14.717,23.45c-7.866,7.83 -16.704,12.709 -26.516,14.659c-9.805,3.9 -19.65,3.9 -29.455,-0c-9.812,-1.95 -17.679,-6.813 -23.57,-14.659c-7.85,-5.858 -12.75,-13.683 -14.73,-23.45c-1.975,-9.754 -1.975,-19.55 0,-29.312c1.98,-9.767 6.863,-18.55 14.73,-26.388Zm-188.538,117.284c5.908,-5.863 12.758,-9.763 20.638,-11.729c7.854,-1.955 16.691,-1.955 26.508,-0c7.867,1.966 14.733,5.875 20.625,11.729c5.892,5.875 9.804,12.691 11.779,20.533c1.979,9.763 1.979,18.546 0,26.375c-1.975,7.842 -5.9,14.675 -11.779,20.533c-5.908,5.855 -12.758,10.767 -20.625,14.663c-9.817,1.95 -18.642,1.95 -26.508,-0c-7.88,-3.896 -14.746,-8.808 -20.638,-14.663c-5.892,-5.875 -9.804,-12.691 -11.783,-20.533c-3.913,-7.817 -3.913,-16.612 -0,-26.375c1.979,-7.842 5.904,-14.667 11.783,-20.533Zm-191.479,114.346c5.896,-5.871 12.767,-9.763 20.633,-11.73c7.867,-1.97 15.696,-1.97 23.571,0c7.867,1.967 13.758,5.859 17.671,11.73c5.892,5.858 9.808,12.687 11.783,20.516c1.975,7.829 1.975,15.625 0,23.459c-1.975,7.837 -5.908,14.666 -11.783,20.537c-5.9,3.892 -12.75,7.829 -20.617,11.721c-7.883,1.954 -14.746,1.954 -20.641,-0c-7.867,-3.892 -14.738,-7.829 -20.617,-11.721c-5.904,-5.875 -9.808,-12.7 -11.783,-20.537c-1.975,-7.834 -1.975,-15.63 -0,-23.459c1.975,-7.829 5.891,-14.671 11.783,-20.516Zm368.233,-466.171c9.809,-9.763 20.625,-15.621 32.392,-17.575c13.762,-3.9 26.517,-3.9 38.296,-0c11.783,1.954 22.596,7.812 32.416,17.575c9.809,9.775 16.705,20.525 20.625,32.254c1.971,13.692 0.971,26.383 -2.95,38.112c-1.97,13.696 -7.85,24.434 -17.662,32.263c-9.817,9.762 -20.629,16.629 -32.417,20.521c-11.783,1.966 -24.533,1.966 -38.291,-0c-11.784,-3.909 -22.6,-10.759 -32.409,-20.521c-9.787,-9.775 -15.696,-20.533 -17.671,-32.263c-3.904,-11.729 -3.904,-24.42 0,-38.112c1.975,-11.729 7.867,-22.479 17.671,-32.254Zm-188.537,117.287c7.871,-7.841 17.691,-13.712 29.462,-17.596c11.784,-1.962 22.596,-1.962 32.4,0c11.784,3.9 21.596,9.755 29.463,17.596c7.85,7.817 13.758,17.575 17.662,29.304c1.975,11.73 1.975,22.492 0,32.25c-3.904,11.738 -9.812,21.496 -17.662,29.321c-7.859,7.813 -17.679,13.696 -29.463,17.588c-9.804,1.954 -20.616,1.954 -32.4,-0c-11.787,-3.892 -21.604,-9.775 -29.462,-17.588c-7.854,-7.825 -13.746,-17.583 -17.667,-29.321c-1.971,-9.758 -1.971,-20.52 0,-32.25c3.921,-11.729 9.8,-21.487 17.667,-29.304Zm-191.463,114.325c7.85,-7.829 16.688,-12.691 26.509,-14.658c11.783,-3.896 22.595,-3.896 32.408,-0c9.804,1.967 18.658,6.842 26.508,14.658c7.859,7.821 12.759,16.625 14.729,26.388c3.913,11.729 3.913,22.487 0,32.25c-1.97,9.775 -6.87,18.566 -14.729,26.387c-7.85,7.821 -16.704,12.692 -26.508,14.659c-9.813,3.9 -20.625,3.9 -32.408,-0c-9.821,-1.967 -18.659,-6.838 -26.509,-14.659c-7.862,-7.821 -12.758,-16.612 -14.733,-26.387c-3.917,-9.763 -3.917,-20.521 -0,-32.25c1.975,-9.763 6.858,-18.559 14.733,-26.388Zm-194.433,111.413c7.858,-7.829 16.7,-12.692 26.517,-14.659c11.779,-3.9 22.595,-3.9 32.4,0c9.812,1.967 18.658,6.838 26.516,14.659c7.854,7.821 13.746,16.612 17.663,26.387c1.975,11.729 1.975,22.492 -0,32.25c-3.917,9.775 -9.809,18.567 -17.663,26.388c-7.858,7.816 -16.704,12.691 -26.516,14.662c-9.805,3.892 -20.621,3.892 -32.4,0c-9.817,-1.971 -18.659,-6.846 -26.517,-14.662c-7.85,-7.821 -12.75,-16.613 -14.729,-26.388c-3.913,-11.729 -3.913,-22.487 -0,-32.25c1.979,-9.775 6.862,-18.558 14.729,-26.387Zm562.662,-577.575c11.771,-11.729 25.546,-19.559 41.242,-23.45c15.688,-3.9 31.433,-3.9 47.138,-0c13.745,3.891 26.508,11.721 38.295,23.45c11.784,11.729 19.65,25.425 23.563,41.046c3.904,15.62 3.904,31.287 -0,46.908c-3.913,13.7 -11.779,26.387 -23.563,38.117c-11.787,11.729 -24.55,19.558 -38.295,23.45c-15.705,3.9 -31.45,3.9 -47.138,-0c-15.696,-3.892 -29.458,-11.721 -41.242,-23.45c-11.783,-11.73 -19.65,-25.425 -23.562,-41.046c-3.921,-13.696 -3.921,-28.359 -0,-43.979c3.912,-15.621 11.779,-29.317 23.562,-41.046Zm-188.545,117.279c9.816,-9.758 22.595,-16.625 38.291,-20.533c13.763,-3.884 27.484,-3.884 41.242,-0c13.754,3.908 25.546,10.758 35.354,20.533c11.788,9.762 18.658,21.483 20.625,35.183c3.913,15.634 3.913,30.296 0,43.975c-1.967,13.692 -8.837,25.421 -20.625,35.179c-9.808,9.78 -21.6,16.646 -35.354,20.538c-13.758,3.9 -27.479,3.9 -41.242,-0c-15.696,-3.908 -28.475,-10.758 -38.291,-20.538c-9.813,-9.758 -16.705,-21.487 -20.625,-35.179c-3.917,-15.633 -3.925,-30.279 -0,-43.975c3.925,-13.7 10.812,-25.421 20.625,-35.183Zm-191.471,114.337c9.796,-9.758 21.575,-16.625 35.35,-20.516c13.758,-1.971 27.479,-1.971 41.237,-0c11.788,3.904 22.6,10.758 32.409,20.516c9.804,9.78 16.708,21.5 20.616,35.184c3.921,11.741 3.921,24.433 0,38.116c-3.925,13.696 -10.812,25.417 -20.616,35.18c-9.809,9.758 -21.588,15.629 -35.346,17.595c-11.784,3.892 -24.542,3.892 -38.3,0c-13.763,-1.966 -25.546,-7.82 -35.35,-17.595c-7.859,-9.763 -13.759,-21.484 -17.679,-35.18c-3.909,-13.683 -3.909,-26.375 -0,-38.116c3.92,-13.684 9.812,-25.404 17.679,-35.184Zm-191.492,111.409c9.817,-7.829 20.629,-13.684 32.417,-17.588c13.758,-3.896 26.508,-3.896 38.291,0c13.746,3.904 25.53,10.767 35.35,20.525c9.796,7.829 15.705,18.567 17.663,32.25c3.917,11.729 3.917,24.429 -0,38.109c-3.904,13.7 -9.788,24.42 -17.663,32.266c-9.82,9.759 -21.604,16.625 -35.35,20.521c-11.783,3.9 -24.533,3.9 -38.291,0c-11.788,-3.908 -22.6,-10.762 -32.417,-20.521c-9.812,-9.775 -16.704,-20.537 -20.625,-32.266c-1.975,-13.68 -1.975,-26.38 0,-38.109c3.925,-13.683 10.813,-25.412 20.625,-35.187Zm-194.429,111.416c7.862,-9.762 18.654,-16.616 32.408,-20.529c13.742,-3.891 27.479,-3.891 41.225,0c11.784,3.913 22.596,10.767 32.417,20.529c9.808,9.767 16.704,21.496 20.621,35.18c3.921,11.729 3.929,24.42 -0,38.116c-3.925,13.688 -10.813,25.417 -20.621,35.179c-9.821,9.763 -20.633,15.621 -32.417,17.592c-13.746,3.896 -27.483,3.896 -41.225,0c-13.762,-1.971 -25.546,-7.817 -35.358,-17.592c-7.867,-9.762 -13.758,-21.491 -17.667,-35.179c-3.921,-13.696 -3.921,-26.387 0,-38.116c3.925,-13.684 10.813,-25.413 20.617,-35.18Zm1546.58,-2.937c9.817,-11.729 21.604,-18.554 35.354,-20.521c13.759,-3.9 27.479,-3.9 41.242,0c13.758,1.967 26.508,8.792 38.292,20.521c9.812,9.775 16.704,21.504 20.625,35.183c3.912,13.692 3.912,27.35 -0,41.042c-3.925,15.629 -10.813,28.358 -20.625,38.117c-11.784,9.762 -24.534,16.629 -38.292,20.52c-13.763,3.9 -27.483,3.9 -41.242,0c-13.75,-3.908 -26.5,-10.758 -38.287,-20.52c-9.817,-9.759 -16.721,-22.488 -20.629,-38.117c-3.921,-13.692 -3.921,-27.35 -0,-41.042c3.908,-13.679 11.783,-25.408 23.562,-35.183Z" style="fill:url(#_Linear1);"/></g><defs><linearGradient id="_Linear1" x1="0" y1="0" x2="1" y2="0" gradientUnits="userSpaceOnUse" gradientTransform="matrix(1723.33,0,0,1723.33,0,925)"><stop offset="0" style="stop-color:#179543;stop-opacity:1"/><stop offset="1" style="stop-color:#15a815;stop-opacity:1"/></linearGradient></defs></svg>