<?xml version="1.0" encoding="UTF-8" standalone="no"?><!DOCTYPE svg PUBLIC "-//W3C//DTD SVG 1.1//EN" "http://www.w3.org/Graphics/SVG/1.1/DTD/svg11.dtd"><svg width="100%" height="100%" viewBox="0 0 736 630" version="1.1" xmlns="http://www.w3.org/2000/svg" xmlnsXlink="http://www.w3.org/1999/xlink" xmlSpace="preserve" xmlnsSerif="http://www.serif.com/" style="fill-rule:evenodd;clip-rule:evenodd;stroke-linejoin:round;stroke-miterlimit:2;"><rect id="Artboard1" x="-0" y="0" width="735" height="630" style="fill:none;"/><clipPath id="_clip1"><rect id="Artboard11" serifId="Artboard1" x="-0" y="0" width="735" height="630"/></clipPath><g clip-path="url(#_clip1)"><path d="M211,630l105,0l0,-105l-105,0l0,-105l210,0l0,105l105,0l0,105l105,0l0,-105l105,0l0,-105l-105,0l0,-105l105,0l0,-210l-13,0l0,-105l-722,0l0,105l0,210l105,0l0,105l-105,0l0,105l210,0l0,105Zm-105,-315l105,0l0,-105l-105,0l0,105Zm420,105l105,0l0,105l-105,0l0,-105Zm0,-210l0,105l-105,0l0,-105l105,0Z" style="fill:url(#_Linear2);"/></g><defs><linearGradient id="_Linear2" x1="0" y1="0" x2="1" y2="0" gradientUnits="userSpaceOnUse" gradientTransform="matrix(-105,1.28588e-14,-1.28588e-14,-105,526,472.5)"><stop offset="0" style="stop-color:#179543;stop-opacity:0.2"/><stop offset="1" style="stop-color:#15a815;stop-opacity:0.2"/></linearGradient></defs></svg>