<?xml version="1.0" encoding="UTF-8" standalone="no"?><!DOCTYPE svg PUBLIC "-//W3C//DTD SVG 1.1//EN" "http://www.w3.org/Graphics/SVG/1.1/DTD/svg11.dtd"><svg width="100%" height="100%" viewBox="0 0 1314 442" version="1.1" xmlns="http://www.w3.org/2000/svg" xmlnsXlink="http://www.w3.org/1999/xlink" xmlSpace="preserve" xmlnsSerif="http://www.serif.com/" style="fill-rule:evenodd;clip-rule:evenodd;stroke-linejoin:round;stroke-miterlimit:2;"><rect id="Artboard1" x="0" y="0" width="1313.6" height="441.667" style="fill:none;"/><g id="Artboard11" serifId="Artboard1"><path d="M698.933,130.692l-78.249,0l-0,215.574l-43.25,0l0,-215.574l-77.531,0l-0,-35.291l199.03,-0l0,35.291Zm77.936,215.574l-43.416,0l0,-250.865l43.416,-0l0,250.865Zm54.573,0l-0,-250.865l85.989,-0c28.378,0.019 49.977,5.717 64.792,17.077c14.815,11.377 22.224,28.307 22.224,50.805c0,11.507 -3.09,21.837 -9.303,31.008c-6.193,9.191 -15.274,16.305 -27.221,21.342c13.565,3.693 24.042,10.624 31.449,20.788c7.408,10.183 11.104,22.388 11.104,36.615c0,23.564 -7.538,41.671 -22.648,54.298c-15.109,12.646 -36.723,18.932 -64.883,18.932l-91.503,0Zm43.6,-113.228l-0,78.525l48.418,-0c13.673,0.019 24.373,-3.363 32.054,-10.164c7.703,-6.784 11.544,-16.212 11.544,-28.307c-0,-26.101 -13.326,-39.465 -39.978,-40.054l-52.038,0Zm-0,-32.056l42.737,-0c13.565,0.019 24.153,-3.032 31.799,-9.171c7.647,-6.122 11.451,-14.798 11.451,-26.048c-0,-12.352 -3.53,-21.285 -10.585,-26.799c-7.059,-5.495 -18.07,-8.252 -33.013,-8.272l-42.389,0l-0,70.29Zm310.44,80.747c-0,-11.029 -3.88,-19.538 -11.637,-25.53c-7.757,-5.975 -21.743,-12.002 -41.963,-18.105c-20.219,-6.085 -36.304,-12.866 -48.251,-20.368c-22.864,-14.335 -34.297,-33.067 -34.297,-56.19c-0,-20.219 8.252,-36.873 24.738,-49.997c16.49,-13.087 37.885,-19.65 64.187,-19.668c17.462,0.018 33.032,3.235 46.708,9.669c13.676,6.453 24.41,15.624 32.223,27.518c7.811,11.911 11.708,25.089 11.708,39.536l-43.416,0c-0,-13.124 -4.101,-23.398 -12.316,-30.843c-8.217,-7.426 -19.962,-11.156 -35.255,-11.176c-14.227,0.02 -25.292,3.071 -33.159,9.173c-7.867,6.103 -11.818,14.632 -11.818,25.55c-0,9.227 4.262,16.928 12.754,23.067c8.512,6.176 22.538,12.151 42.056,17.96c19.521,5.825 35.201,12.443 47.039,19.851c11.837,7.426 20.496,15.918 26.01,25.513c5.514,9.595 8.272,20.825 8.272,33.675c-0,20.934 -7.997,37.571 -24.026,49.92c-16.028,12.352 -37.774,18.511 -65.233,18.511c-18.144,0 -34.834,-3.345 -50.053,-10.073c-15.22,-6.707 -27.038,-15.991 -35.495,-27.829c-8.453,-11.837 -12.681,-25.623 -12.681,-41.394l43.6,0c0,14.301 4.723,25.346 14.134,33.16c9.428,7.83 22.92,11.744 40.495,11.727c15.18,0.017 26.576,-3.051 34.223,-9.208c7.649,-6.142 11.453,-14.3 11.453,-24.449Zm128.116,64.537l-43.416,0l-0,-250.865l43.416,-0l0,250.865Z" style="fill:#fff;fill-rule:nonzero;"/><path d="M53.729,350.521l143.592,-143.588l-51.029,-189.275l-143.588,143.588l51.025,189.275Z" style="fill:#fff;"/><path d="M413.296,285.254l-189.275,-50.433l-142.996,142.996l188.683,51.029l143.588,-143.592Z" style="fill:#fff;"/><path d="M241.229,56.225l5.934,0l0.591,-0.596l1.188,0l0.591,-0.592l0.596,0l1.779,-1.779l0.592,0l0.596,-1.187l0.592,-0.596l-0,-0.592l1.187,-1.187l0,-0.592l0.592,-0.596l-0,-0.591l0.595,-1.188l0,-4.746l-0.595,-0.591l-0,-0.596l-0.592,-0.592l0,-1.187l-1.188,-1.188l0,-0.592l-2.375,-2.375l-0.591,0l-1.188,-1.187l-0.591,-0l-1.188,-0.592l-0.592,0l-0.595,-0.591l-4.746,-0l-0.592,0.591l-0.596,0l-0.591,0.592l-1.188,-0l-1.187,1.187l-0.592,0l-2.375,2.375l0,0.592l-1.187,1.188l-0,1.187l-0.592,0.592l-0,0.596l-0.592,0.591l0,4.746l0.592,0.596l-0,1.779l0.592,0.592l-0,0.596l1.783,1.779l0.592,1.187l0.591,0l1.784,1.779l0.591,0l0.592,0.592l0.596,0l1.187,0.596Z" style="fill:#fff;"/><path d="M279.2,63.938l4.75,-0l0.592,-0.596l0.591,-0l0.596,-0.592l0.592,0l0.596,-0.592l0.591,0l0.592,-0.596l0.596,0l-0,-0.591l0.591,-0.596l0,-0.592l0.596,-0.591l0,-0.596l1.184,-1.188l-0,-4.746l-0.592,-0.591l-0,-0.596l-0.592,-0.592l0,-0.591l-0.596,-0.596l0,-0.592l-1.779,-1.779l-0.591,-0l-0.596,-0.596l-0.592,0l-0.596,-0.592l-1.183,0l-0.596,-0.595l-3.558,-0l-0.596,0.595l-0.592,0l-0.591,0.592l-0.596,0l-0.592,0.596l-0.596,-0l-0.591,0.592l-0,0.591l-0.592,0l-0.596,0.596l0,0.592l-0.592,0.596l0,0.591l-0.595,0.592l-0,0.596l-0.592,0.592l0,3.562l0.592,1.183l-0,0.596l0.595,0.592l0,0.596l0.592,0.591l0,0.592l0.596,0.596l-0,0.592l0.592,-0l1.187,1.187l0.592,0l0.596,0.592l0.591,-0l0.592,0.596Z" style="fill:#fff;"/><path d="M213.933,85.892l5.342,-0l1.183,-0.596l0.596,-0l0.592,-0.592l1.187,0l1.188,-1.187l1.187,-0.592l2.371,-2.375l0.596,-1.187l1.183,-1.184l0,-1.187l0.596,-0.596l0,-0.592l0.592,-1.187l-0,-5.338l-0.592,-1.187l0,-0.596l-0.596,-1.183l0,-0.596l-0.591,-1.188l-3.559,-3.558l-1.187,-0.592l-1.188,-1.187l-1.187,-0.596l-0.592,-0l-0.596,-0.592l-1.183,0l-1.187,-0.591l-3.563,-0l-0.592,0.591l-1.187,0l-0.592,0.592l-1.187,-0l-0.592,0.596l-1.187,0.591l-4.746,4.746l-0.596,1.188l-0.592,0.596l0,1.183l-0.596,0.596l0,1.187l-0.591,0.592l-0,3.558l0.591,1.188l0,1.187l0.596,0.592l0,0.596l0.592,1.187l1.187,1.183l0.592,1.188l3.563,3.562l1.187,0.592l0.592,0l1.187,0.592l0.592,-0l1.187,0.596Z" style="fill:#fff;"/><path d="M251.313,93.604l4.749,0l1.184,-0.591l0.596,-0.001l0.591,-0.595l0.596,-0l1.183,-1.188l0.596,0l2.371,-2.371l0,-0.596l1.188,-1.183l-0,-0.596l0.596,-0.591l-0,-0.596l0.591,-0.592l0,-4.746l-0.591,-0.595l-0,-0.592l-0.596,-0.592l-0,-1.187l-1.188,-1.188l0,-0.591l-1.779,-1.784l-0.592,0l-1.779,-1.779l-0.596,0l-0.591,-0.592l-0.596,0l-0.592,-0.596l-4.746,0.001l-0.596,0.595l-1.183,0l-0.596,0.592l-0.591,0l-1.188,1.188l-0.592,-0.001l-2.375,2.376l0,0.591l-1.187,1.188l-0,0.591l-0.592,0.596l0,1.184l-0.596,0.595l0,4.746l0.596,0.592l0,0.596l0.592,0.591l-0,0.596l1.187,1.184l0,0.595l2.375,2.371l0.592,0l1.188,1.188l0.591,-0l0.596,0.596l0.592,-0l0.591,0.591Z" style="fill:#fff;"/><path d="M289.288,101.317l4.745,-0l1.188,-1.188l0.596,0l0.591,-0.591l0.592,-0.001l0.596,-0.591l0.591,-0l0,-0.596l1.188,-1.188l-0,-0.591l0.592,-0.592l-0,-0.596l0.595,-0.591l0,-4.746l-0.595,-0.596l-0,-0.592l-0.592,-0.596l-0,-0.591l-1.188,-1.188l0,-0.591l-0.591,-0l-1.188,-1.188l-0.591,0l-0.596,-0.592l-1.188,0l-0.591,-0.595l-3.559,-0l-0.595,0.595l-1.188,0l-0.592,0.592l-0.591,0l-1.188,1.188l-0.596,-0l0,0.591l-1.183,1.188l0,0.591l-0.596,0.596l0,1.188l-0.591,0.591l-0,3.559l0.591,0.596l0,1.187l0.596,0.592l0,0.591l1.183,1.188l0,0.596l0.596,-0l1.188,1.183l0.591,0l0.592,0.596l0.596,-0l0.592,0.592Z" style="fill:#fff;"/><path d="M225.208,123.867l2.967,-0l1.188,-0.596l0.591,-0l1.188,-0.592l0.591,0l1.188,-0.596l2.375,-2.37l1.183,-0l0,-1.188l2.375,-2.375l0.592,-1.183l-0,-0.596l0.596,-1.188l-0,-0.591l0.591,-1.188l0,-3.558l-0.591,-0.596l-0,-1.183l-0.596,-0.596l-0,-1.188l-0.592,-0.591l-0.591,-1.188l-1.188,-1.187l-0.596,-1.188l0,-0.591l-1.183,-0.592l-2.375,-2.375l-1.188,-0l-0.591,-0.592l-1.188,0l-0.591,-0.596l-5.342,0l-1.188,0.596l-0.591,0l-1.188,0.592l-0.596,-0l-1.183,0.592l-1.187,1.187l-1.188,0.596l-1.779,1.779l-0.596,1.188l-1.183,1.183l-0,1.187l-0.596,0.596l-0,1.188l-0.592,0.591l0,5.934l0.592,0.591l-0,1.188l0.596,0.596l-0,1.183l2.371,2.375l0.595,1.188l0.592,-0l0.592,0.591l1.187,0.596l1.188,1.183l1.187,0l0.592,0.596l1.187,0.592l1.779,-0l0.596,0.596Z" style="fill:#fff;"/><path d="M261.4,131.579l4.746,0l0.596,-0.596l0.591,0l1.188,-0.591l0.591,-0l1.188,-1.188l0.596,0l2.371,-2.371l-0,-0.596l1.187,-1.187l0,-0.592l0.596,-0.591l0,-0.596l0.592,-1.188l-0,-4.745l-0.592,-0.592l0,-0.596l-0.596,-0.592l0,-1.187l-1.187,-1.188l-0,-0.591l-1.779,-1.779l-0.592,-0.001l-1.784,-1.779l-0.591,0l-0.592,-0.596l-0.596,0.001l-1.187,-0.592l-4.746,-0l-0.592,0.591l-0.596,0.001l-0.591,0.595l-1.188,0l-1.779,1.779l-0.591,0.001l-1.188,1.187l0,0.592l-1.779,1.779l-0,1.187l-0.596,0.592l0,0.596l-0.592,0.592l0,4.745l0.592,0.596l0,0.592l0.596,1.187l-0,0.592l1.779,1.783l0,0.592l1.779,1.779l0.592,0l1.187,1.188l1.188,-0l0.591,0.591l0.596,0l0.592,0.596Z" style="fill:#fff;"/><path d="M317.767,71.65l2.966,0l0.596,-0.592l0.592,0l-0,-0.596l1.187,0.001l0,-0.592l1.188,-0l-0,-1.188l0.591,0l0,-1.187l0.596,-0.592l0,-4.154l-0.596,0l0,-1.188l-0.591,-0.591l-0,-0.596l-0.592,0l-1.187,-1.183l-0.596,-0l-0.592,-0.596l-4.154,-0l0,0.596l-1.188,-0l0,0.591l-0.591,0l-0,0.592l-0.596,-0l0,0.596l-0.592,-0l0,0.591l-0.591,0l-0,1.188l-0.596,-0l-0,4.154l0.596,0.592l-0,0.596l1.183,1.187l0,0.592l0.596,-0l0.592,0.591l0.595,0.001l1.184,1.187Z" style="fill:#fff;"/><path d="M355.742,79.363l2.375,-0l-0,-0.592l1.187,-0l0,-0.592l0.592,0l0.591,-0.596l0,-0.591l0.596,-0l0,-2.967l-0.596,0l0,-0.596l-0.591,-0.591l-0,-0.592l-0.592,-0l-0.596,-0.596l-0.591,0l-0,-0.592l-2.375,0l-0,0.592l-0.592,0l-0.596,0.596l-0.591,-0l-0,0.591l-0.592,0.592l-0,0.596l-0.596,0l0,2.967l0.596,-0l-0,0.591l0.591,0.596l0.592,0l0,0.592l1.188,-0l-0,0.592Z" style="fill:#fff;"/><path d="M327.263,109.625l3.558,0l0.596,-0.596l0.591,0l0,-0.591l1.188,-0.001l-0,-0.591l1.187,-0l0,-1.188l0.592,0l-0,-1.187l0.596,-0l-0,-0.592l0.591,0l0,-4.154l-0.591,0l-0,-0.596l-0.596,0l-0,-1.183l-0.592,-0l0,-1.188l-0.596,0l-1.183,-1.187l-0.596,-0l-0.591,-0.592l-4.746,0l-0,0.592l-1.188,-0l0,0.592l-0.596,-0l0,0.595l-0.591,0l-0,0.592l-0.592,0l0,0.596l-0.596,-0l0,1.183l-0.591,0l-0,4.75l0.591,0.592l0,0.591l1.188,1.188l-0,0.596l0.591,-0l0.596,0.591l0.592,0.001l1.187,1.187Z" style="fill:#fff;"/><path d="M365.238,118.525l3.558,0l-0,-0.592l1.187,0l0,-0.595l0.592,-0l0.596,-0.592l-0,-0.596l0.591,0l0,-1.183l0.596,-0l0,-3.563l-0.596,-0.591l0,-0.596l-1.187,-1.184l-0.592,0l0,-0.595l-0.596,-0l-0.591,-0.592l-0.592,-0l0,-0.596l-2.375,0l-0.591,0.596l-0.596,-0l-0,0.592l-0.592,-0l-0.596,0.595l-0.591,0l-0,0.592l-0.592,0.592l-0,0.596l-0.596,-0l0,0.591l-0.592,0.596l0,2.967l0.592,-0l0,0.591l2.375,2.375l0.592,0l0.596,0.592Z" style="fill:#fff;"/><path d="M233.513,161.838l5.341,-0l1.188,-0.592l0.591,-0l1.188,-0.592l0.592,0l1.187,-0.596l1.187,-1.187l1.188,-0.592l1.187,-1.187l0.592,-1.188l1.188,-1.183l0.591,-1.188l0,-0.595l0.596,-1.188l0,-0.592l0.592,-1.187l-0,-5.338l-0.592,-1.187l0,-0.596l-0.596,-1.183l0,-0.596l-0.591,-1.188l-0.596,-0.591l-0.592,-1.188l-2.375,-2.371l-1.183,-0.595l-1.188,-1.188l-1.187,0l-0.592,-0.592l-1.187,0l-0.596,-0.591l-5.934,-0l-1.183,0.591l-0.596,0l-1.187,0.592l-0.592,0l-1.187,0.596l-1.188,1.187l-1.187,0.592l-1.779,1.779l-0.592,1.188l-0.596,0.591l-0.592,1.188l0,0.596l-0.591,1.183l-0,0.596l-0.596,1.187l-0,5.338l0.596,1.187l-0,0.592l0.591,0.596l0,1.187l1.188,1.188l0.592,1.183l0.595,0.596l0.592,1.188l1.188,1.183l1.187,0.596l0.592,0.591l1.187,0.596l0.592,0l1.187,0.592l0.596,-0l1.183,0.592Z" style="fill:#fff;"/><path d="M298.783,139.883l5.338,0l0.596,-0.591l0.591,-0l0.592,-0.592l0.596,0l0.591,-0.596l0.596,0l0.592,-0.591l0.592,-0l-0,-0.596l0.595,-0.592l0,-0.592l0.592,-0.595l0,-0.592l0.596,-0.596l-0,-0.592l0.592,-0.591l-0,-5.342l-0.592,-0.592l-0,-0.595l-0.596,-0.592l0,-0.596l-0.592,-0.592l0,-0.591l-1.779,-1.784l-0.596,0l-0.591,-0.591l-0.596,-0l-0.592,-0.592l-1.187,0l-0.592,-0.596l-4.154,0l-0.592,0.596l-1.187,0l-0.596,0.592l-0.592,-0l-1.779,1.779l-0.596,-0l0,0.596l-1.183,1.183l-0,0.596l-0.596,0.591l0,1.188l-0.592,0.592l0,4.154l0.592,0.596l0,1.183l0.596,0.596l-0,0.592l0.592,0.595l-0,0.592l1.779,1.779l0.596,0l0.591,0.596l0.592,0l0.596,0.592l0.591,-0l0.596,0.591Z" style="fill:#fff;"/><path d="M336.754,148.783l4.75,0l1.184,-1.183l0.595,-0l1.188,-1.188l0.591,0l0,-0.595l1.188,-1.184l-0,-0.596l1.187,-1.187l0,-4.746l-1.187,-1.187l-0,-0.592l-1.188,-1.187l0,-0.592l-0.591,-0l-1.188,-1.188l-0.596,0l-0.591,-0.591l-0.592,-0l-0.596,-0.596l-3.558,-0l-0.596,0.596l-0.591,-0l-0.592,0.591l-1.188,0l0,0.592l-0.595,0l-1.184,1.188l0,0.595l-0.596,0.592l0,0.592l-0.591,0.596l-0,0.591l-0.596,0.596l-0,3.558l0.596,0.592l-0,0.596l0.591,0.592l0,1.187l0.596,0l0,0.592l1.184,1.187l0.595,0l0.592,0.596l0.596,0l1.183,1.183Z" style="fill:#fff;"/><path d="M375.325,158.871l3.558,-0l1.188,-1.184l0.592,0l1.187,-1.187l0.592,0l-0,-0.596l1.187,-1.183l0,-0.596l0.596,-0.592l0,-1.187l0.592,-0.592l-0,-2.971l-1.188,-1.183l0,-0.596l-1.187,-1.187l-0,-0.592l-0.592,0l-1.187,-1.187l-0.592,-0l-0.596,-0.592l-0.592,-0l-0.591,-0.596l-2.967,0l-0.596,0.596l-0.591,-0l-0.596,0.592l-1.184,-0l0,0.595l-0.595,0l-1.78,1.78l0,0.591l-0.595,0.596l-0,1.183l-0.592,0.596l-0,2.967l0.592,0.592l-0,0.595l0.595,0.592l0,1.188l0.592,-0l0,0.591l1.783,1.784l0.592,-0l0.592,0.591l1.783,0l0,0.592Z" style="fill:#fff;"/><path d="M271.488,170.146l4.745,-0l0.596,-0.592l0.592,0l1.187,-0.596l0.592,0l2.375,-2.371l1.187,0l0,-1.187l2.371,-2.375l0,-0.592l0.596,-0.595l0,-0.592l0.592,-1.188l-0,-4.745l-0.592,-1.188l0,-0.592l-0.596,-0.595l0,-1.188l-1.183,-1.183l-0,-0.596l-4.154,-4.154l-1.188,-0l-0.591,-0.592l-0.596,0l-1.188,-0.592l-4.746,0l-1.187,0.592l-0.592,0l-0.596,0.592l-1.183,-0l-5.933,5.933l-0,1.188l-0.596,0.595l-0,0.592l-0.592,1.188l0,4.745l0.592,0.596l-0,0.592l0.596,1.187l-0,0.592l2.371,2.375l0.595,1.187l0.592,0l2.375,2.371l1.183,0l0.596,0.596l0.592,0l1.187,0.592Z" style="fill:#fff;"/><path d="M308.867,179.046l5.341,-0l0.592,-0.592l1.187,0l0.596,-0.596l0.592,0l1.187,-1.187l0.592,-0l1.188,-1.183l-0,-0.596l1.187,-1.188l0,-0.591l0.592,-0.592l-0,-1.188l0.596,-0.595l-0,-5.934l-0.596,-0.591l-0,-0.592l-0.592,-0.596l0,-0.592l-1.187,-1.187l-0,-0.592l-1.78,-1.783l-0.595,-0l-1.184,-1.183l-0.596,-0l-1.187,-0.596l-0.592,-0l-0.591,-0.592l-4.75,0l-0.592,0.592l-0.592,-0l-0.596,0.596l-0.591,-0l-1.188,1.183l-0.591,-0l-1.188,1.187l-0.596,0l-0.591,0.596l-0,0.592l-1.188,1.187l0,1.188l-0.591,0.591l-0,0.592l-0.596,0.596l-0,4.746l0.596,0.592l-0,0.595l0.591,0.592l0,0.596l1.188,1.183l-0,0.596l2.375,2.371l0.591,-0l1.188,1.187l0.591,0l0.596,0.596l0.592,0l0.592,0.592Z" style="fill:#fff;"/><path d="M346.25,188.538l5.338,-0l0.595,-0.592l0.592,-0l0.596,-0.592l0.591,0l1.188,-1.187l0.592,-0l1.187,-1.188l0,-0.591l1.188,-1.188l-0,-0.596l0.591,-0.591l0,-0.592l0.596,-0.596l0,-5.337l-0.596,-0.596l0,-0.592l-0.591,-0.596l-0,-0.591l-0.596,-0.592l-0,-0.596l-2.371,-2.371l-0.596,0l-0.592,-0.596l-0.591,0l-0.596,-0.591l-1.188,-0l-0.591,-0.596l-4.154,-0l-0.592,0.596l-1.188,-0l-0.591,0.591l-0.596,0l-0.592,0.596l-0.596,0l-1.183,1.184l-0.596,-0l0,0.595l-1.187,1.188l-0,0.592l-0.592,0.591l0,1.784l-0.591,0.591l-0,4.154l0.591,0.592l0,1.188l0.592,0.591l-0,0.596l0.596,0.592l-0,0.596l1.779,1.779l0.591,-0l1.188,1.187l0.596,0l0.591,0.592l0.592,-0l0.596,0.592Z" style="fill:#fff;"/><path d="M383.629,198.625l6.529,0l0.592,-0.592l0.592,0l1.187,-1.187l0.596,-0l0.592,-0.592l0.591,0l0,-0.596l0.596,-0.591l0,-0.596l1.188,-1.183l-0,-0.596l0.591,-0.592l0,-0.596l0.592,-0.591l-0,-4.746l-0.592,-0.596l0,-0.592l-0.591,-0.591l-0,-0.596l-1.188,-1.188l0,-0.591l-0.596,-0.592l0,-0.596l-0.591,-0.592l-0.592,0l-1.188,-1.187l-0.595,-0l-0.592,-0.592l-1.188,0l-0.591,-0.596l-4.746,0l-0.596,0.596l-1.187,0l-0.592,0.592l-0.592,-0l-1.187,1.187l-0.596,0l0,0.592l-1.183,1.188l-0,0.591l-1.188,1.188l0,0.596l-0.596,0.591l0,0.592l-0.591,0.596l-0,4.154l0.591,0.592l0,1.779l0.596,0.596l0,0.591l1.188,1.188l-0,0.591l0.591,0.596l0.592,0l0.596,0.592l0.591,-0l0.596,0.592l0.592,-0l0.592,0.595l0.595,0l0.592,0.592Z" style="fill:#fff;"/><path d="M243.008,200.408l5.934,0l1.187,-0.596l0.592,0l1.187,-0.591l0.592,-0l1.187,-0.596l0.592,-0.592l1.188,-0.591l0.595,-0.596l1.184,-0.592l0.596,-1.187l0.591,-0.592l0.596,-1.187l0.592,-0.596l0.591,-1.188l0,-0.591l0.596,-1.188l0,-0.592l0.592,-1.187l0,-7.121l-0.592,-0.592l0,-1.187l-0.596,-0.592l-0.591,-1.187l-0.592,-0.596l-0.596,-1.183l-1.187,-1.188l-0.592,-1.187l-1.187,-0.592l-0.592,-0.596l-2.375,-1.187l-0.592,-0l-1.187,-0.592l-0.592,-0l-1.187,-0.592l-7.121,0l-0.592,0.592l-1.187,-0l-0.596,0.592l-1.183,0.595l-0.596,0.592l-1.188,0.596l-1.183,1.183l-1.188,0.596l-0.595,1.188l-0.592,0.591l-1.188,2.375l0,0.592l-0.591,1.187l-0,0.592l-0.596,1.188l-0,5.933l0.596,1.187l-0,0.592l0.591,1.188l0,0.591l0.592,1.188l0.596,0.596l0.592,1.187l2.966,2.967l1.188,0.591l0.596,0.592l1.183,0.596l0.596,-0l1.187,0.592l0.592,-0l1.187,0.595Z" style="fill:#fff;"/><path d="M280.983,209.308l5.338,0l1.187,-0.595l0.592,-0l0.596,-0.592l1.187,-0l1.184,-1.188l1.187,-0.591l2.375,-2.375l0.592,-1.188l1.187,-1.187l0,-1.188l0.592,-0.591l-0,-0.592l0.596,-1.188l-0,-5.341l-0.596,-1.188l-0,-0.591l-0.592,-1.188l0,-0.592l-0.591,-1.187l-1.784,-1.779l0,-0.596l-1.183,-0.592l-2.375,-2.375l-1.188,-0.591l-0.591,-0l-1.188,-0.592l-0.591,-0l-1.188,-0.596l-4.746,0l-0.596,0.596l-1.187,-0l-0.592,0.592l-1.187,-0l-1.188,1.187l-1.187,0.592l-1.779,1.779l-0.592,1.187l-1.187,1.188l-0.592,1.187l-0,0.592l-0.596,1.188l0,0.591l-0.592,1.188l0,5.341l0.592,0.592l0,1.187l0.596,0.592l-0,1.188l1.183,1.187l0.596,1.188l3.558,3.558l1.188,0.596l0.596,-0l1.183,0.591l0.596,0l1.187,0.596Z" style="fill:#fff;"/><path d="M318.954,218.8l4.746,0l1.188,-0.592l0.595,0l0.592,-0.595l1.188,-0l2.375,-2.371l1.183,-0l-0,-1.188l2.375,-2.375l-0,-1.187l0.591,-0.592l0,-0.592l0.596,-1.187l0,-4.746l-0.596,-1.187l0,-0.596l-0.591,-1.188l-0,-0.591l-0.592,-1.188l-1.783,-1.779l-0,-0.592l-1.183,-0.596l-2.375,-2.37l-1.188,-0l-0.592,-0.596l-0.595,-0l-1.188,-0.592l-4.746,0l-1.187,0.592l-0.592,-0l-0.592,0.596l-1.187,-0l-5.933,5.933l-0.596,1.183l-0,0.596l-0.592,0.592l0,1.187l-0.592,0.596l0,4.746l0.592,0.592l0,1.187l0.592,0.592l-0,1.187l2.375,2.375l0.591,1.188l0.596,-0l0.592,0.591l1.187,0.592l1.188,1.188l1.187,-0l0.592,0.595l0.592,0l1.187,0.592Z" style="fill:#fff;"/><path d="M356.338,228.888l4.745,-0l1.188,-0.596l0.591,-0l0.592,-0.592l1.188,0l2.375,-2.375l1.187,0l0,-1.183l2.371,-2.375l-0,-1.188l0.596,-0.591l-0,-0.596l0.591,-1.184l0,-4.75l-0.591,-1.183l-0,-0.596l-0.596,-0.592l-0,-1.187l-2.371,-2.375l0,-0.592l-1.187,-0.591l-2.375,-2.375l-1.188,-0l-0.592,-0.592l-0.591,0l-1.188,-0.596l-4.745,0l-1.188,0.596l-0.596,0l-0.591,0.592l-1.188,-0l-5.933,5.933l-0,1.188l-0.592,0.591l0,0.596l-0.596,1.183l0,4.75l0.596,1.184l0,0.596l0.592,0.591l-0,1.188l2.375,2.375l0.591,1.183l0.596,0l2.371,2.375l1.187,0l0.592,0.592l0.596,-0l1.187,0.596Z" style="fill:#fff;"/><path d="M393.717,239.567l5.341,-0l0.592,-0.592l1.188,0l0.591,-0.596l1.188,0l2.375,-2.371l1.183,0l0,-1.187l2.375,-2.375l0,-1.188l0.592,-0.591l-0,-1.188l0.595,-0.591l0,-5.342l-0.595,-1.188l-0,-0.591l-0.592,-0.592l0,-1.187l-2.375,-2.375l0,-0.592l-1.183,-0.596l-2.375,-2.371l-1.188,0l-0.591,-0.596l-0.596,0l-1.184,-0.591l-4.75,-0l-1.183,0.591l-0.596,0l-1.187,0.596l-0.592,0l-1.187,0.592l-5.338,5.342l0,1.187l-0.596,0.592l0,0.591l-0.591,1.188l-0,4.746l0.591,1.187l0,0.596l0.596,0.592l0,1.187l1.183,1.188l0.596,1.183l4.154,4.154l1.184,0l0.596,0.596l0.591,0l1.188,0.592Z" style="fill:#fff;"/><path d="M203.846,49.104l5.341,0l1.188,-0.596l0.592,0l0.591,-0.591l1.188,-0l1.187,-1.188l1.188,-0.591l1.779,-1.78l0.592,-1.187l1.783,-1.779l-0,-1.188l0.592,-0.596l-0,-1.183l0.591,-0.596l0,-5.337l-0.591,-1.188l-0,-0.596l-0.592,-1.183l-0,-0.596l-0.596,-1.187l-1.187,-1.184l-0.592,-1.187l0,-0.596l-1.188,-0.592l-2.37,-2.375l-1.188,0l-0.596,-0.591l-1.183,-0l-0.596,-0.592l-5.933,-0l-0.592,0.592l-1.187,-0l-0.592,0.591l-1.187,0l-1.188,1.188l-1.187,0.596l-2.371,2.37l-0.596,1.188l-1.188,1.187l0,1.188l-0.591,0.592l-0,1.187l-0.592,0.592l0,5.933l0.592,0.596l-0,1.183l0.591,0.596l0,1.188l1.784,1.779l0.591,1.187l1.78,1.78l1.187,0.591l1.188,1.188l1.187,-0l0.592,0.591l0.591,0l1.188,0.596Z" style="fill:#fff;"/></g></svg>