<?xml version="1.0" encoding="UTF-8" standalone="no"?><!DOCTYPE svg PUBLIC "-//W3C//DTD SVG 1.1//EN" "http://www.w3.org/Graphics/SVG/1.1/DTD/svg11.dtd"><svg width="100%" height="100%" viewBox="0 0 414 528" version="1.1" xmlns="http://www.w3.org/2000/svg" xmlnsXlink="http://www.w3.org/1999/xlink" xmlSpace="preserve" xmlnsSerif="http://www.serif.com/" style="fill-rule:evenodd;clip-rule:evenodd;stroke-linejoin:round;stroke-miterlimit:2;"><rect id="Artboard1" x="0" y="0" width="413.6" height="527.9" style="fill:none;"/><g><path d="M206.095,33.284l-177.813,101.816l10.603,5.628l0,33.073l-38.885,-22.514l0,-32.368l106.758,-61.22l99.689,-57.699l125.85,72.475l80.596,46.444l-0,32.368l-38.885,22.514l-0,-32.367l9.897,-6.334l-177.81,-101.816Zm-23.244,394.975l-76.093,-41.958l-105.344,-59.103l-1.414,-32.368l38.178,-23.223l0,33.071l-9.189,5.628l181.824,101.412l173.803,-102.818l-11.312,-5.628l0,-33.071l39.589,21.109l0.707,33.071l-91.204,54.181l-83.144,49.017l0.424,0.236l-28.277,16.185l-28.988,-15.48l0.44,-0.261Zm153.685,-188.316c1.888,-2.343 4.245,-3.749 7.07,-4.218c2.828,-0.936 5.657,-0.936 8.483,0c2.829,0.469 5.424,1.875 7.778,4.218c1.885,1.877 3.302,4.223 4.241,7.036c0.472,2.815 0.472,5.63 0,8.445c-0.939,2.815 -2.353,5.398 -4.241,7.74c-2.354,1.879 -4.949,3.288 -7.778,4.222c-2.826,0.472 -5.655,0.472 -8.483,0c-2.829,-0.934 -5.424,-2.339 -7.78,-4.222c-1.886,-2.342 -3.299,-4.925 -4.239,-7.74c-0.474,-2.815 -0.474,-5.63 0,-8.445c0.942,-2.813 2.595,-5.155 4.949,-7.036Zm-44.542,28.849c1.888,-1.406 3.767,-2.342 5.657,-2.813c2.353,-0.471 4.717,-0.471 7.069,0c1.888,0.471 3.767,1.41 5.657,2.813c1.416,1.883 2.353,3.751 2.827,5.634c0.94,2.339 0.94,4.69 0,7.033c-0.474,1.879 -1.413,3.749 -2.827,5.628c-1.89,1.41 -3.769,2.346 -5.657,2.815c-2.351,0.936 -4.712,0.936 -7.069,0c-1.89,-0.469 -3.769,-1.407 -5.657,-2.815c-1.414,-1.879 -2.353,-3.749 -2.828,-5.628c-0.47,-2.343 -0.47,-4.694 -0,-7.033c0.475,-1.883 1.418,-3.751 2.828,-5.634Zm42.423,-85.139c2.351,-2.343 5.183,-3.991 8.485,-4.927c3.302,-0.934 6.596,-0.934 9.898,0c3.767,0.936 6.834,2.815 9.19,5.63c2.355,2.344 4.01,5.159 4.95,8.443c0.941,3.287 0.942,6.564 -0,9.851c-0.942,3.286 -2.595,6.334 -4.95,9.147c-2.826,2.342 -5.892,3.991 -9.19,4.927c-3.302,0.934 -6.596,0.937 -9.898,0c-3.302,-0.938 -6.13,-2.585 -8.485,-4.927c-2.827,-2.813 -4.716,-5.861 -5.655,-9.147c-0.474,-3.287 -0.474,-6.564 -0,-9.851c0.939,-3.284 2.828,-6.33 5.655,-9.146Zm-44.544,29.552c2.355,-1.881 4.716,-3.284 7.071,-4.22c2.827,-0.472 5.655,-0.472 8.484,0c2.828,0.936 5.179,2.339 7.067,4.22c1.888,1.879 3.302,4.222 4.241,7.035c0.475,2.815 0.475,5.63 -0,8.445c-0.939,2.815 -2.349,5.157 -4.241,7.036c-1.886,1.876 -4.239,3.284 -7.067,4.218c-2.829,0.473 -5.657,0.473 -8.484,0c-2.355,-0.934 -4.716,-2.339 -7.071,-4.218c-1.884,-1.877 -3.302,-4.221 -4.241,-7.036c-0.472,-2.815 -0.233,-5.63 0.706,-8.445c0.475,-2.813 1.647,-5.154 3.535,-7.035Zm-43.831,28.851c1.41,-1.41 3.302,-2.346 5.653,-2.815c1.886,-0.472 4.006,-0.472 6.364,0c1.888,0.469 3.767,1.409 5.655,2.815c1.414,1.879 2.354,3.748 2.828,5.629c0.941,2.342 0.941,4.45 -0,6.331c-0.474,2.344 -1.418,4.223 -2.828,5.632c-1.888,1.875 -3.767,3.045 -5.655,3.514c-2.358,0.473 -4.476,0.473 -6.364,0c-2.351,-0.469 -4.243,-1.639 -5.653,-3.514c-1.885,-1.411 -3.06,-3.288 -3.536,-5.632c-0.474,-1.877 -0.474,-3.989 -0,-6.331c0.476,-1.881 1.648,-3.75 3.536,-5.629Zm41.713,-85.139c2.351,-2.346 5.182,-3.995 8.484,-4.929c3.302,-0.936 6.597,-0.936 9.899,0c3.764,0.938 6.834,2.583 9.187,4.929c2.357,2.813 4.013,5.861 4.953,9.143c0.939,3.287 0.943,6.565 -0,9.851c-0.944,3.287 -2.596,6.102 -4.953,8.445c-2.353,2.813 -5.423,4.456 -9.187,4.928c-3.302,0.933 -6.597,0.933 -9.899,0c-3.302,-0.939 -6.129,-2.584 -8.484,-4.928c-2.356,-2.343 -4.013,-5.158 -4.951,-8.445c-0.937,-3.286 -0.937,-6.564 -0,-9.851c0.942,-3.282 2.595,-6.33 4.951,-9.143Zm-44.542,29.552c2.351,-2.346 4.715,-3.752 7.068,-4.218c2.832,-0.936 5.658,-0.936 8.487,0c2.828,0.471 5.423,1.876 7.778,4.222c1.884,1.875 3.302,4.218 4.241,7.033c0.472,2.815 0.472,5.63 -0,8.443c-0.939,2.815 -2.353,5.157 -4.241,7.036c-2.355,1.878 -4.95,3.288 -7.778,4.22c-2.829,0.936 -5.655,0.936 -8.487,0c-2.829,-0.936 -5.185,-2.346 -7.07,-4.221c-1.886,-1.878 -3.302,-4.222 -4.242,-7.037c-0.472,-2.815 -0.472,-5.63 -0,-8.445c0.94,-2.813 2.356,-5.155 4.244,-7.033Zm4.946,111.878c1.418,-0.94 2.829,-1.64 4.243,-2.112c1.411,-0.472 2.828,-0.472 4.239,0c1.886,0.472 3.299,1.176 4.243,2.112c0.942,0.934 1.645,2.342 2.121,4.221c0.474,1.403 0.474,2.813 -0,4.218c-0.476,1.879 -1.183,3.284 -2.121,4.222c-0.941,0.939 -2.355,1.643 -4.243,2.111c-1.411,0.473 -2.828,0.473 -4.239,0c-1.414,-0.468 -2.828,-1.175 -4.243,-2.111c-0.942,-1.403 -1.645,-2.813 -2.119,-4.222c-0.476,-1.405 -0.476,-2.815 -0,-4.218c0.474,-1.877 1.181,-3.287 2.119,-4.221Zm-43.833,28.851c0.474,-0.474 1.181,-0.938 2.121,-1.405l2.827,0c0.94,0.472 1.892,0.936 2.828,1.408c0.474,0.933 0.941,1.879 1.415,2.815l-0,2.814c-0.474,0.932 -0.941,1.88 -1.415,2.814c-0.936,0.469 -1.888,0.936 -2.828,1.405l-2.827,0c-0.944,-0.469 -1.647,-1.175 -2.121,-2.111c-0.94,-0.473 -1.412,-1.178 -1.412,-2.11c-0.474,-0.936 -0.474,-1.883 -0,-2.815c-0,-0.936 0.472,-1.883 1.412,-2.815Zm-2.828,-56.294c0.942,-0.936 2.352,-1.639 4.242,-2.114c1.414,-0.47 3.06,-0.47 4.948,0c1.411,0.471 2.829,1.178 4.239,2.114c0.944,1.405 1.65,2.815 2.125,4.218c0.47,1.879 0.47,3.522 -0,4.928c-0.475,1.878 -1.184,3.284 -2.125,4.22c-1.41,1.41 -2.828,2.346 -4.239,2.815c-1.888,0.471 -3.537,0.471 -4.948,0c-1.89,-0.469 -3.302,-1.408 -4.242,-2.815c-1.415,-0.936 -2.355,-2.339 -2.829,-4.22c-0.474,-1.41 -0.474,-3.049 -0,-4.928c0.474,-1.403 1.418,-2.813 2.829,-4.218Zm-45.25,28.146c0.941,-0.936 2.125,-1.643 3.536,-2.112l3.535,0c1.413,0.469 2.592,1.176 3.534,2.112c0.942,0.936 1.648,2.11 2.121,3.518c0.474,1.405 0.474,2.815 -0,4.218c-0.473,0.936 -1.18,1.883 -2.121,2.819c-0.938,0.934 -2.121,1.639 -3.534,2.11c-1.414,0.47 -2.596,0.47 -3.535,0c-1.411,-0.471 -2.595,-1.178 -3.536,-2.11c-0.94,-0.936 -1.647,-1.883 -2.121,-2.819c-0.474,-1.403 -0.474,-2.813 -0,-4.218c0.474,-1.408 1.185,-2.582 2.121,-3.518Zm84.139,-168.876c2.826,-2.815 5.888,-4.691 9.19,-5.63c3.771,-0.934 7.303,-0.934 10.605,0c3.302,0.936 6.364,2.815 9.19,5.63c2.355,2.342 4.01,5.157 4.95,8.443c0.941,3.752 0.941,7.271 -0,10.555c-0.942,3.287 -2.595,6.333 -4.95,9.148c-2.826,2.344 -5.888,3.992 -9.19,4.925c-3.771,0.936 -7.306,0.936 -10.605,0c-3.302,-0.935 -6.364,-2.581 -9.19,-4.925c-2.359,-2.815 -4.013,-5.861 -4.95,-9.148c-0.941,-3.286 -0.941,-6.804 -0,-10.555c0.94,-3.286 2.591,-6.101 4.95,-8.443Zm-41.718,84.436c1.888,-1.407 4.01,-2.582 6.364,-3.516c1.885,-0.473 4.006,-0.473 6.362,0c2.355,0.934 4.473,2.109 6.364,3.516c1.885,1.877 3.06,3.989 3.532,6.333c0.474,2.341 0.474,4.692 -0,7.035c-0.472,2.344 -1.644,4.223 -3.532,5.628c-1.888,1.879 -4.009,3.05 -6.364,3.518c-2.353,0.936 -4.716,0.936 -7.069,0c-2.355,-0.468 -4.243,-1.635 -5.657,-3.518c-1.884,-1.406 -3.06,-3.284 -3.535,-5.628c-0.474,-2.341 -0.474,-4.692 -0,-7.035c0.475,-2.344 1.647,-4.452 3.535,-6.333Zm-45.249,28.148c1.418,-1.407 3.062,-2.343 4.953,-2.815c1.885,-0.469 4.006,-0.469 6.362,0c1.888,0.472 3.536,1.41 4.95,2.815c1.414,1.41 2.353,3.046 2.827,4.928c0.475,2.343 0.475,4.451 -0,6.33c-0.474,1.882 -1.416,3.522 -2.827,4.928c-1.418,1.405 -3.062,2.584 -4.95,3.519c-2.356,0.468 -4.474,0.468 -6.362,0c-1.891,-0.935 -3.539,-2.114 -4.953,-3.519c-1.414,-1.41 -2.353,-3.046 -2.828,-4.928c-0.939,-1.876 -0.939,-3.987 -0,-6.33c0.475,-1.882 1.417,-3.52 2.828,-4.928Zm-45.955,27.443c1.415,-1.409 3.064,-2.343 4.952,-2.815c1.888,-0.473 3.767,-0.473 5.657,0c1.888,0.472 3.302,1.406 4.241,2.815c1.414,1.406 2.354,3.045 2.828,4.924c0.474,1.879 0.474,3.75 -0,5.63c-0.474,1.881 -1.418,3.52 -2.828,4.929c-1.416,0.934 -3.06,1.879 -4.948,2.813c-1.892,0.469 -3.539,0.469 -4.954,0c-1.888,-0.934 -3.537,-1.879 -4.948,-2.813c-1.417,-1.41 -2.354,-3.048 -2.828,-4.929c-0.474,-1.88 -0.474,-3.751 -0,-5.63c0.474,-1.879 1.414,-3.521 2.828,-4.924Zm88.376,-111.881c2.354,-2.343 4.95,-3.749 7.774,-4.218c3.303,-0.936 6.364,-0.936 9.191,0c2.828,0.469 5.423,1.875 7.78,4.218c2.354,2.346 4.009,4.926 4.95,7.741c0.473,3.286 0.233,6.332 -0.708,9.147c-0.473,3.287 -1.884,5.864 -4.239,7.743c-2.356,2.343 -4.951,3.991 -7.78,4.925c-2.828,0.472 -5.888,0.472 -9.19,0c-2.828,-0.938 -5.424,-2.582 -7.778,-4.925c-2.349,-2.346 -3.767,-4.928 -4.241,-7.743c-0.937,-2.815 -0.937,-5.861 -0,-9.147c0.474,-2.815 1.888,-5.395 4.241,-7.741Zm-45.249,28.149c1.889,-1.882 4.246,-3.291 7.071,-4.223c2.828,-0.471 5.423,-0.471 7.776,0c2.828,0.936 5.183,2.341 7.071,4.223c1.884,1.876 3.302,4.218 4.239,7.033c0.474,2.815 0.474,5.398 -0,7.74c-0.937,2.817 -2.355,5.159 -4.239,7.037c-1.886,1.875 -4.243,3.287 -7.071,4.221c-2.353,0.469 -4.948,0.469 -7.776,0c-2.829,-0.934 -5.185,-2.346 -7.071,-4.221c-1.885,-1.878 -3.299,-4.22 -4.24,-7.037c-0.473,-2.342 -0.473,-4.925 -0,-7.74c0.941,-2.815 2.352,-5.157 4.24,-7.033Zm-45.951,27.438c1.884,-1.879 4.005,-3.046 6.362,-3.518c2.828,-0.935 5.423,-0.935 7.778,0c2.353,0.472 4.478,1.642 6.362,3.518c1.886,1.877 3.062,3.99 3.535,6.333c0.939,2.815 0.939,5.397 -0,7.74c-0.473,2.346 -1.649,4.456 -3.535,6.333c-1.884,1.877 -4.009,3.046 -6.362,3.518c-2.355,0.936 -4.95,0.936 -7.778,0c-2.357,-0.472 -4.478,-1.641 -6.362,-3.518c-1.887,-1.877 -3.062,-3.987 -3.536,-6.333c-0.94,-2.343 -0.94,-4.925 -0,-7.74c0.474,-2.343 1.646,-4.454 3.536,-6.333Zm-46.664,26.739c1.886,-1.879 4.008,-3.046 6.364,-3.518c2.827,-0.936 5.423,-0.936 7.776,0c2.355,0.472 4.478,1.641 6.364,3.518c1.885,1.877 3.299,3.987 4.239,6.333c0.474,2.815 0.474,5.398 0,7.74c-0.94,2.346 -2.354,4.456 -4.239,6.333c-1.886,1.876 -4.009,3.046 -6.364,3.519c-2.353,0.934 -4.949,0.934 -7.776,0c-2.356,-0.473 -4.478,-1.643 -6.364,-3.519c-1.884,-1.877 -3.06,-3.987 -3.535,-6.333c-0.939,-2.815 -0.939,-5.397 -0,-7.74c0.475,-2.346 1.647,-4.454 3.535,-6.333Zm135.039,-138.618c2.825,-2.815 6.131,-4.694 9.898,-5.628c3.765,-0.936 7.544,-0.936 11.313,-0c3.299,0.934 6.362,2.813 9.191,5.628c2.828,2.815 4.716,6.102 5.655,9.851c0.937,3.749 0.937,7.509 -0,11.258c-0.939,3.288 -2.827,6.333 -5.655,9.148c-2.829,2.815 -5.892,4.694 -9.191,5.628c-3.769,0.936 -7.548,0.936 -11.313,0c-3.767,-0.934 -7.07,-2.813 -9.898,-5.628c-2.828,-2.815 -4.716,-6.102 -5.655,-9.851c-0.941,-3.287 -0.941,-6.806 -0,-10.555c0.939,-3.749 2.827,-7.036 5.655,-9.851Zm-45.251,28.147c2.356,-2.342 5.423,-3.99 9.19,-4.928c3.303,-0.932 6.596,-0.932 9.898,0c3.301,0.938 6.131,2.582 8.485,4.928c2.829,2.343 4.478,5.156 4.95,8.444c0.939,3.752 0.939,7.271 -0,10.554c-0.472,3.286 -2.121,6.101 -4.95,8.443c-2.354,2.347 -5.184,3.995 -8.485,4.929c-3.302,0.936 -6.595,0.936 -9.898,0c-3.767,-0.938 -6.834,-2.582 -9.19,-4.929c-2.355,-2.342 -4.009,-5.157 -4.95,-8.443c-0.94,-3.752 -0.942,-7.267 -0,-10.554c0.942,-3.288 2.595,-6.101 4.95,-8.444Zm-45.953,27.441c2.351,-2.342 5.178,-3.99 8.484,-4.924c3.302,-0.473 6.595,-0.473 9.897,0c2.829,0.937 5.424,2.582 7.778,4.924c2.353,2.347 4.01,5.16 4.948,8.444c0.941,2.818 0.941,5.864 -0,9.148c-0.942,3.287 -2.595,6.1 -4.948,8.443c-2.354,2.342 -5.181,3.751 -8.483,4.223c-2.828,0.934 -5.89,0.934 -9.192,0c-3.303,-0.472 -6.131,-1.877 -8.484,-4.223c-1.886,-2.343 -3.302,-5.156 -4.243,-8.443c-0.938,-3.284 -0.938,-6.33 0,-9.148c0.941,-3.284 2.355,-6.097 4.243,-8.444Zm-45.958,26.738c2.356,-1.879 4.951,-3.284 7.78,-4.221c3.302,-0.935 6.362,-0.935 9.19,0c3.299,0.937 6.127,2.584 8.484,4.926c2.351,1.879 3.769,4.456 4.239,7.74c0.94,2.815 0.94,5.863 -0,9.146c-0.937,3.288 -2.349,5.861 -4.239,7.744c-2.357,2.342 -5.185,3.99 -8.484,4.925c-2.828,0.936 -5.888,0.936 -9.19,0c-2.829,-0.938 -5.424,-2.583 -7.78,-4.925c-2.355,-2.346 -4.009,-4.929 -4.95,-7.744c-0.474,-3.283 -0.474,-6.331 0,-9.146c0.942,-3.284 2.595,-6.099 4.95,-8.445Zm-46.663,26.74c1.887,-2.343 4.477,-3.988 7.778,-4.927c3.298,-0.934 6.595,-0.934 9.894,0c2.828,0.939 5.423,2.584 7.78,4.927c2.354,2.344 4.009,5.159 4.949,8.443c0.941,2.815 0.943,5.861 0,9.148c-0.942,3.285 -2.595,6.1 -4.949,8.443c-2.357,2.343 -4.952,3.749 -7.78,4.222c-3.299,0.935 -6.596,0.935 -9.894,0c-3.303,-0.473 -6.131,-1.876 -8.486,-4.222c-1.888,-2.343 -3.302,-5.158 -4.24,-8.443c-0.941,-3.287 -0.941,-6.333 -0,-9.148c0.942,-3.284 2.595,-6.099 4.948,-8.443Zm371.179,-0.705c2.356,-2.815 5.185,-4.453 8.485,-4.925c3.302,-0.936 6.595,-0.936 9.898,0c3.302,0.472 6.362,2.11 9.19,4.925c2.355,2.346 4.009,5.161 4.95,8.444c0.939,3.286 0.939,6.564 -0,9.85c-0.942,3.751 -2.595,6.806 -4.95,9.148c-2.828,2.343 -5.888,3.991 -9.19,4.925c-3.303,0.936 -6.596,0.936 -9.898,0c-3.3,-0.938 -6.36,-2.582 -9.189,-4.925c-2.356,-2.342 -4.013,-5.397 -4.951,-9.148c-0.941,-3.286 -0.941,-6.564 -0,-9.85c0.938,-3.283 2.828,-6.098 5.655,-8.444Z" style="fill:url(#_Linear1);"/></g><g><path d="M362.492,500.155l14.153,-0l-0,-0.143c-0,-2 -0.28,-3.572 -0.7,-4.857c-0.561,-1.428 -1.402,-2.429 -2.523,-3.143c-1.121,-0.714 -2.382,-1.142 -3.924,-1.142c-1.401,-0 -2.663,0.428 -3.783,1.142c-0.981,0.714 -1.822,1.715 -2.383,3.143c-0.56,1.285 -0.84,2.857 -0.84,4.857l-0,0.143m7.146,27.714c-6.586,-0 -11.911,-1.857 -15.835,-5.571c-3.924,-3.571 -5.886,-9 -6.166,-16.286l-0,-3c0.28,-4.428 1.261,-8.285 3.083,-11.57c1.821,-3.287 4.343,-5.715 7.567,-7.429c3.223,-1.571 7.007,-2.429 11.211,-2.429c5.045,-0 9.109,1.001 12.331,3c3.224,2 5.606,4.715 7.288,8.143c1.541,3.429 2.382,7.286 2.382,11.715l-0,2c-0,0.714 -0.14,1.143 -0.561,1.572c-0.42,0.428 -0.981,0.571 -1.541,0.571l-26.906,-0l-0,0.571c-0,1.714 0.279,3.286 0.84,4.571c0.56,1.429 1.401,2.429 2.382,3.287c0.981,0.856 2.382,1.142 3.784,1.142c1.121,-0 2.102,-0.142 2.803,-0.571c0.84,-0.286 1.4,-0.714 1.961,-1.286c0.56,-0.428 0.841,-0.857 1.122,-1.143c0.56,-0.714 0.98,-1 1.26,-1.142c0.28,-0.143 0.841,-0.286 1.542,-0.286l10.37,-0c0.561,-0 0.981,0.143 1.402,0.571c0.279,0.286 0.56,0.715 0.42,1.286c-0,1 -0.56,2.143 -1.401,3.571c-0.84,1.429 -2.242,2.715 -3.924,4c-1.682,1.429 -3.783,2.572 -6.446,3.43c-2.522,0.854 -5.604,1.283 -8.968,1.283Zm-48.908,-0c-3.643,-0 -6.726,-0.429 -9.249,-1.285c-2.522,-0.857 -4.624,-1.857 -6.166,-3c-1.682,-1.286 -2.803,-2.429 -3.643,-3.715c-0.701,-1.285 -1.122,-2.428 -1.262,-3.428c-0,-0.714 0.14,-1.143 0.561,-1.572c0.56,-0.429 0.981,-0.572 1.541,-0.572l9.95,-0c0.14,0.143 0.28,0.286 0.561,0.43c0.7,0.428 1.401,0.856 2.102,1.428c0.701,0.714 1.542,1.142 2.522,1.571c0.982,0.572 2.103,0.714 3.504,0.714c1.542,-0 2.803,-0.285 3.924,-1c1.121,-0.571 1.542,-1.571 1.542,-2.714c0,-1.001 -0.141,-1.715 -0.701,-2.286c-0.561,-0.572 -1.542,-1.143 -3.083,-1.715c-1.542,-0.57 -3.784,-1.142 -6.867,-1.713c-2.943,-0.715 -5.465,-1.572 -7.707,-2.715c-2.243,-1.142 -3.925,-2.571 -5.046,-4.428c-1.121,-1.714 -1.822,-4 -1.822,-6.572c0,-2.285 0.841,-4.427 2.242,-6.571c1.402,-2.143 3.644,-3.857 6.447,-5.143c2.803,-1.428 6.166,-2 10.371,-2c3.223,-0 6.025,0.286 8.407,1.143c2.383,0.714 4.485,1.714 6.026,2.857c1.682,1.286 2.943,2.429 3.783,3.714c0.841,1.286 1.261,2.429 1.261,3.429c0.141,0.572 -0.139,1.144 -0.42,1.572c-0.42,0.429 -0.841,0.571 -1.401,0.571l-8.689,-0c-0.28,-0 -0.56,-0 -0.7,-0.142c-0.28,-0 -0.421,-0.143 -0.561,-0.285c-0.7,-0.286 -1.401,-0.715 -2.102,-1.286c-0.701,-0.572 -1.402,-1.143 -2.382,-1.572c-0.841,-0.429 -1.962,-0.714 -3.364,-0.714c-1.402,-0 -2.663,0.285 -3.503,1c-0.841,0.714 -1.261,1.572 -1.261,2.714c0,0.715 0.28,1.429 0.7,2c0.561,0.715 1.542,1.286 2.943,1.715c1.542,0.571 3.783,1.143 7.007,1.714c3.783,0.714 6.867,1.714 9.249,3.143c2.242,1.286 3.924,3 4.905,4.857c0.981,1.857 1.401,3.714 1.401,5.857c0,2.714 -0.701,5.143 -2.383,7.286c-1.681,2.143 -4.064,3.714 -7.146,4.857c-3.082,1.142 -6.866,1.856 -11.491,1.856Zm-39.938,-51.857c-0.561,-0 -1.121,-0.285 -1.402,-0.714c-0.42,-0.286 -0.7,-0.857 -0.7,-1.429l-0,-7.714c-0,-0.572 0.28,-1.143 0.7,-1.572c0.281,-0.429 0.841,-0.571 1.402,-0.571l10.089,-0c0.561,-0 1.121,0.142 1.542,0.571c0.42,0.429 0.561,1 0.561,1.572l0,7.714c0,0.571 -0.141,1.143 -0.561,1.428c-0.421,0.429 -0.981,0.715 -1.542,0.715l-10.089,-0Zm0.139,51c-0.56,-0 -1.121,-0.286 -1.541,-0.715c-0.421,-0.428 -0.561,-0.856 -0.561,-1.428l-0,-40.286c-0,-0.714 0.14,-1.143 0.561,-1.571c0.42,-0.429 0.981,-0.572 1.541,-0.572l9.95,-0c0.561,-0 1.121,0.143 1.542,0.572c0.28,0.428 0.561,0.856 0.561,1.571l0,40.286c0,0.572 -0.281,1.001 -0.561,1.428c-0.421,0.429 -0.981,0.715 -1.542,0.715l-9.95,-0Zm-61.8,-0c-0.981,-0 -1.682,-0.286 -2.242,-0.857c-0.561,-0.572 -0.981,-1.286 -1.121,-2l-9.109,-54.857c-0,-0.143 -0.141,-0.286 -0.141,-0.286l-0,-0.285c-0,-0.428 0.28,-0.857 0.561,-1.285c0.42,-0.286 0.84,-0.429 1.261,-0.429l10.37,-0c1.682,-0 2.523,0.571 2.663,1.857l5.465,33.428l6.026,-19.714c0.14,-0.429 0.421,-1 0.841,-1.572c0.42,-0.428 1.121,-0.714 1.961,-0.714l6.026,-0c0.981,-0 1.682,0.286 2.102,0.714c0.28,0.572 0.561,1.143 0.701,1.572l6.026,19.714l5.465,-33.428c0.14,-1.286 1.121,-1.857 2.663,-1.857l10.37,-0c0.561,-0 0.981,0.142 1.261,0.429c0.421,0.428 0.561,0.857 0.561,1.285l-0,0.571l-9.25,54.857c-0,0.714 -0.42,1.428 -0.981,2c-0.56,0.571 -1.261,0.857 -2.242,0.857l-7.988,-0c-0.981,-0 -1.681,-0.286 -2.242,-0.857c-0.421,-0.429 -0.841,-1 -0.982,-1.428l-8.407,-24.572l-8.547,24.571c-0.14,0.429 -0.561,1 -0.981,1.428c-0.421,0.571 -1.121,0.857 -2.102,0.857l-7.988,-0l-0,0.001Zm-54.373,-12.429l8.828,-0c2.383,-0 4.345,-0.286 5.886,-1.143c1.682,-0.714 2.803,-2 3.644,-3.571c0.84,-1.714 1.261,-3.857 1.4,-6.572c-0,-1.714 0.141,-3.142 0.141,-4.428l-0,-4c-0,-1.286 -0.141,-2.715 -0.141,-4.286c-0.139,-4 -1.121,-6.714 -3.082,-8.571c-1.822,-1.857 -4.625,-2.715 -8.268,-2.715l-8.408,-0l-0,35.286Zm-13.033,12.429c-0.7,-0 -1.121,-0.286 -1.542,-0.715c-0.42,-0.428 -0.56,-0.856 -0.56,-1.428l-0,-55.714c-0,-0.715 0.14,-1.143 0.56,-1.572c0.421,-0.429 0.841,-0.571 1.542,-0.571l21.861,-0c5.466,-0 10.09,0.856 14.014,2.571c3.784,1.857 6.867,4.572 8.829,8c2.102,3.428 3.223,7.714 3.363,12.714c0.14,2.571 0.14,4.714 0.14,6.714c-0,1.857 -0,4 -0.14,6.428c-0.14,5.286 -1.261,9.714 -3.223,13.286c-2.102,3.428 -4.905,6 -8.689,7.714c-3.783,1.714 -8.408,2.572 -13.874,2.572l-22.281,-0l-0,0.001Zm-41.48,-19.572c-0.701,-0 -1.121,-0.285 -1.542,-0.571c-0.421,-0.429 -0.561,-1.001 -0.561,-1.572l-0,-8.142c-0,-0.572 0.14,-1.143 0.561,-1.429c0.421,-0.429 0.841,-0.714 1.542,-0.714l26.346,-0c0.56,-0 1.121,0.285 1.541,0.714c0.421,0.286 0.561,0.857 0.561,1.429l-0,8.142c-0,0.572 -0.14,1.143 -0.561,1.573c-0.42,0.285 -0.981,0.571 -1.541,0.571l-26.346,-0l-0,-0.001Zm-59.558,19.572c-0.701,-0 -1.122,-0.286 -1.543,-0.715c-0.42,-0.428 -0.56,-0.856 -0.56,-1.428l-0,-55.714c-0,-0.715 0.14,-1.143 0.56,-1.572c0.421,-0.429 0.841,-0.571 1.543,-0.571l8.828,-0c0.981,-0 1.682,0.142 2.102,0.571c0.421,0.429 0.701,0.714 0.841,1l20.46,32.857l-0,-32.285c-0,-0.715 0.14,-1.143 0.561,-1.572c0.42,-0.429 0.981,-0.571 1.541,-0.571l10.09,-0c0.561,-0 1.121,0.142 1.542,0.571c0.42,0.429 0.56,0.857 0.56,1.572l0,55.571c0,0.571 -0.14,1.143 -0.56,1.571c-0.421,0.429 -0.981,0.715 -1.542,0.715l-8.969,-0c-0.981,-0 -1.542,-0.286 -1.962,-0.715c-0.421,-0.428 -0.7,-0.856 -0.841,-1l-20.46,-31.714l0,31.286c0,0.572 -0.28,1.001 -0.7,1.428c-0.28,0.429 -0.84,0.715 -1.402,0.715l-10.089,-0Zm-25.085,-51c-0.561,-0 -1.121,-0.285 -1.401,-0.714c-0.421,-0.286 -0.701,-0.857 -0.701,-1.428l-0,-7.715c-0,-0.572 0.28,-1.143 0.701,-1.572c0.28,-0.429 0.84,-0.571 1.401,-0.571l10.089,-0c0.561,-0 1.122,0.142 1.542,0.571c0.421,0.429 0.561,1 0.561,1.572l-0,7.714c-0,0.571 -0.14,1.143 -0.561,1.428c-0.42,0.429 -0.981,0.715 -1.542,0.715l-10.089,-0Zm0.14,51c-0.561,-0 -1.122,-0.286 -1.542,-0.715c-0.42,-0.428 -0.56,-0.856 -0.56,-1.428l-0,-40.286c-0,-0.714 0.14,-1.143 0.56,-1.571c0.42,-0.429 0.981,-0.572 1.542,-0.572l9.949,-0c0.561,-0 1.122,0.143 1.542,0.572c0.28,0.428 0.561,0.856 0.561,1.571l-0,40.286c-0,0.572 -0.28,1.001 -0.561,1.428c-0.42,0.429 -0.981,0.715 -1.542,0.715l-9.949,-0Z" style="fill:#231926;fill-rule:nonzero;"/></g><defs><linearGradient id="_Linear1" x1="0" y1="0" x2="1" y2="0" gradientUnits="userSpaceOnUse" gradientTransform="matrix(413.6,0,0,413.6,0,222)"><stop offset="0" style="stop-color:#179543;stop-opacity:1"/><stop offset="1" style="stop-color:#15a815;stop-opacity:1"/></linearGradient></defs></svg>