<?xml version="1.0" encoding="UTF-8" standalone="no"?><!DOCTYPE svg PUBLIC "-//W3C//DTD SVG 1.1//EN" "http://www.w3.org/Graphics/SVG/1.1/DTD/svg11.dtd"><svg width="100%" height="100%" viewBox="0 0 417 417" version="1.1" xmlns="http://www.w3.org/2000/svg" xmlns:xlink="http://www.w3.org/1999/xlink" xml:space="preserve" xmlns:serif="http://www.serif.com/" style="fill-rule:evenodd;clip-rule:evenodd;stroke-linejoin:round;stroke-miterlimit:2;"><path d="M181.25,0l-181.25,313.941l0,90.226c-0,6.811 5.567,12.433 12.378,12.5l174.011,-0l-87.431,-151.441l153.125,-265.226l-70.833,0Zm89.583,0l-84.375,146.146l64.549,111.788l165.66,0l-0,-245.469c-0.019,-6.844 -5.656,-12.465 -12.5,-12.465l-133.334,-0Zm-93.75,162.378l-35.833,62.066c-3.986,6.911 -3.986,15.451 -0,22.362c3.993,6.944 11.389,11.111 19.392,11.111l71.615,-0l-55.174,-95.539Zm-54.201,111.806l82.257,142.483l199.149,-0c6.798,-0.066 12.36,-5.667 12.379,-12.466l-0,-130.034l-293.785,0.017Z" style="fill:#fff;fill-rule:nonzero;"/></svg>