<?xml version="1.0" encoding="UTF-8" standalone="no"?><!DOCTYPE svg PUBLIC "-//W3C//DTD SVG 1.1//EN" "http://www.w3.org/Graphics/SVG/1.1/DTD/svg11.dtd"><svg width="100%" height="100%" viewBox="0 0 21324 21329" version="1.1" xmlns="http://www.w3.org/2000/svg" xmlns:xlink="http://www.w3.org/1999/xlink" xml:space="preserve" xmlns:serif="http://www.serif.com/" style="fill-rule:evenodd;clip-rule:evenodd;stroke-linejoin:round;stroke-miterlimit:2;"><path d="M10987.1,21328.8l-632.083,0c-29.583,-10.833 -58.75,-13.333 -88.333,-13.333c-337.5,-16.25 -672.5,-42.917 -1004.58,-88.334c-621.25,-80.416 -1232.08,-217.083 -1826.67,-407.083c-1020.42,-326.667 -1971.25,-795.417 -2852.5,-1406.25c-817.084,-567.917 -1540,-1237.5 -2169.58,-2008.75c-742.083,-905.417 -1320.42,-1904.58 -1730.42,-3002.5c-367.084,-975 -586.667,-1984.58 -653.75,-3026.67c-2.5,-56.25 -10.834,-112.5 -29.584,-168.75l0,-1100.83c18.75,-48.333 26.667,-99.167 29.584,-150c13.333,-249.167 40,-498.333 72.5,-744.583c160.833,-1189.17 514.166,-2317.08 1057.92,-3385.83c375,-736.666 830.417,-1422.08 1365.83,-2054.58c530.416,-626.667 1125,-1186.67 1783.75,-1676.67c1074.17,-798.333 2255.42,-1374.17 3546.25,-1727.5c626.666,-171.25 1267.08,-283.75 1915,-337.5c115,-10.833 235.833,-2.5 350.833,-29.583l1082.08,-0c82.917,24.167 168.75,10.833 251.667,18.75c428.75,37.5 854.583,91.25 1277.5,174.167c1331.25,262.5 2565.83,760.833 3707.08,1497.08c886.667,570.417 1668.75,1258.75 2351.67,2059.58c549.167,642.917 1015,1342.08 1395.42,2097.08c450,892.083 771.25,1826.67 953.75,2809.58c96.25,519.583 168.75,1044.58 171.25,1575c-0,35 7.916,72.5 10.833,107.083l0,632.084c-10.833,40 -10.833,82.916 -13.333,125.833c-0,101.667 -0,203.75 -7.917,305.417c-48.333,648.333 -150,1288.33 -310.833,1920.42c-307.917,1186.67 -803.75,2287.5 -1492.08,3302.5c-511.666,755.417 -1108.75,1435.83 -1794.58,2038.33c-682.917,600 -1430.42,1106.25 -2242.08,1515.83c-935,471.25 -1917.92,798.333 -2949.17,977.5c-396.25,69.583 -795.417,115 -1197.08,139.167c-105.834,12.083 -218.334,9.583 -328.334,33.333Zm-4309.58,-5089.17c176.667,5.417 375,-16.25 573.333,-58.75c586.667,-128.75 1085,-396.25 1467.92,-870.416c232.917,-289.167 428.75,-602.5 597.5,-932.084c198.333,-388.333 364.167,-792.916 508.75,-1202.5c176.667,-495.416 326.667,-1001.67 442.083,-1513.33c64.167,-286.667 -7.916,-466.25 -324.166,-565c-401.667,-125.833 -806.25,-238.333 -1218.75,-329.583c-682.917,-150 -1371.25,-246.25 -2073.33,-222.5c-198.333,7.916 -396.25,29.583 -592.083,64.166c-567.917,99.167 -1050,361.667 -1443.75,776.667c-672.5,707.083 -940,1550.83 -774.167,2512.5c238.334,1374.17 1454.58,2351.67 2836.67,2340.83Zm1132.92,-9851.25c-7.917,200.834 29.583,420.417 91.25,640c117.916,417.917 313.333,800.834 543.75,1162.5c525,822.5 1186.67,1526.67 1904.58,2180.42c58.75,53.75 128.75,99.167 203.75,133.75c75,37.5 150,37.5 227.5,5.417c75,-32.084 142.083,-77.5 198.333,-136.667c249.167,-246.25 495.417,-492.917 731.25,-747.5c332.084,-361.667 648.334,-733.75 935,-1132.92c260,-361.666 492.917,-742.083 664.167,-1154.58c171.25,-410 254.583,-832.917 198.333,-1277.5c-93.75,-733.75 -407.083,-1355.42 -967.083,-1842.92c-662.083,-575.416 -1433.33,-805.833 -2301.25,-677.5c-1411.67,209.167 -2435,1452.08 -2429.58,2847.5Zm6958.75,9835.42c69.583,-2.5 195.416,0 321.25,-18.75c846.25,-125.833 1515.83,-535.833 1987.5,-1253.33c369.583,-565 519.583,-1192.08 450,-1864.17c-64.167,-629.583 -318.75,-1181.25 -750,-1644.58c-375,-401.667 -822.5,-680.417 -1363.33,-798.334c-297.5,-64.166 -600,-91.25 -902.5,-96.25c-358.75,-5.416 -715,26.667 -1068.75,75c-707.083,99.167 -1398.33,267.917 -2078.33,482.084c-69.583,21.25 -133.75,53.75 -190,99.166c-72.5,58.75 -112.5,131.25 -112.5,225c0,80.417 7.917,160.834 26.667,241.25c42.916,160.834 80.416,321.25 123.333,479.584c198.333,723.333 439.167,1430.42 768.75,2105.42c190,388.334 410,755.417 691.25,1085c214.167,249.167 463.333,452.5 760.833,594.584c406.667,194.583 829.584,299.166 1335.83,288.333Z" style="fill:#fff;fill-rule:nonzero;"/></svg>