<?xml version="1.0" encoding="UTF-8" standalone="no"?><!DOCTYPE svg PUBLIC "-//W3C//DTD SVG 1.1//EN" "http://www.w3.org/Graphics/SVG/1.1/DTD/svg11.dtd"><svg width="100%" height="100%" viewBox="0 0 3334 3334" version="1.1" xmlns="http://www.w3.org/2000/svg" xmlns:xlink="http://www.w3.org/1999/xlink" xml:space="preserve" xmlns:serif="http://www.serif.com/" style="fill-rule:evenodd;clip-rule:evenodd;stroke-linecap:round;stroke-linejoin:round;"><path d="M1666.67,416.667l-416.667,-0c-230.118,-0 -416.667,186.548 -416.667,416.666c0,230.118 186.549,416.667 416.667,416.667m416.667,-833.333l-0,833.333m-0,-833.333l416.666,-0c230.125,-0 416.667,186.548 416.667,416.666c0,230.118 -186.542,416.667 -416.667,416.667m-416.666,0l-416.667,0m416.667,0l416.666,0m-416.666,0l-0,833.333m-416.667,-833.333c-230.118,0 -416.667,186.542 -416.667,416.667c0,230.125 186.549,416.666 416.667,416.666m833.333,-833.333c230.125,0 416.667,186.542 416.667,416.667c0,230.125 -186.542,416.666 -416.667,416.666c-230.125,0 -416.666,-186.541 -416.666,-416.666c-0,-230.125 186.541,-416.667 416.666,-416.667Zm-416.666,833.333l-416.667,0m416.667,0l-0,416.667c-0,230.125 -186.542,416.667 -416.667,416.667c-230.118,-0 -416.667,-186.542 -416.667,-416.667c0,-230.125 186.549,-416.667 416.667,-416.667" style="fill:none;fill-rule:nonzero;stroke:#fff;stroke-width:277.78px;"/></svg>